<?xml version="1.0" encoding="UTF-8" standalone="no"?>
<!DOCTYPE svg PUBLIC "-//W3C//DTD SVG 1.1//EN" "http://www.w3.org/Graphics/SVG/1.1/DTD/svg11.dtd">
<svg width="100%" height="100%" viewBox="0 0 61 61" version="1.1" xmlns="http://www.w3.org/2000/svg" xmlns:xlink="http://www.w3.org/1999/xlink" xml:space="preserve" xmlns:serif="http://www.serif.com/" style="fill-rule:evenodd;clip-rule:evenodd;stroke-linejoin:round;stroke-miterlimit:2;">
    <g>
        <clipPath id="_clip1">
            <rect x="0.64" y="0.51" width="60" height="60"/>
        </clipPath>
        <g clip-path="url(#_clip1)">
            <path d="M30.63,0.51C14.172,0.51 0.63,14.052 0.63,30.51C0.63,46.968 14.172,60.51 30.63,60.51C47.088,60.51 60.63,46.968 60.63,30.51C60.63,14.052 47.088,0.51 30.63,0.51Z" style="fill:rgb(153,223,224);fill-rule:nonzero;"/>
            <path d="M32.88,29.34C32.88,32.81 32.98,32.9 33.14,35.2C33.33,37.74 33.34,37.74 33.34,39.5C33.34,41.24 31.08,43.2 33.08,45.08L42.73,45.08L42.73,23.88L32.88,29.34Z" style="fill:rgb(122,122,153);fill-rule:nonzero;"/>
            <path d="M52.56,29.34C52.56,32.81 51.98,32.9 51.81,35.2C51.63,37.74 52.11,37.74 52.11,39.5C52.11,41.24 54.36,43.2 52.36,45.08L42.72,45.08L42.72,23.88L52.56,29.34Z" style="fill:rgb(122,122,153);fill-rule:nonzero;"/>
            <rect x="14.17" y="41.5" width="7.48" height="8.2" style="fill:rgb(233,199,172);fill-rule:nonzero;"/>
            <path d="M27.45,29.15L27.28,29.14C26.98,20.16 21.5,18.18 17.96,18.16L17.91,18.16C14.35,18.18 8.84,20.16 8.54,29.14L8.36,29.14C7.29,29.29 6.56,30.67 6.71,32.21C6.91,33.76 7.91,34.89 8.99,34.75L9.06,34.73C9.66,37.6 10.66,39.48 11.2,40.17C11.92,41.09 15.99,43.05 17.94,43.07L17.99,43.07C19.93,43.05 23.98,41.07 24.69,40.16C25.23,39.48 26.23,37.59 26.83,34.73L26.9,34.73C27.97,34.89 28.96,33.75 29.12,32.21C29.29,30.7 28.55,29.31 27.48,29.18L27.45,29.15Z" style="fill:rgb(241,214,187);fill-rule:nonzero;"/>
            <path d="M17.9,16.9L17.9,16.89L17.82,16.89C16.86,17.03 8.25,18.32 8.25,24.94L8.25,29.76C8.25,29.76 8.95,29.63 9.46,30.06C10.01,30.51 9.78,32.99 9.78,32.99L10.43,32.99C10.43,32.99 10.03,30.47 11.19,29.66L11.19,28.03C11.19,28.03 10.74,27.97 10.74,26.06C10.74,24.14 13.02,22.79 17.87,22.78C22.72,22.78 24.99,24.15 24.99,26.06C24.99,27.96 24.5,28.03 24.5,28.03L24.5,29.66C25.65,30.46 25.26,32.99 25.26,32.99L25.9,32.99C25.9,32.99 25.67,30.51 26.2,30.06C26.71,29.64 27.42,29.76 27.42,29.76L27.42,24.94C27.42,18.32 18.82,17.03 17.85,16.9L17.9,16.9ZM23.17,39.4C21.34,39.4 20.03,37.83 17.93,37.83C15.83,37.83 14.51,39.39 12.68,39.39C10.68,39.39 9.4,35.75 9.02,34.48C9.54,38.15 10.72,40.55 11.32,41.35C12.04,42.3 16.04,44.34 17.92,44.34C19.81,44.34 23.82,42.31 24.52,41.34C25.12,40.55 26.32,38.14 26.83,34.47C26.45,35.74 25.19,39.39 23.17,39.39L23.17,39.4Z" style="fill:rgb(122,122,153);fill-rule:nonzero;"/>
            <path d="M14.48,33.15C15.015,33.15 15.455,32.71 15.455,32.175C15.455,31.64 15.015,31.2 14.48,31.2C13.945,31.2 13.505,31.64 13.505,32.175C13.505,32.71 13.945,33.15 14.48,33.15ZM21.6,33.15C22.135,33.15 22.575,32.71 22.575,32.175C22.575,31.64 22.135,31.2 21.6,31.2C21.065,31.2 20.625,31.64 20.625,32.175C20.625,32.71 21.065,33.15 21.6,33.15Z" style="fill:rgb(28,20,102);fill-rule:nonzero;"/>
            <path d="M18.98,33.91C18.98,33.394 18.556,32.97 18.04,32.97C17.524,32.97 17.1,33.394 17.1,33.91L17.1,36.05C17.1,36.566 17.524,36.99 18.04,36.99C18.556,36.99 18.98,36.566 18.98,36.05L18.98,33.91Z" style="fill:rgb(249,191,166);fill-rule:nonzero;"/>
            <path d="M17.9,42.23C19.07,42.23 20,41.73 20,41.13L15.8,41.13C15.8,41.73 16.75,42.23 17.9,42.23Z" style="fill:white;fill-rule:nonzero;"/>
            <path d="M53.81,25.63C53.81,19.494 48.761,14.445 42.625,14.445C36.489,14.445 31.44,19.494 31.44,25.63C31.44,31.766 36.489,36.815 42.625,36.815C48.761,36.815 53.81,31.766 53.81,25.63Z" style="fill:rgb(122,122,153);fill-rule:nonzero;"/>
            <path d="M46.37,49.58L42.57,52.33L38.88,49.58L38.88,41.38L46.37,41.38L46.37,49.58Z" style="fill:rgb(233,199,172);fill-rule:nonzero;"/>
            <path d="M52.17,29.62C52.104,29.61 52.037,29.606 51.97,29.61C51.67,20.61 46.17,18.64 42.62,18.63L42.59,18.63C39.06,18.63 33.55,20.61 33.25,29.61L33.08,29.61C32.01,29.76 31.28,31.14 31.43,32.68C31.59,34.23 32.59,35.36 33.66,35.22L33.88,35.17C34.58,37.59 35.68,38.95 36.21,39.61C36.94,40.54 40.65,43.52 42.59,43.55L42.62,43.55C44.55,43.52 48.27,40.54 49,39.61C49.52,38.94 50.63,37.58 51.34,35.15C51.41,35.18 51.5,35.2 51.59,35.21C52.66,35.36 53.65,34.22 53.81,32.68C53.97,31.13 53.23,29.76 52.16,29.61L52.17,29.62Z" style="fill:rgb(241,214,187);fill-rule:nonzero;"/>
            <path d="M42.63,40.14C44.05,40.14 45.2,39.27 45.2,38.2L40.07,38.2C40.07,39.28 41.22,40.14 42.63,40.14Z" style="fill:white;fill-rule:nonzero;"/>
            <path d="M52.17,22.17C50.97,19.18 46.37,16.97 46.37,16.97L46.37,17.47C45.47,16.47 43.98,15.84 42.1,15.84C35.46,15.84 33.44,21.66 33.44,24.34C31.04,27.69 33.65,30.68 35.51,31.74L35.51,30.1C35.51,27.93 37.57,25.93 40.66,26.26C43.43,26.56 45.17,25 46.66,22.34C46.666,22.316 46.672,22.293 46.68,22.27C47.32,24.15 48.98,28.07 52.16,29.63C52.92,23.97 53.36,25.16 52.16,22.18L52.17,22.17Z" style="fill:rgb(122,122,153);fill-rule:nonzero;"/>
            <path d="M38.93,32.19C39.465,32.19 39.905,31.75 39.905,31.215C39.905,30.68 39.465,30.24 38.93,30.24C38.395,30.24 37.955,30.68 37.955,31.215C37.955,31.75 38.395,32.19 38.93,32.19ZM46.04,32.19C46.575,32.19 47.015,31.75 47.015,31.215C47.015,30.68 46.575,30.24 46.04,30.24C45.505,30.24 45.065,30.68 45.065,31.215C45.065,31.75 45.505,32.19 46.04,32.19Z" style="fill:rgb(28,20,102);fill-rule:nonzero;"/>
            <path d="M43.51,32.65C43.513,32.618 43.515,32.586 43.515,32.553C43.515,32.038 43.091,31.613 42.575,31.613C42.059,31.613 41.635,32.038 41.635,32.553C41.635,32.586 41.637,32.618 41.64,32.65L41.64,34.79C41.689,35.267 42.096,35.633 42.575,35.633C43.054,35.633 43.461,35.267 43.51,34.79L43.51,32.65Z" style="fill:rgb(249,191,166);fill-rule:nonzero;"/>
            <path d="M33.93,60.33C41.93,59.45 48.98,55.43 53.83,49.54L53.73,49.25C52.59,47.45 48.16,45.7 46.73,45.18C46.655,47.412 44.804,49.211 42.57,49.22C40.34,49.205 38.495,47.409 38.42,45.18C36.98,45.71 32.55,47.46 31.41,49.25C30.27,52.67 29.96,60.33 29.96,60.33L33.93,60.33Z" style="fill:rgb(76,213,187);fill-rule:nonzero;"/>
            <path d="M37.05,45.7C37.445,48.438 39.813,50.494 42.58,50.5C45.343,50.489 47.705,48.435 48.1,45.7L46.37,45.06C46.29,47.31 44.81,48.72 42.57,48.72C40.34,48.72 38.97,47.22 38.88,44.97C38.56,45.09 37.61,45.47 37.05,45.71L37.05,45.7Z" style="fill:white;fill-rule:nonzero;"/>
            <path d="M35.25,50.53C34.263,50.53 33.45,51.343 33.45,52.33C33.45,53.317 34.263,54.13 35.25,54.13C36.237,54.13 37.05,53.317 37.05,52.33C37.05,51.343 36.237,50.53 35.25,50.53ZM39.76,55.04C38.773,55.04 37.96,55.853 37.96,56.84C37.96,57.827 38.773,58.64 39.76,58.64C40.747,58.64 41.56,57.827 41.56,56.84C41.56,55.853 40.747,55.04 39.76,55.04ZM45.39,50.54C44.403,50.54 43.59,51.353 43.59,52.34C43.59,53.327 44.403,54.14 45.39,54.14C46.377,54.14 47.19,53.327 47.19,52.34C47.19,51.353 46.377,50.54 45.39,50.54Z" style="fill:rgb(38,157,134);fill-rule:nonzero;"/>
            <path d="M29.7,48.6C27.96,46.6 25.36,46.17 22.98,45.56L21.7,45.56C21.7,47.17 20.02,48.48 17.96,48.48C15.9,48.48 14.22,47.18 14.22,45.56L12.94,45.56C10.68,46.14 8.22,46.56 6.49,48.32C11.406,54.988 18.873,59.329 27.1,60.3L32.64,60.3C32.64,60.3 30.77,49.86 29.69,48.61L29.7,48.6Z" style="fill:rgb(75,180,233);fill-rule:nonzero;"/>
            <path d="M20.73,54.6L18.03,51.9L15.23,54.69L12.44,51.89L11.08,53.25C12.1,54.13 13.18,54.95 14.31,55.68L15.23,54.76L18.03,57.56L20.73,54.85L23.43,57.55L26.26,54.73L23.43,51.9L20.73,54.6Z" style="fill:rgb(59,155,203);fill-rule:nonzero;"/>
            <path d="M17.93,49.42C20.68,49.42 22.92,47.69 22.92,45.56L21.64,45.56C21.64,47.16 19.98,48.48 17.94,48.48C15.88,48.48 14.22,47.18 14.22,45.56L12.94,45.56C12.94,47.69 15.18,49.42 17.94,49.42L17.93,49.42Z" style="fill:white;fill-rule:nonzero;"/>
        </g>
    </g>
</svg>
