<?xml version="1.0" encoding="UTF-8" standalone="no"?>
<!DOCTYPE svg PUBLIC "-//W3C//DTD SVG 1.1//EN" "http://www.w3.org/Graphics/SVG/1.1/DTD/svg11.dtd">
<svg width="100%" height="100%" viewBox="0 0 61 61" version="1.1" xmlns="http://www.w3.org/2000/svg" xmlns:xlink="http://www.w3.org/1999/xlink" xml:space="preserve" xmlns:serif="http://www.serif.com/" style="fill-rule:evenodd;clip-rule:evenodd;stroke-linejoin:round;stroke-miterlimit:2;">
    <g>
        <clipPath id="_clip1">
            <rect x="0.14" y="0.3" width="60" height="60"/>
        </clipPath>
        <g clip-path="url(#_clip1)">
            <path d="M30.13,0.3C13.672,0.3 0.13,13.842 0.13,30.3C0.13,46.758 13.672,60.3 30.13,60.3C46.588,60.3 60.13,46.758 60.13,30.3C60.13,13.842 46.588,0.3 30.13,0.3Z" style="fill:rgb(153,223,224);fill-rule:nonzero;"/>
            <rect x="14.98" y="40.32" width="7.49" height="8.2" style="fill:rgb(233,199,172);fill-rule:nonzero;"/>
            <path d="M27.96,27.82L27.79,27.82C27.49,19.05 22.26,16.95 18.72,16.84L18.42,16.84C14.88,16.96 9.64,19.05 9.35,27.82L9.18,27.82C8.11,27.97 7.38,29.35 7.53,30.89C7.69,32.44 8.69,33.57 9.75,33.43L9.82,33.41C10.42,36.28 11.42,38.16 11.95,38.85C12.65,39.73 16.39,41.57 18.42,41.75L18.42,41.77L18.57,41.76L18.72,41.76L18.72,41.75C20.75,41.57 24.49,39.73 25.19,38.85C25.72,38.16 26.72,36.28 27.32,33.41L27.39,33.43C28.46,33.57 29.45,32.43 29.61,30.89C29.77,29.35 29.03,27.97 27.96,27.83L27.96,27.82Z" style="fill:rgb(241,214,187);fill-rule:nonzero;"/>
            <path d="M27.3,19.75C25.58,13.77 16.67,9.26 10.38,18.75C10.32,19.01 10.31,19.25 10.33,19.48C9.52,20.591 9.092,21.935 9.11,23.31L9.11,28.14C9.11,28.14 9.81,28.01 10.31,28.44C10.88,28.89 10.65,31.37 10.65,31.37L11.31,31.37C11.29,31.37 10.89,28.84 12.05,28.03L12.05,26.4C12.05,26.4 11.6,26.35 11.6,24.43C11.6,22.52 13.88,21.16 18.73,21.15C23.58,21.16 25.85,22.52 25.85,24.43C25.85,26.35 25.41,26.4 25.41,26.4L25.41,28.03C26.56,28.83 26.17,31.37 26.17,31.37L26.81,31.37C26.81,31.37 26.58,28.89 27.13,28.43C27.63,28.01 28.33,28.13 28.33,28.13L28.33,23.3C28.33,21.89 27.93,20.7 27.3,19.75ZM24.1,38.08C22.22,38.08 20.88,36.55 18.72,36.55C16.57,36.55 15.22,38.08 13.34,38.08C11.29,38.08 10.21,34.66 9.82,33.41C10.35,37 11.34,39.21 11.96,39.99C12.68,40.92 16.79,42.91 18.72,42.91C20.64,42.91 24.75,40.92 25.48,39.99C26.1,39.21 26.85,37.01 27.38,33.43C26.98,34.67 26.16,38.08 24.1,38.08Z" style="fill:rgb(67,67,117);fill-rule:nonzero;"/>
            <path d="M15.2,30.62C15.732,30.62 16.17,30.182 16.17,29.65C16.17,29.118 15.732,28.68 15.2,28.68C14.668,28.68 14.23,29.118 14.23,29.65C14.23,30.182 14.668,30.62 15.2,30.62ZM22.32,30.62C22.852,30.62 23.29,30.182 23.29,29.65C23.29,29.118 22.852,28.68 22.32,28.68C21.788,28.68 21.35,29.118 21.35,29.65C21.35,30.182 21.788,30.62 22.32,30.62Z" style="fill:rgb(28,20,102);fill-rule:nonzero;"/>
            <path d="M19.7,31.38C19.703,31.348 19.705,31.316 19.705,31.283C19.705,30.768 19.281,30.343 18.765,30.343C18.249,30.343 17.825,30.768 17.825,31.283C17.825,31.316 17.827,31.348 17.83,31.38L17.83,33.52C17.879,33.997 18.286,34.363 18.765,34.363C19.244,34.363 19.651,33.997 19.7,33.52L19.7,31.38Z" style="fill:rgb(249,191,166);fill-rule:nonzero;"/>
            <path d="M18.83,39.7C19.98,39.7 20.93,39.22 20.93,38.61L16.73,38.61C16.73,39.21 17.67,39.71 18.83,39.71L18.83,39.7Z" style="fill:white;fill-rule:nonzero;"/>
            <path d="M33.45,29.12C33.45,32.59 33.55,32.68 33.72,34.98C33.9,37.52 33.92,37.52 33.92,39.28C33.92,41.02 31.65,42.98 33.65,44.86L43.3,44.86L43.3,23.66L33.45,29.12Z" style="fill:rgb(67,67,117);fill-rule:nonzero;"/>
            <path d="M53.14,29.12C53.14,32.59 52.56,32.68 52.39,34.98C52.21,37.52 52.69,37.52 52.69,39.28C52.69,41.02 54.94,42.98 52.94,44.86L43.3,44.86L43.3,23.66L53.14,29.12Z" style="fill:rgb(67,67,117);fill-rule:nonzero;"/>
            <path d="M51.16,33.33C53.271,31.231 54.46,28.373 54.46,25.395C54.46,19.257 49.408,14.205 43.27,14.205C40.295,14.205 37.439,15.392 35.34,17.5C33.253,19.596 32.08,22.437 32.08,25.395C32.08,31.534 37.131,36.585 43.27,36.585C46.225,36.585 49.064,35.414 51.16,33.33Z" style="fill:rgb(67,67,117);fill-rule:nonzero;"/>
            <path d="M47,49.37L42.88,54.09L39.51,49.37L39.51,41.17L47.01,41.17L47.01,49.37L47,49.37Z" style="fill:rgb(233,199,172);fill-rule:nonzero;"/>
            <path d="M52.6,29.6C52.37,20.43 46.81,18.43 43.25,18.42L43.22,18.42C39.69,18.42 34.18,20.4 33.88,29.39L33.71,29.4C32.64,29.55 31.91,30.92 32.06,32.47C32.22,34.01 33.22,35.15 34.29,35C34.36,35 34.43,34.97 34.51,34.95C35.21,37.37 36.31,38.74 36.84,39.4C37.57,40.33 41.28,43.3 43.22,43.34L43.25,43.34C45.18,43.31 48.9,40.32 49.63,39.39C50.13,38.74 51.23,37.39 51.93,35.02C53.087,34.646 53.958,33.679 54.21,32.49C54.48,31.13 53.78,29.94 52.59,29.59L52.6,29.6Z" style="fill:rgb(241,214,187);fill-rule:nonzero;"/>
            <path d="M43.25,39.94C44.67,39.94 45.82,39.07 45.82,38L40.69,38C40.69,39.07 41.84,39.94 43.26,39.94L43.25,39.94Z" style="fill:white;fill-rule:nonzero;"/>
            <path d="M39.64,31.94C40.175,31.94 40.615,31.5 40.615,30.965C40.615,30.43 40.175,29.99 39.64,29.99C39.165,30.059 38.809,30.47 38.809,30.95C38.809,31.43 39.165,31.841 39.64,31.91L39.64,31.94ZM46.76,31.94C47.295,31.94 47.735,31.5 47.735,30.965C47.735,30.43 47.295,29.99 46.76,29.99C46.285,30.059 45.929,30.47 45.929,30.95C45.929,31.43 46.285,31.841 46.76,31.91L46.76,31.94Z" style="fill:rgb(1,0,2);fill-rule:nonzero;"/>
            <path d="M44.19,32.7C44.19,32.184 43.766,31.76 43.25,31.76C42.734,31.76 42.31,32.184 42.31,32.7L42.31,34.84C42.31,35.361 42.739,35.79 43.26,35.79C43.781,35.79 44.21,35.361 44.21,34.84L44.21,32.7L44.19,32.7Z" style="fill:rgb(249,191,166);fill-rule:nonzero;"/>
            <path d="M52.8,21.96C51.59,18.97 47,16.76 47,16.76L47,17.26C46.1,16.26 44.6,15.63 42.72,15.63C36.08,15.63 34.06,21.45 34.06,24.13C31.66,27.48 34.28,30.47 36.14,31.53L36.14,29.88C36.14,27.71 38.2,25.71 41.29,26.04C44.06,26.34 45.8,24.78 47.28,22.12C47.28,22.09 47.3,22.07 47.31,22.05C47.95,23.93 49.61,27.85 52.79,29.41C53.52,23.75 53.99,24.94 52.79,21.96L52.8,21.96Z" style="fill:rgb(67,67,117);fill-rule:nonzero;"/>
            <path d="M46.9,44.87L43.2,46.41L39.5,44.87C39.5,44.87 33.4,46.93 32.04,49.06C30.91,52.44 30.59,60.29 30.59,60.29L34.27,59.97C42.075,58.883 49.145,54.764 53.94,48.51C52.04,46.58 46.9,44.84 46.9,44.84L46.9,44.87Z" style="fill:rgb(76,213,187);fill-rule:nonzero;"/>
            <path d="M38.47,45.82L40.36,50.02L43.2,46.39L39.5,44.87L38.47,45.82ZM46.99,44.79L43.19,46.39L46.03,50.01L47.92,45.81L46.97,44.81L46.99,44.79Z" style="fill:white;fill-rule:nonzero;"/>
            <path d="M5.9,47.97C12.548,57.105 23.822,61.731 34.97,59.9C34.14,56.21 32.37,48.67 31.61,47.88C30.55,46.78 23.44,45.74 23.44,45.74L18.79,46.13L14.14,45.73C14.14,45.73 7.03,46.78 5.97,47.88L5.91,47.97L5.9,47.97Z" style="fill:rgb(75,180,233);fill-rule:nonzero;"/>
            <path d="M23.52,45.55L18.79,46.13L14.05,45.55L17.44,55.85L20.44,55.85L23.52,45.55Z" style="fill:rgb(214,227,234);fill-rule:nonzero;"/>
            <path d="M22.67,45.34L20.03,55.3L19.33,48.17L20.07,47.44L18.79,46.16L17.51,47.44L18.28,48.17L17.58,55.3L14.94,45.34C13.78,45.54 12.67,45.81 11.64,46.19L15.41,51.75L13.38,52.15L16.88,57.16C17.85,57.64 18.84,58.07 19.87,58.45L24.27,52.15L22.24,51.75L26.02,46.15C24.948,45.77 23.843,45.489 22.72,45.31L22.71,45.31L22.67,45.34Z" style="fill:rgb(59,155,203);fill-rule:nonzero;"/>
            <path d="M14.05,45.55L15.95,49.75L18.79,46.13L15,44.6L14.06,45.55L14.05,45.55ZM22.59,44.6L18.79,46.13L21.64,49.75L23.52,45.55L22.59,44.6Z" style="fill:white;fill-rule:nonzero;"/>
        </g>
    </g>
</svg>
