<?xml version="1.0" encoding="UTF-8" standalone="no"?>
<!DOCTYPE svg PUBLIC "-//W3C//DTD SVG 1.1//EN" "http://www.w3.org/Graphics/SVG/1.1/DTD/svg11.dtd">
<svg width="100%" height="100%" viewBox="0 0 61 61" version="1.1" xmlns="http://www.w3.org/2000/svg" xmlns:xlink="http://www.w3.org/1999/xlink" xml:space="preserve" xmlns:serif="http://www.serif.com/" style="fill-rule:evenodd;clip-rule:evenodd;stroke-linejoin:round;stroke-miterlimit:2;">
    <g>
        <clipPath id="_clip1">
            <rect x="0.14" y="0.51" width="60" height="60"/>
        </clipPath>
        <g clip-path="url(#_clip1)">
            <path d="M30.13,0.51C13.672,0.51 0.13,14.052 0.13,30.51C0.13,46.968 13.672,60.51 30.13,60.51C46.588,60.51 60.13,46.968 60.13,30.51C60.13,14.052 46.588,0.51 30.13,0.51Z" style="fill:rgb(153,223,224);fill-rule:nonzero;"/>
            <rect x="14.4" y="41.87" width="7.5" height="8.2" style="fill:rgb(233,199,172);fill-rule:nonzero;"/>
            <path d="M29.94,48.66C28.21,46.66 25.61,46.22 23.23,45.61L21.95,45.61C21.95,47.21 20.27,48.53 18.21,48.53L18.21,48.7C16.22,48.56 14.11,47.15 14.11,45.6L13.19,45.6C10.82,46.22 8.51,46.65 6.79,48.66C6.7,48.74 6.63,48.87 6.55,49.03C11.552,55.413 18.936,59.5 27,60.35L32.9,60.35C32.9,60.35 31,49.9 29.92,48.65L29.94,48.66Z" style="fill:rgb(75,180,233);fill-rule:nonzero;"/>
            <path d="M27.4,29.95L27.22,29.95C26.92,21.18 21.69,19.08 18.15,18.97L17.85,18.97C14.31,19.09 9.07,21.18 8.78,29.95L8.6,29.95C7.52,30.11 6.8,31.48 6.95,33.02C7.11,34.57 8.11,35.7 9.17,35.56L9.24,35.54C9.84,38.41 10.84,40.3 11.37,40.98C12.07,41.87 15.81,43.7 17.84,43.88L17.84,43.9L17.99,43.89L18.14,43.89L18.14,43.88C20.16,43.7 23.91,41.87 24.6,40.98C25.14,40.3 26.14,38.41 26.74,35.54L26.8,35.56C27.87,35.7 28.87,34.57 29.03,33.02C29.19,31.48 28.45,30.11 27.38,29.96L27.4,29.95Z" style="fill:rgb(241,214,187);fill-rule:nonzero;"/>
            <path d="M27.12,22.64C25.64,16.56 16.7,11.78 10.32,21.03C8.32,22.68 7.75,27.79 8.19,30.09C9.59,29.59 9.99,30.89 9.69,34.99C11,33.79 11.41,32.39 11.21,28.19C10.788,26.809 10.859,25.324 11.41,23.99C11.57,23.64 12.95,21.3 18.06,22.5C20.78,21.9 23.43,21.46 24.66,23.96C25.22,25.291 25.298,26.777 24.88,28.16C24.68,32.36 25.08,33.76 26.44,34.91C26.11,30.85 26.51,29.51 28,29.98C28.344,27.449 28.012,24.872 27.04,22.51L27.12,22.64Z" style="fill:rgb(178,178,193);fill-rule:nonzero;"/>
            <path d="M23.16,39.63C21.33,39.63 20.02,38.13 17.92,38.13C15.82,38.13 14.51,39.63 12.68,39.63C10.68,39.63 9.41,36.16 9.03,34.95C9.54,38.45 10.73,40.73 11.33,41.49C12.03,42.39 16.04,44.33 17.93,44.33C19.8,44.33 23.8,42.4 24.52,41.49C25.12,40.73 26.3,38.44 26.82,34.95C26.43,36.15 25.17,39.63 23.16,39.63Z" style="fill:rgb(178,178,193);fill-rule:nonzero;"/>
            <path d="M18.2,49.47C20.98,49.47 23.22,47.74 23.22,45.61L21.9,45.61C21.9,47.21 20.27,48.52 18.2,48.53C16.14,48.53 14.4,47.22 14.4,45.61L13.2,45.61C13.2,47.75 15.44,49.48 18.2,49.48L18.2,49.47Z" style="fill:white;fill-rule:nonzero;"/>
            <path d="M14.7,33.2C15.235,33.2 15.675,32.76 15.675,32.225C15.675,31.69 15.235,31.25 14.7,31.25C14.165,31.25 13.725,31.69 13.725,32.225C13.725,32.76 14.165,33.2 14.7,33.2ZM21.82,33.2C22.355,33.2 22.795,32.76 22.795,32.225C22.795,31.69 22.355,31.25 21.82,31.25C21.285,31.25 20.845,31.69 20.845,32.225C20.845,32.76 21.285,33.2 21.82,33.2Z" style="fill:rgb(28,20,102);fill-rule:nonzero;"/>
            <path d="M19.2,33.96C19.2,33.444 18.776,33.02 18.26,33.02C17.744,33.02 17.32,33.444 17.32,33.96L17.32,36.1C17.32,36.616 17.744,37.04 18.26,37.04C18.776,37.04 19.2,36.616 19.2,36.1L19.2,33.96Z" style="fill:rgb(249,191,166);fill-rule:nonzero;"/>
            <path d="M18.15,42.28C19.31,42.28 20.25,41.78 20.25,41.18L16.05,41.18C16.05,41.78 16.99,42.28 18.15,42.28Z" style="fill:white;fill-rule:nonzero;"/>
            <path d="M53.21,35.55C53.21,41.61 48.31,38.47 42.25,38.47C36.19,38.47 31.28,41.61 31.28,35.55L31.28,25.65C31.277,25.54 31.275,25.429 31.275,25.319C31.275,19.301 36.227,14.349 42.245,14.349C48.263,14.349 53.215,19.301 53.215,25.319C53.215,25.429 53.213,25.54 53.21,25.65L53.21,35.55Z" style="fill:rgb(178,178,193);fill-rule:nonzero;"/>
            <path d="M53.48,25.73C53.48,19.594 48.431,14.545 42.295,14.545C36.159,14.545 31.11,19.594 31.11,25.73C31.11,31.874 36.166,36.93 42.31,36.93C48.454,36.93 53.51,31.874 53.51,25.73L53.48,25.73Z" style="fill:rgb(178,178,193);fill-rule:nonzero;"/>
            <path d="M46.04,49.69L42.24,56.4L38.55,49.69L38.55,41.48L46.05,41.48L46.05,49.68L46.04,49.69Z" style="fill:rgb(233,199,172);fill-rule:nonzero;"/>
            <path d="M51.84,29.72L51.64,29.72C51.34,20.72 45.84,18.75 42.29,18.74L42.26,18.74C38.73,18.74 33.22,20.72 32.93,29.71L32.75,29.72C31.68,29.87 30.95,31.25 31.1,32.79C31.26,34.34 32.26,35.47 33.33,35.32C33.4,35.32 33.47,35.29 33.55,35.27C34.25,37.69 35.36,39.06 35.88,39.72C36.61,40.65 40.32,43.63 42.26,43.66L42.29,43.66C44.22,43.63 47.93,40.64 48.66,39.71C49.18,39.11 50.29,37.71 51,35.31L51.25,35.42C52.32,35.56 53.32,34.42 53.47,32.88C53.63,31.33 52.89,29.96 51.82,29.81L51.84,29.72Z" style="fill:rgb(241,214,187);fill-rule:nonzero;"/>
            <path d="M42.3,40.25C43.71,40.25 44.86,39.38 44.86,38.31L39.73,38.31C39.73,39.38 40.88,40.25 42.3,40.25Z" style="fill:white;fill-rule:nonzero;"/>
            <path d="M51.84,22.27C50.64,19.29 46.04,17.07 46.04,17.07L46.04,17.58C45.14,16.58 43.65,15.95 41.77,15.95C35.13,15.95 33.11,21.77 33.11,24.45C30.71,27.8 33.32,30.79 35.18,31.85L35.18,30.19C35.18,28.03 37.24,26.02 40.33,26.36C43.11,26.66 44.85,25.09 46.33,22.43C46.336,22.41 46.343,22.39 46.35,22.37C46.99,24.24 48.66,28.17 51.85,29.73C52.6,24.07 53.05,25.26 51.85,22.28L51.84,22.27Z" style="fill:rgb(178,178,193);fill-rule:nonzero;"/>
            <path d="M38.7,32.02C39.235,32.02 39.675,31.58 39.675,31.045C39.675,30.51 39.235,30.07 38.7,30.07C38.165,30.07 37.725,30.51 37.725,31.045C37.725,31.58 38.165,32.02 38.7,32.02ZM45.8,32.02C46.335,32.02 46.775,31.58 46.775,31.045C46.775,30.51 46.335,30.07 45.8,30.07C45.265,30.07 44.825,30.51 44.825,31.045C44.825,31.58 45.265,32.02 45.8,32.02Z" style="fill:rgb(138,95,60);fill-rule:nonzero;"/>
            <path d="M37.72,33.68C39.407,33.68 40.795,32.292 40.795,30.605C40.795,28.918 39.407,27.53 37.72,27.53C36.033,27.53 34.645,28.918 34.645,30.605C34.645,32.292 36.033,33.68 37.72,33.68ZM46.89,33.68C48.577,33.68 49.965,32.292 49.965,30.605C49.965,28.918 48.577,27.53 46.89,27.53C45.203,27.53 43.815,28.918 43.815,30.605C43.815,32.292 45.203,33.68 46.89,33.68Z" style="fill:rgb(201,208,217);fill-rule:nonzero;"/>
            <path d="M46.9,27.04C45.13,27.038 43.614,28.357 43.37,30.11L41.24,30.11C40.997,28.358 39.483,27.04 37.714,27.04C35.761,27.04 34.154,28.647 34.154,30.6C34.154,32.553 35.761,34.16 37.714,34.16C39.483,34.16 40.997,32.842 41.24,31.09L43.37,31.09C43.613,32.842 45.127,34.16 46.896,34.16C48.849,34.16 50.456,32.553 50.456,30.6C50.456,28.647 48.849,27.04 46.896,27.04C46.894,27.04 46.892,27.04 46.89,27.04L46.9,27.04ZM37.72,33.19C37.668,33.193 37.616,33.195 37.564,33.195C36.143,33.195 34.974,32.026 34.974,30.605C34.974,29.184 36.143,28.015 37.564,28.015C37.62,28.015 37.675,28.016 37.73,28.02C39.088,28.104 40.159,29.245 40.159,30.605C40.159,31.965 39.088,33.106 37.73,33.19L37.72,33.19ZM46.89,33.19C46.836,33.193 46.783,33.195 46.729,33.195C45.308,33.195 44.139,32.026 44.139,30.605C44.139,29.184 45.308,28.015 46.729,28.015C46.783,28.015 46.836,28.017 46.89,28.02C48.248,28.104 49.319,29.245 49.319,30.605C49.319,31.965 48.248,33.106 46.89,33.19Z" style="fill:rgb(28,20,102);fill-rule:nonzero;"/>
            <path d="M38.73,31.07L36.7,31.07L36.7,32.05L38.73,32.05L38.73,31.07ZM47.9,31.07L45.88,31.07L45.88,32.05L47.9,32.05L47.9,31.07Z" style="fill:rgb(28,20,102);fill-rule:nonzero;"/>
            <path d="M43.24,32.78C43.243,32.748 43.245,32.716 43.245,32.683C43.245,32.168 42.821,31.743 42.305,31.743C41.789,31.743 41.365,32.168 41.365,32.683C41.365,32.716 41.367,32.748 41.37,32.78L41.37,34.92C41.367,34.952 41.365,34.984 41.365,35.017C41.365,35.532 41.789,35.957 42.305,35.957C42.821,35.957 43.245,35.532 43.245,35.017C43.245,34.984 43.243,34.952 43.24,34.92L43.24,32.78Z" style="fill:rgb(249,191,166);fill-rule:nonzero;"/>
            <path d="M33.52,60.32C41.323,59.438 48.475,55.52 53.42,49.42L53.41,49.38C52.04,47.24 45.94,45.18 45.94,45.18L42.24,51.72L38.54,45.19C38.54,45.19 32.44,47.25 31.08,49.38C29.95,52.75 29.64,60.32 29.64,60.32L33.52,60.32Z" style="fill:rgb(76,213,187);fill-rule:nonzero;"/>
            <path d="M47.74,54.8C49.881,53.247 51.808,51.418 53.47,49.36C52.21,47.2 47.74,45.81 47.74,45.81L47.74,54.8ZM31.03,49.36C29.77,51.51 29.56,60.42 29.56,60.42L32.49,60.42C33.94,60.3 35.37,60.09 36.76,59.78L36.76,45.8C36.76,45.8 32.29,47.19 31.03,49.35L31.03,49.36Z" style="fill:rgb(38,157,134);fill-rule:nonzero;"/>
            <path d="M35.16,46.27L38.06,52.75L42.25,51.72L38.55,45.18L35.15,46.27L35.16,46.27ZM45.94,45.18L42.24,51.72L46.44,52.75L49.34,46.27L45.94,45.17L45.94,45.18Z" style="fill:white;fill-rule:nonzero;"/>
            <path d="M30.13,60.51C31.11,60.51 32.07,60.47 33.01,60.37C32.54,57.43 31.17,49.5 30.24,48.66C29.08,47.62 28.59,46.99 26.72,46.46C24.84,45.93 23.25,45.62 23.25,45.62L23.25,59.72C25.508,60.252 27.82,60.521 30.14,60.52L30.13,60.51ZM6.37,48.66L6.3,48.73C8.234,51.257 10.556,53.461 13.18,55.26L13.19,45.61C13.19,45.61 11.76,45.93 9.89,46.46C7.99,47 7.52,47.62 6.37,48.66Z" style="fill:rgb(59,155,203);fill-rule:nonzero;"/>
        </g>
    </g>
</svg>
