<?xml version="1.0" encoding="UTF-8" standalone="no"?>
<!DOCTYPE svg PUBLIC "-//W3C//DTD SVG 1.1//EN" "http://www.w3.org/Graphics/SVG/1.1/DTD/svg11.dtd">
<svg width="100%" height="100%" viewBox="0 0 61 61" version="1.1" xmlns="http://www.w3.org/2000/svg" xmlns:xlink="http://www.w3.org/1999/xlink" xml:space="preserve" xmlns:serif="http://www.serif.com/" style="fill-rule:evenodd;clip-rule:evenodd;stroke-linejoin:round;stroke-miterlimit:2;">
    <g>
        <clipPath id="_clip1">
            <rect x="0.64" y="0.38" width="60" height="60"/>
        </clipPath>
        <g clip-path="url(#_clip1)">
            <path d="M30.63,0.38C14.172,0.38 0.63,13.922 0.63,30.38C0.63,46.838 14.172,60.38 30.63,60.38C47.088,60.38 60.63,46.838 60.63,30.38C60.63,13.922 47.088,0.38 30.63,0.38Z" style="fill:rgb(153,223,224);fill-rule:nonzero;"/>
            <path d="M34.15,60.17L34.93,60.07C34.45,57.89 32.59,49.02 31.69,48.08C30.64,46.98 23.52,45.94 23.52,45.94L18.87,46.34L14.22,45.94C14.22,45.94 7.89,46.87 6.29,47.9C11.19,54.721 18.74,59.177 27.08,60.17L34.15,60.17Z" style="fill:rgb(75,180,233);fill-rule:nonzero;"/>
            <path d="M33.62,30.6C33.62,34.89 31.27,35 31.44,37.83C31.62,40.97 34.08,40.98 34.08,43.13C34.08,45.29 31.82,47.71 33.82,50.03L43.47,50.03L43.47,23.87L33.62,30.62L33.62,30.6Z" style="fill:rgb(28,20,102);fill-rule:nonzero;"/>
            <path d="M53.3,30.6C53.3,34.89 55.66,35 55.49,37.83C55.29,40.97 52.85,40.98 52.85,43.13C52.85,45.29 55.1,47.71 53.11,50.03L43.46,50.03L43.46,23.87L53.31,30.62L53.3,30.6Z" style="fill:rgb(28,20,102);fill-rule:nonzero;"/>
            <rect x="15.22" y="39.9" width="7.49" height="8.2" style="fill:rgb(233,199,172);fill-rule:nonzero;"/>
            <path d="M28.2,28.54L28.03,28.53C27.73,19.76 22.51,17.66 18.97,17.56L18.66,17.56C15.12,17.66 9.89,19.76 9.6,28.53L9.42,28.53C8.35,28.69 7.62,30.06 7.78,31.61C7.94,33.15 8.93,34.29 10,34.14L10.07,34.13C10.67,36.99 11.67,38.88 12.2,39.56C12.9,40.45 16.64,42.29 18.66,42.46L18.66,42.48L18.97,42.48L18.97,42.46C20.99,42.29 24.74,40.45 25.43,39.56C25.97,38.88 26.97,36.99 27.56,34.13L27.63,34.13C28.7,34.29 29.7,33.15 29.86,31.61C30.02,30.06 29.28,28.69 28.21,28.54L28.2,28.54Z" style="fill:rgb(241,214,187);fill-rule:nonzero;"/>
            <path d="M18.97,38.83C20.66,38.83 22.03,38.27 22.03,37.57L15.9,37.57C15.9,38.27 17.28,38.83 18.97,38.83Z" style="fill:white;fill-rule:nonzero;"/>
            <path d="M27.77,21.46C27.77,21.42 27.79,21.39 27.79,21.39C26.29,15.25 17.19,10.43 10.79,20.07C10.74,20.26 10.73,20.44 10.73,20.61C9.824,21.756 9.34,23.18 9.36,24.64L9.36,29.46C9.36,29.46 10.06,29.33 10.56,29.76C11.11,30.21 10.88,32.69 10.88,32.69L11.53,32.69C11.53,32.69 11.13,30.12 12.29,29.31L12.29,27.7C12.29,27.7 11.85,27.65 11.85,25.73C11.85,23.81 14.12,22.46 18.97,22.45C23.82,22.45 26.1,23.82 26.1,25.73C26.1,27.64 25.65,27.7 25.65,27.7L25.65,29.34C26.81,30.15 26.41,32.67 26.41,32.67L27.06,32.67C27.06,32.67 26.83,30.19 27.37,29.74C27.87,29.32 28.57,29.44 28.57,29.44L28.57,24.62C28.57,23.38 28.27,22.32 27.77,21.44L27.77,21.46Z" style="fill:rgb(28,20,102);fill-rule:nonzero;"/>
            <path d="M23.6,45.75L18.87,46.33L14.13,45.75L17.67,56.95L20.61,56.95L23.61,45.75L23.6,45.75Z" style="fill:rgb(214,227,234);fill-rule:nonzero;"/>
            <path d="M15.4,31.95C15.935,31.95 16.375,31.51 16.375,30.975C16.375,30.44 15.935,30 15.4,30C14.865,30 14.425,30.44 14.425,30.975C14.425,31.51 14.865,31.95 15.4,31.95ZM22.5,31.95C23.035,31.95 23.475,31.51 23.475,30.975C23.475,30.44 23.035,30 22.5,30C21.965,30 21.525,30.44 21.525,30.975C21.525,31.51 21.965,31.95 22.5,31.95Z" style="fill:rgb(28,20,102);fill-rule:nonzero;"/>
            <path d="M19.9,32.71C19.9,32.192 19.473,31.765 18.955,31.765C18.437,31.765 18.01,32.192 18.01,32.71L18.01,34.86C18.01,35.381 18.439,35.81 18.96,35.81C19.481,35.81 19.91,35.381 19.91,34.86L19.91,32.7L19.9,32.71Z" style="fill:rgb(249,191,166);fill-rule:nonzero;"/>
            <path d="M22.75,45.54L20.11,55.5L19.41,48.37L20.15,47.64L18.88,46.37L17.6,47.64L18.33,48.37L17.63,55.5L15,45.54C13.83,45.74 12.73,46.01 11.7,46.39L15.46,51.98L13.44,52.38L16.58,56.88C17.71,57.48 18.88,58.01 20.08,58.46L24.32,52.38L22.29,51.98L26.06,46.39C24.988,46.01 23.883,45.729 22.76,45.55L22.75,45.54Z" style="fill:rgb(59,155,203);fill-rule:nonzero;"/>
            <path d="M14.13,45.75L16.03,49.95L18.87,46.33L15.07,44.81L14.13,45.81L14.13,45.75ZM22.67,44.81L18.87,46.33L21.72,49.95L23.62,45.75L22.67,44.81Z" style="fill:white;fill-rule:nonzero;"/>
            <path d="M47.16,41.36L39.67,41.36L39.67,45.06C39.67,45.06 33.57,47.13 32.2,49.26C31.07,52.63 30.76,60.2 30.76,60.2L33.86,60.2C41.902,59.333 49.259,55.243 54.24,48.87C52.6,47.03 47.88,45.34 47.16,45.09L47.16,41.36Z" style="fill:rgb(233,199,172);fill-rule:nonzero;"/>
            <path d="M49.37,46C48.74,45.67 47.9,45.42 46.88,45.03C46.01,48.86 43.87,54.43 43.32,55.83C42.77,54.43 40.62,48.86 39.75,45.03C38.74,45.43 37.9,45.67 37.25,45.99C34.24,52.35 34.12,60.16 34.12,60.16L34.19,60.16C40.668,59.392 46.721,56.525 51.42,52C50.951,49.931 50.267,47.917 49.38,45.99L49.37,46Z" style="fill:rgb(76,213,187);fill-rule:nonzero;"/>
            <path d="M51.33,33.53C53.428,31.432 54.609,28.583 54.609,25.615C54.609,19.474 49.556,14.421 43.415,14.421C40.447,14.421 37.598,15.602 35.5,17.7C33.523,19.779 32.42,22.541 32.42,25.41C32.42,31.549 37.471,36.6 43.61,36.6C46.479,36.6 49.241,35.497 51.32,33.52L51.33,33.53Z" style="fill:rgb(28,20,102);fill-rule:nonzero;"/>
            <path d="M52.96,29.6L52.76,29.6C52.46,20.6 46.96,18.63 43.42,18.62L43.39,18.62C39.85,18.63 34.35,20.6 34.05,29.6L33.87,29.6C32.8,29.76 32.07,31.13 32.22,32.67C32.38,34.22 33.38,35.35 34.45,35.21L34.67,35.16C35.37,37.58 36.47,38.94 37,39.6C37.73,40.53 41.44,43.51 43.38,43.54L43.41,43.54C45.35,43.51 49.06,40.53 49.79,39.6C50.31,38.93 51.42,37.57 52.13,35.14C52.21,35.17 52.29,35.19 52.38,35.2C53.45,35.35 54.45,34.21 54.6,32.67C54.76,31.12 54.03,29.75 52.95,29.6L52.96,29.6Z" style="fill:rgb(241,214,187);fill-rule:nonzero;"/>
            <path d="M43.42,40.14C44.83,40.14 45.98,39.27 45.98,38.2L40.85,38.2C40.85,39.27 42,40.14 43.42,40.14Z" style="fill:white;fill-rule:nonzero;"/>
            <path d="M52.96,22.16C51.76,19.17 47.16,16.96 47.16,16.96L47.16,17.46C46.26,16.46 44.77,15.83 42.89,15.83C36.25,15.83 34.23,21.65 34.23,24.33C31.83,27.68 34.44,30.67 36.31,31.73L36.31,30.08C36.35,27.91 38.42,25.91 41.51,26.24C44.28,26.54 46.02,24.98 47.51,22.32L47.52,22.25C48.16,24.13 49.83,28.05 53.02,29.61C53.77,23.95 54.22,25.14 53.02,22.16L52.96,22.16Z" style="fill:rgb(28,20,102);fill-rule:nonzero;"/>
            <path d="M39.81,32.14C40.342,32.14 40.78,31.702 40.78,31.17C40.78,30.638 40.342,30.2 39.81,30.2C39.278,30.2 38.84,30.638 38.84,31.17C38.84,31.702 39.278,32.14 39.81,32.14ZM46.92,32.14C47.452,32.14 47.89,31.702 47.89,31.17C47.89,30.638 47.452,30.2 46.92,30.2C46.388,30.2 45.95,30.638 45.95,31.17C45.95,31.702 46.388,32.14 46.92,32.14Z" style="fill:rgb(28,20,102);fill-rule:nonzero;"/>
            <path d="M44.3,32.9C44.303,32.868 44.305,32.836 44.305,32.803C44.305,32.288 43.881,31.863 43.365,31.863C42.849,31.863 42.425,32.288 42.425,32.803C42.425,32.836 42.427,32.868 42.43,32.9L42.43,35.04C42.43,35.556 42.854,35.98 43.37,35.98C43.886,35.98 44.31,35.556 44.31,35.04L44.31,32.9L44.3,32.9Z" style="fill:rgb(249,191,166);fill-rule:nonzero;"/>
        </g>
    </g>
</svg>
