<?xml version="1.0" encoding="UTF-8" standalone="no"?> <svg xmlns="http://www.w3.org/2000/svg" xmlns:xlink="http://www.w3.org/1999/xlink" xmlns:serif="http://www.serif.com/" width="100%" height="100%" viewBox="0 0 175 16" version="1.1" xml:space="preserve" style="fill-rule:evenodd;clip-rule:evenodd;stroke-linejoin:round;stroke-miterlimit:2;"> <g transform="matrix(1,0,0,1,-12.8659,-17.4172)"> <g transform="matrix(0.247669,0,0,0.247669,27.9573,17.3759)"> <path d="M0.3,1.6L2.8,2.1C8.7,3.2 9.4,6.7 9.4,9.9L9.4,50.6C9.4,53.9 8.6,57.2 2.8,58.4L0.3,58.9L0.3,60.2L29.3,60.2L29.3,58.9L26.8,58.4C21,57.2 20.2,53.9 20.2,50.6L20.2,9.9C20.2,6.7 21,3.2 26.8,2.1L29.3,1.6L29.3,0.3L0.3,0.3L0.3,1.6M589.6,0.3L589.6,20.4L590.8,20.4L593.8,13C596.8,5.6 599.8,1.6 607.6,1.6L610.8,1.6L610.8,50.6C610.8,53.8 610.1,57.6 604.2,58.5L601.7,58.9L601.7,60.2L630.7,60.2L630.7,58.9L628.1,58.5C622.3,57.5 621.5,53.8 621.5,50.5L621.5,1.7L624.7,1.7C632.5,1.7 635.6,5.7 638.5,13.1L641.5,20.5L642.7,20.5L642.7,0.3L589.6,0.3M563.7,1.6L566.1,1.9C570.5,2.5 574.6,4.7 574.7,16.1L574.9,43.4L551.7,15.9C544.7,7.7 541.9,4.2 539.9,0.5L539.7,0.3L518.5,0.3L518.5,1.6L518.9,1.6C523.3,2.4 526,4.2 530.6,9.2L531.5,10.2L531.5,41.6C531.5,55 527.3,57.2 522.2,58.5L520.4,58.9L520.4,60.2L544.2,60.2L544.2,58.9L542.5,58.5C538,57.3 533.3,56 533.2,41.5L532.9,11.7L574.9,61.3L575.1,61.4L576.4,61.4L576.4,16.1C576.4,4.7 580.7,2.5 585,1.9L587.3,1.6L587.3,0.3L563.7,0.3L563.7,1.6M320.2,49.4C316.2,56.3 311.3,58.8 302.2,58.8L299.6,58.8C294.6,58.8 292.3,56.3 292.3,50.8L292.3,30L296,30.1C305.1,30.3 307.6,30.7 310.5,39.5L311.5,42.7L312.8,42.7L312.8,15.8L311.5,15.8L310.5,19.1C307.7,27.9 305,28.3 296,28.5L292.3,28.5L292.3,1.7L298.7,1.7C309.5,1.7 314.3,4 317.9,10.6L322,18L323.2,18L323.2,0.3L272.5,0.3L272.5,1.6L275,2.1C280.5,3.1 281.6,5.8 281.6,9.7L281.6,50.6C281.6,53.8 280.8,57.6 275,58.5L272.5,58.9L272.5,60.2L325.5,60.2L325.5,42.5L324.3,42.5L320.2,49.5M509.8,49.5C505.8,56.3 500.9,58.8 491.8,58.8L489.3,58.8C484.2,58.8 481.9,56.3 481.9,50.8L481.9,30L485.6,30.1C494.8,30.3 497.3,30.7 500.1,39.5L501.1,42.7L502.4,42.7L502.4,15.8L501,15.8L500,19.1C497.2,27.9 494.5,28.3 485.5,28.5L482,28.5L482,1.7L488.5,1.7C499.2,1.7 504,4 507.7,10.6L511.7,18L512.9,18L512.9,0.3L462.2,0.3L462.2,1.6L464.7,2.1C470.2,3.1 471.3,5.8 471.3,9.7L471.3,50.6C471.3,53.8 470.6,57.6 464.7,58.5L462.2,58.9L462.2,60.2L515.2,60.2L515.2,42.5L514,42.5L510,49.5M118.6,50.5L118.6,1.6L126.2,1.6C141.4,1.6 150.4,12.3 150.4,30.2C150.4,48.4 141.9,58.8 127,58.8L125,58.8C119.6,58.8 118.5,55.5 118.5,50.5M128.7,0.3L75.2,0.3L75.2,1.6L77.6,1.9C83,2.7 86.1,4.9 86.2,14.4L86.4,43.4L63.2,15.9C56.4,8 53.4,4.2 51.4,0.5L51.2,0.3L30,0.3L30,1.6L30.4,1.6C34.7,2.4 37.4,4.2 42.1,9.2L43,10.2L43,41.6C43,55 38.7,57.2 33.6,58.5L31.9,58.9L31.9,60.2L55.7,60.2L55.7,58.9L54,58.5C49.5,57.3 44.8,56 44.7,41.5L44.4,11.7L86.6,61.4L87.9,61.4L87.9,13C87.9,5.5 91.2,1.7 97.9,1.7C104.4,1.7 107.8,5.5 107.8,13L107.8,50.6C107.8,54.1 107,57.5 101.1,58.5L98.7,58.9L98.7,60.2L128.7,60.2C139,60.2 147.7,57 153.7,50.9C159.232,45.325 162.297,37.753 162.2,29.9C162.2,21.9 159.2,14.5 153.7,9.2C146.876,3.033 137.889,-0.203 128.7,0.2M417.3,50.5L417.3,1.6L424.9,1.6C440.1,1.6 449.1,12.3 449.1,30.2C449.1,48.4 440.6,58.8 425.7,58.8L423.8,58.8C418.4,58.8 417.3,55.5 417.3,50.5M427.5,0.3L374,0.3L374,1.6L376.4,1.9C381.8,2.7 384.9,4.9 385,14.4L385.2,43.4L362,15.9C355,7.7 352.2,4.2 350.2,0.5L350,0.3L328.8,0.3L328.8,1.6L329.2,1.6C333.6,2.4 336.3,4.2 340.9,9.2L341.8,10.2L341.8,41.6C341.8,55 337.5,57.2 332.4,58.5L330.7,58.9L330.7,60.2L354.5,60.2L354.5,58.9L352.8,58.5C348.3,57.3 343.6,56 343.5,41.5L343.3,11.7L385.3,61.3L385.4,61.4L386.7,61.4L386.7,13C386.7,5.5 390,1.7 396.7,1.7C403.2,1.7 406.7,5.5 406.7,13L406.7,50.6C406.7,54.1 405.8,57.5 399.9,58.5L397.5,58.9L397.5,60.2L427.5,60.2C437.8,60.2 446.5,57 452.5,50.9C458.032,45.325 461.097,37.753 461,29.9C461,21.9 458,14.5 452.5,9.2C445.676,3.033 436.689,-0.203 427.5,0.2M248,0.3L222.1,0.3L222.1,1.7L224.6,2.2C230.4,3.3 231.2,6.6 231.2,9.9L231.2,50.7C231.2,54.1 230.4,57.3 224.6,58.5L222.1,59L222.1,60.3L252.1,60.3L252.1,59L250.1,58.6C243.3,57.2 242.1,55.8 242.1,49.9L242.1,1.7L244.6,1.7C253.8,1.7 259.3,7.9 259.3,18.3C259.3,28.8 253.8,35 244.6,35L243.9,35L243.9,36.5L248,36.5C261.5,36.5 271,29 271,18.3C271,7.7 261.5,0.3 248,0.3M211,49.4C207,56.2 202.1,58.8 193,58.8L190.4,58.8C185.4,58.8 183.1,56.3 183.1,50.8L183.1,30L186.8,30.1C195.9,30.3 198.4,30.7 201.3,39.5L202.3,42.7L203.5,42.7L203.5,15.8L202.3,15.8L201.3,19.1C198.5,27.9 195.8,28.3 186.8,28.5L183.1,28.5L183.1,1.7L189.5,1.7C200.2,1.7 205.1,4 208.7,10.6L212.8,18L214,18L214,0.3L163.3,0.3L163.3,1.6L165.8,2.1C171.3,3.1 172.4,5.8 172.4,9.7L172.4,50.6C172.4,53.8 171.6,57.6 165.8,58.5L163.3,58.9L163.3,60.2L216.3,60.2L216.3,42.5L215,42.5L210.9,49.5" style="fill:white;fill-rule:nonzero;"></path> </g> <g transform="matrix(1,0,0,1,-12.8659,0)"> <path d="M33.315,17.417C37.474,17.417 40.897,20.84 40.897,25C40.897,29.16 37.474,32.583 33.315,32.583C29.155,32.583 25.732,29.16 25.732,25C25.732,20.84 29.155,17.417 33.315,17.417ZM33.231,24.346L33.486,24.68L33.471,24.695L32.889,24.201L31.387,22.118L30.021,21.417L28.937,20.441L28.608,19.543L28.59,19.548L28.709,20.562L29.235,21.406L29.22,21.419L28.455,20.784L28.091,20.08L28.071,20.085L28.2,20.911L28.573,21.588L28.561,21.599L27.952,21.103L27.637,20.631L27.619,20.638L27.765,21.278L28.154,21.85L28.142,21.862L27.537,21.515L27.271,21.178L27.253,21.188L27.426,21.685L27.706,22.036L27.697,22.049L27.418,21.995L27.411,22.014L28.004,22.57L27.998,22.587L27.482,22.557L27.478,22.583L28.215,23.038L28.212,23.055L27.869,23.083L27.868,23.101L28.721,23.427L28.721,23.442L28.388,23.558L28.391,23.578L30.451,23.73L30.451,23.745L29.304,23.754L29.281,23.99L30.719,23.967L30.719,23.985L29.69,24.095L29.644,24.375L31.043,24.182L31.048,24.199L29.956,24.45L29.939,24.774L31.377,24.38L31.383,24.398L30.197,24.862L30.203,25.157L31.657,24.553L31.663,24.568L30.491,25.2L30.531,25.502L31.953,24.779L31.962,24.794L30.8,25.532L30.866,25.788L32.238,25.034L32.247,25.05L31.182,25.761L31.285,26.035L32.417,25.359L32.427,25.374L31.684,25.925L31.814,26.185L32.365,25.848L32.374,25.86L32.167,26.039L32.27,26.246L32.392,26.201L32.565,26.14L32.66,26.105C32.675,26.101 32.691,26.091 32.706,26.085C32.721,26.079 32.736,26.07 32.752,26.061C32.781,26.043 32.809,26.022 32.834,26L32.854,25.984L32.871,25.966C32.883,25.954 32.894,25.942 32.905,25.929C32.917,25.919 32.926,25.905 32.935,25.893L32.963,25.856C32.972,25.844 32.978,25.83 32.984,25.818L33.004,25.781C33.014,25.759 33.023,25.737 33.03,25.715C33.038,25.695 33.042,25.677 33.045,25.662L33.055,25.626L33.058,25.614L33.076,25.617L33.076,25.629L33.07,25.666C33.068,25.681 33.064,25.701 33.056,25.723C33.05,25.747 33.043,25.771 33.035,25.795L33.018,25.834L32.998,25.876C32.992,25.891 32.981,25.903 32.972,25.919L32.943,25.961L32.911,26.003L32.892,26.023L32.873,26.041C32.846,26.068 32.817,26.092 32.787,26.114L32.741,26.145L32.691,26.172C32.602,26.211 32.513,26.25 32.424,26.289L30.841,26.881L29.804,28.507L29.865,28.548L31.022,27.205L31.037,27.216L30.349,28.228L30.771,28.162L31.407,27.222L31.423,27.231L30.959,28.142L31.357,28.116L31.787,27.235L31.805,27.243L31.513,28.107L31.915,28.08L32.166,27.252L32.186,27.255L32.045,28.066L32.455,27.986L32.544,27.242L32.564,27.242L32.564,27.95L32.868,27.778L32.822,27.243L32.84,27.24L32.948,27.73L33.056,27.791L33.137,28.011L33.257,28.052L33.498,28.248L33.59,28.321L33.588,28.326L33.582,28.337L33.425,28.268C32.839,28.428 32.256,28.599 31.676,28.778L32.268,29.118L32.559,29.287L32.694,29.363L32.726,29.381L32.741,29.389L32.749,29.394L32.753,29.395L32.753,29.397L32.758,29.4C32.778,29.413 32.796,29.428 32.813,29.444C32.844,29.474 32.866,29.511 32.879,29.551C32.887,29.583 32.889,29.615 32.885,29.648C32.882,29.668 32.877,29.687 32.87,29.706L32.862,29.726L32.842,29.718L32.848,29.698C32.853,29.681 32.855,29.663 32.856,29.645C32.858,29.617 32.854,29.588 32.845,29.562C32.832,29.529 32.811,29.499 32.784,29.476C32.768,29.462 32.751,29.451 32.732,29.441L32.727,29.438L32.718,29.435L32.703,29.429L32.669,29.414C32.623,29.394 32.577,29.372 32.527,29.352L32.219,29.215L32.022,29.129L31.568,29.274C31.374,29.336 31.386,29.596 31.569,29.663C31.844,29.768 32.12,29.869 32.397,29.966C32.595,30.043 32.817,30.028 33.003,29.926L33.729,29.596C34.245,29.322 34.971,28.737 34.971,28.737L34.983,28.75L34.417,29.29C34.801,29.117 35.175,28.955 35.422,28.855C35.715,28.707 35.997,28.537 36.265,28.347L36.277,28.36L35.889,28.711C36.329,28.627 37.053,28.559 37.444,28.559C37.965,28.56 37.975,28.112 37.7,27.959C37.55,27.875 37.596,27.902 36.874,27.474C36.874,27.474 36.323,27.58 35.609,27.734C35.619,27.738 35.63,27.742 35.64,27.746C35.65,27.753 35.661,27.761 35.67,27.769C35.681,27.778 35.691,27.787 35.701,27.797C35.717,27.817 35.73,27.84 35.739,27.864C35.742,27.876 35.745,27.887 35.747,27.899L35.75,27.915L35.75,27.93C35.75,27.94 35.749,27.949 35.747,27.959C35.746,27.965 35.745,27.971 35.742,27.977L35.736,27.993L35.718,27.993C35.716,27.988 35.714,27.982 35.713,27.977C35.712,27.971 35.71,27.965 35.708,27.959L35.701,27.939C35.698,27.931 35.694,27.924 35.69,27.916L35.678,27.892L35.663,27.867L35.646,27.843C35.641,27.834 35.632,27.827 35.624,27.821L35.603,27.801C35.595,27.794 35.589,27.789 35.581,27.786C35.575,27.781 35.567,27.776 35.56,27.771C35.554,27.767 35.548,27.763 35.542,27.76C35.537,27.757 35.532,27.755 35.526,27.752L35.373,27.786C35.378,27.787 35.383,27.788 35.387,27.789C35.398,27.794 35.409,27.799 35.419,27.804C35.431,27.81 35.441,27.818 35.451,27.826C35.462,27.834 35.472,27.843 35.481,27.853C35.489,27.864 35.497,27.875 35.503,27.887C35.509,27.898 35.515,27.909 35.519,27.921C35.522,27.932 35.525,27.944 35.526,27.956L35.526,27.986C35.527,27.996 35.527,28.005 35.526,28.014C35.525,28.021 35.523,28.028 35.52,28.034C35.518,28.039 35.516,28.044 35.514,28.049L35.497,28.049L35.491,28.034C35.49,28.028 35.489,28.022 35.487,28.016L35.479,27.996L35.468,27.973L35.456,27.948C35.451,27.94 35.446,27.932 35.441,27.924L35.424,27.899C35.419,27.89 35.41,27.884 35.404,27.878L35.383,27.858C35.376,27.85 35.367,27.847 35.36,27.843C35.353,27.837 35.347,27.832 35.34,27.827L35.32,27.817C35.315,27.814 35.31,27.811 35.305,27.809L35.294,27.803L34.887,27.457L34.902,27.353L34.859,27.112L34.901,27.008L34.901,26.662L34.457,27.058L34.445,27.046L35.747,25.515L35.736,25.487L35.355,25.42L35.357,25.402L36.039,25.402C36.109,25.49 36.261,25.515 36.371,25.484L36.375,25.469L36.238,25.249L36.294,25.21C36.349,25.178 36.398,25.192 36.452,25.27C36.502,25.343 36.527,25.438 36.467,25.496L36.478,25.512C36.567,25.5 36.648,25.454 36.704,25.383C36.781,25.282 36.768,25.128 36.674,25.016C36.592,24.924 36.447,24.779 36.447,24.779C36.462,24.605 36.371,24.453 36.202,24.384C35.835,24.238 35.555,24.132 35.555,24.132L34.67,24.13L34.667,24.111L35.548,24.007L35.812,23.774L36.813,23.375C36.878,23.349 36.928,23.296 36.95,23.23C37.08,22.873 37.48,21.806 37.48,21.806L38.714,20.14L38.705,20.125L37.894,20.703L37.883,20.69L38.228,20.002L38.212,19.993L37.682,20.755L37.666,20.749L37.727,19.988L37.709,19.984L37.516,20.758L37.498,20.758L37.186,19.982L37.168,19.988L37.397,20.912L37.37,21.347L37.353,21.348L37.302,20.966L36.756,20.037L36.741,20.047L37.18,21.028L37.213,21.752L37.195,21.752L37.1,21.077L36.384,20.17L36.371,20.181L36.989,21.129L37.028,22.124L37.012,22.125L36.886,21.184L36.091,20.352L36.077,20.365L36.753,21.247L36.833,22.391L36.814,22.391L36.632,21.305L35.806,20.597L35.794,20.611L36.508,21.383L36.631,22.576L36.612,22.581L36.371,21.457L35.534,20.886L35.523,20.902L36.239,21.535L36.433,22.716L36.415,22.72L36.105,21.617L35.309,21.181L35.298,21.197L35.981,21.695L36.204,22.839L36.187,22.844L35.831,21.795L35.083,21.51L35.075,21.529L35.702,21.885L35.962,22.93L35.945,22.936L35.549,21.998L34.841,21.87L34.837,21.888L35.422,22.098L35.724,23.009L35.708,23.017L35.256,22.24L34.661,22.191L34.658,22.209L35.124,22.362L35.476,23.1L35.461,23.11L34.971,22.517L34.433,22.549L34.431,22.567L34.859,22.647L35.25,23.22L35.237,23.233L34.728,22.812L34.153,22.94L34.156,22.96L34.627,22.96L35.06,23.369L35.051,23.384L34.526,23.139L33.925,23.231L33.925,23.251L34.46,23.272L34.915,23.56L34.908,23.577L34.408,23.405L33.601,23.558L33.602,23.577L34.359,23.56L34.821,23.773L34.815,23.788L34.332,23.675L33.113,23.88L33.113,23.896L34.069,23.97L34.072,23.987L33.305,24.124L33.305,24.141L33.829,24.172L33.829,24.19L33.233,24.346L33.231,24.346ZM33.905,25.622L33.904,25.605L34.229,25.51L34.24,25.524L34.04,25.799L34.024,25.792L34.058,25.64L33.905,25.622ZM34.775,25.619L34.604,25.828L34.589,25.821L34.622,25.704L34.503,25.681L34.503,25.662L34.769,25.603L34.775,25.619ZM34.029,26.142L34.029,26.127L34.35,26.019L34.361,26.032L34.171,26.315L34.156,26.309L34.185,26.156L34.029,26.142ZM35.012,25.444L35.051,25.357L34.96,25.327L34.964,25.311L35.179,25.291L35.187,25.307L35.026,25.455L35.012,25.444ZM32.42,24.692L32.403,24.681L32.412,24.482L32.434,24.482L32.457,24.586L32.715,24.473L32.726,24.491L32.42,24.692ZM33.717,25.943L33.553,26.16L33.538,26.153L33.565,26.033L33.446,26.018L33.446,25.998L33.706,25.926L33.717,25.943ZM27.797,21.864L27.816,21.845L28.519,22.417L30.086,22.846L30.078,22.876L28.451,22.524L27.797,21.864ZM35.6,28.225L35.578,28.231L35.526,28.247C35.453,28.266 35.379,28.284 35.305,28.3L35.283,28.305C35.214,28.321 35.144,28.337 35.074,28.351L35.019,28.358L34.997,28.361L34.968,28.366L34.964,28.366L34.957,28.338L34.99,28.328L35.005,28.321L35.063,28.303C35.13,28.282 35.213,28.259 35.286,28.242L35.409,28.217L35.516,28.199L35.571,28.193L35.592,28.19L35.623,28.187L35.627,28.187L35.632,28.214L35.6,28.225ZM37.08,27.993L37.031,28L36.947,28.016C36.885,28.027 36.822,28.037 36.759,28.046L36.631,28.064L36.544,28.078L36.459,28.089L36.328,28.109L36.253,28.12L36.228,28.123L36.14,28.135L36.048,28.147L36.007,28.152L35.95,28.158L35.945,28.13L36.001,28.118L36.039,28.109L36.132,28.09L36.181,28.08L36.261,28.064L36.319,28.054C36.351,28.048 36.388,28.04 36.426,28.035L36.534,28.019L36.645,28.003L36.752,27.988L36.877,27.976L36.94,27.968L37.059,27.959L37.074,27.957L37.126,27.954L37.131,27.954L37.134,27.982L37.08,27.993ZM35.068,27.855L35.069,27.84L35.087,27.838C35.094,27.837 35.101,27.837 35.107,27.838C35.116,27.837 35.125,27.837 35.133,27.838L35.135,27.838L35.149,27.841L35.164,27.846C35.187,27.854 35.209,27.866 35.228,27.882C35.236,27.889 35.244,27.896 35.251,27.904L35.257,27.91C35.266,27.92 35.274,27.931 35.28,27.942C35.286,27.953 35.291,27.965 35.295,27.977C35.299,27.989 35.302,28.001 35.303,28.012L35.305,28.028L35.305,28.043C35.305,28.052 35.305,28.062 35.303,28.071C35.302,28.077 35.301,28.084 35.298,28.09L35.291,28.106L35.276,28.106L35.269,28.09C35.268,28.084 35.266,28.078 35.263,28.072L35.256,28.052L35.246,28.029L35.233,28.005L35.217,27.98C35.212,27.972 35.207,27.964 35.201,27.956L35.181,27.934C35.177,27.931 35.174,27.928 35.17,27.925C35.166,27.922 35.163,27.918 35.159,27.915L35.116,27.884L35.097,27.873L35.066,27.858L35.068,27.855ZM33.243,26.728L33.229,26.717L33.275,26.633L33.188,26.596L33.192,26.579L33.409,26.579L33.414,26.595L33.243,26.728ZM31.352,23.987L31.334,23.976L31.337,23.728L31.361,23.724L31.389,23.875L32.001,23.555L32.016,23.575L31.352,23.987ZM32.707,28.843L32.648,28.863L32.602,28.877L32.559,28.889L32.498,28.907L32.489,28.881L32.493,28.878L32.547,28.857L32.611,28.831L32.626,28.825L32.692,28.799C32.753,28.775 32.813,28.752 32.874,28.73L32.897,28.722L32.943,28.705C33.004,28.684 33.068,28.659 33.134,28.638C33.214,28.612 33.294,28.586 33.374,28.562L33.406,28.551L33.483,28.528L33.584,28.502L33.706,28.471L33.734,28.464L33.792,28.451L33.796,28.451L33.806,28.477L33.8,28.479L33.744,28.5L33.706,28.514L33.599,28.551L33.501,28.583L33.478,28.591L33.391,28.621C33.315,28.647 33.235,28.673 33.154,28.698L33.093,28.719L32.917,28.777L32.833,28.803L32.707,28.843ZM32.111,24.459L32.091,24.45L32.096,24.212L32.119,24.212L32.146,24.349L32.509,24.178L32.521,24.198L32.111,24.459ZM32.767,26.622L32.753,26.611L32.79,26.546L32.721,26.515L32.726,26.5L32.9,26.5L32.905,26.515L32.767,26.622ZM34.355,28.025C34.357,28.025 34.359,28.026 34.361,28.026C34.372,28.03 34.384,28.035 34.395,28.04C34.406,28.046 34.417,28.053 34.427,28.061C34.438,28.069 34.448,28.078 34.457,28.087C34.466,28.098 34.474,28.109 34.48,28.121C34.486,28.132 34.491,28.143 34.495,28.155C34.499,28.166 34.503,28.178 34.505,28.19L34.508,28.205L34.508,28.221C34.508,28.23 34.508,28.239 34.506,28.248C34.506,28.255 34.504,28.262 34.502,28.268L34.495,28.283L34.479,28.283C34.476,28.278 34.474,28.273 34.473,28.268C34.473,28.262 34.469,28.256 34.466,28.25L34.459,28.23C34.456,28.222 34.452,28.214 34.448,28.207C34.444,28.198 34.439,28.19 34.434,28.182L34.419,28.159L34.402,28.135C34.396,28.126 34.388,28.12 34.381,28.113L34.359,28.094C34.352,28.088 34.345,28.083 34.338,28.078C34.325,28.069 34.311,28.061 34.297,28.054C34.292,28.05 34.287,28.047 34.281,28.045C34.279,28.044 34.277,28.044 34.275,28.043L34.144,28.075L34.125,28.08L34.141,28.084C34.152,28.089 34.163,28.094 34.174,28.1C34.185,28.105 34.195,28.112 34.205,28.12C34.216,28.128 34.226,28.137 34.235,28.147C34.244,28.157 34.252,28.168 34.258,28.179C34.265,28.19 34.271,28.202 34.275,28.214C34.279,28.226 34.282,28.238 34.284,28.25L34.287,28.265L34.287,28.28C34.288,28.289 34.287,28.298 34.286,28.306C34.285,28.313 34.283,28.32 34.281,28.326C34.28,28.331 34.278,28.336 34.275,28.341L34.257,28.341L34.252,28.326C34.251,28.32 34.249,28.315 34.246,28.309L34.238,28.289L34.228,28.265L34.216,28.242L34.2,28.217C34.196,28.208 34.186,28.202 34.182,28.194C34.175,28.187 34.168,28.18 34.16,28.173L34.139,28.153C34.133,28.146 34.124,28.142 34.118,28.138L34.096,28.124L34.076,28.113L34.061,28.106L34.047,28.1L33.812,27.827L33.695,27.176L33.718,27.165L34.168,27.713L34.324,27.71L34.725,27.933L34.355,28.025ZM33.454,27.04L33.44,27.029L33.477,26.963L33.408,26.933L33.413,26.917L33.587,26.917L33.591,26.933L33.454,27.04ZM33.824,28.162L33.826,28.144C33.832,28.143 33.838,28.142 33.844,28.141C33.85,28.14 33.857,28.14 33.864,28.141C33.872,28.14 33.881,28.14 33.89,28.141L33.896,28.141L33.905,28.144C33.91,28.145 33.915,28.147 33.92,28.149C33.932,28.152 33.943,28.156 33.954,28.161C33.965,28.167 33.976,28.174 33.986,28.182C33.997,28.19 34.007,28.2 34.017,28.21L34.024,28.221C34.03,28.227 34.035,28.234 34.04,28.242C34.046,28.253 34.051,28.265 34.055,28.277C34.059,28.289 34.062,28.3 34.064,28.312L34.067,28.328L34.067,28.343C34.067,28.352 34.066,28.361 34.064,28.37C34.064,28.377 34.063,28.384 34.061,28.39L34.055,28.406L34.037,28.406L34.032,28.39C34.031,28.384 34.028,28.379 34.026,28.373C34.024,28.366 34.021,28.359 34.018,28.352C34.015,28.344 34.012,28.336 34.008,28.329C34.003,28.321 33.999,28.313 33.994,28.305L33.978,28.282L33.96,28.259L33.945,28.243C33.944,28.241 33.942,28.239 33.94,28.237L33.919,28.217C33.913,28.211 33.904,28.205 33.896,28.202C33.889,28.197 33.882,28.193 33.874,28.188L33.855,28.178L33.824,28.162ZM34.573,28.499L34.514,28.519L34.372,28.569L34.339,28.58L34.237,28.615C34.188,28.63 34.138,28.65 34.089,28.667L33.763,28.782L33.553,28.858L33.439,28.9C33.403,28.915 33.37,28.926 33.336,28.938L33.29,28.953L33.195,28.988L33.156,29.004C33.108,29.021 33.06,29.038 33.012,29.054L32.955,29.076L32.879,29.102L32.873,29.103L32.862,29.077L32.868,29.074L32.943,29.043L32.998,29.019L33.139,28.959L33.166,28.949L33.27,28.906L33.318,28.887L33.419,28.848L33.533,28.803C33.602,28.779 33.671,28.751 33.743,28.727L34.07,28.614L34.147,28.588L34.22,28.565L34.358,28.523L34.5,28.482L34.561,28.464L34.645,28.439L34.655,28.467L34.573,28.499ZM33.328,25.117L33.543,25.082L33.55,25.097L33.403,25.256L33.388,25.247L33.419,25.158L33.327,25.135L33.328,25.117ZM34.226,24.384L34.401,24.384L34.405,24.4L34.268,24.507L34.255,24.496L34.29,24.43L34.222,24.4L34.226,24.384ZM36.383,24.869C36.452,24.937 36.524,25.001 36.594,25.068C36.602,25.077 36.609,25.087 36.615,25.097C36.619,25.102 36.623,25.107 36.626,25.112L36.634,25.128C36.639,25.138 36.644,25.149 36.648,25.16C36.651,25.171 36.653,25.182 36.654,25.193C36.656,25.205 36.657,25.217 36.657,25.229C36.657,25.234 36.657,25.24 36.657,25.245C36.657,25.252 36.654,25.258 36.652,25.262C36.65,25.274 36.646,25.285 36.641,25.296C36.641,25.301 36.637,25.307 36.634,25.311L36.626,25.325L36.611,25.316L36.617,25.301C36.619,25.296 36.621,25.292 36.623,25.287C36.626,25.277 36.628,25.268 36.629,25.258C36.63,25.253 36.629,25.227 36.629,25.227C36.629,25.217 36.627,25.208 36.625,25.198C36.622,25.189 36.618,25.179 36.614,25.171C36.61,25.161 36.606,25.153 36.6,25.145C36.598,25.14 36.595,25.136 36.592,25.132C36.59,25.128 36.587,25.124 36.583,25.12C36.577,25.113 36.57,25.106 36.563,25.1C36.487,25.044 36.41,24.984 36.331,24.927L36.383,24.869ZM32.544,29.752L32.368,29.69L32.192,29.632L31.84,29.521L31.837,29.519C31.817,29.513 31.804,29.495 31.804,29.475C31.804,29.47 31.805,29.464 31.806,29.459C31.811,29.445 31.822,29.433 31.837,29.429L32.2,29.329L32.206,29.345L31.967,29.47L32.212,29.579C32.27,29.603 32.325,29.631 32.38,29.655L32.548,29.735L32.544,29.752ZM32.415,26.907L32.403,26.896L32.438,26.83L32.371,26.801L32.374,26.784L32.548,26.784L32.554,26.8L32.415,26.907ZM35.198,24.813L34.983,24.979L34.971,24.969L35.029,24.862L34.918,24.813L34.921,24.796L35.193,24.796L35.198,24.813ZM33.891,26.803L33.891,26.786L34.063,26.755L34.07,26.77L33.952,26.899L33.937,26.891L33.962,26.821L33.891,26.803ZM34.798,24.384L35.016,24.384L35.02,24.4L34.849,24.533L34.837,24.522L34.882,24.438L34.794,24.401L34.798,24.384ZM34.752,25.094L34.76,25.108L34.546,25.354L34.531,25.346L34.577,25.206L34.431,25.175L34.431,25.157L34.752,25.094ZM34.402,26.674L34.387,26.665L34.419,26.575L34.327,26.552L34.327,26.536L34.541,26.5L34.549,26.515L34.402,26.674ZM34.148,25.022L34.156,25.037L33.92,25.282L33.905,25.273L33.959,25.128L33.809,25.088L33.809,25.071L34.148,25.022ZM35.939,25.187C35.944,25.173 35.95,25.16 35.959,25.148C35.963,25.142 35.967,25.137 35.971,25.132L35.978,25.128L35.981,25.125L35.984,25.125L35.987,25.12C35.999,25.112 36.013,25.106 36.027,25.102C36.046,25.095 36.066,25.094 36.086,25.099C36.092,25.099 36.099,25.101 36.105,25.103L36.12,25.109C36.124,25.112 36.14,25.124 36.144,25.128L36.154,25.138L36.161,25.148C36.162,25.15 36.17,25.171 36.17,25.171L36.157,25.183C36.152,25.18 36.147,25.177 36.143,25.174C36.141,25.172 36.139,25.171 36.137,25.171L36.129,25.167C36.124,25.165 36.118,25.164 36.112,25.163C36.107,25.161 36.102,25.16 36.097,25.16L36.091,25.16C36.087,25.159 36.084,25.159 36.08,25.16L36.068,25.16C36.06,25.162 36.053,25.164 36.046,25.167C36.039,25.17 36.033,25.173 36.027,25.177L36.017,25.186C36.014,25.188 36.012,25.191 36.01,25.193C36.005,25.199 36,25.204 35.996,25.21C35.994,25.213 35.994,25.218 35.991,25.221C35.99,25.224 35.989,25.228 35.988,25.232C35.986,25.238 35.984,25.245 35.982,25.252C35.981,25.258 35.981,25.265 35.982,25.271L35.982,25.279C35.983,25.282 35.986,25.297 35.987,25.302L35.976,25.31C35.971,25.306 35.967,25.303 35.962,25.299L35.956,25.291L35.95,25.282L35.944,25.271C35.942,25.267 35.941,25.262 35.939,25.258L35.935,25.242L35.935,25.226C35.934,25.213 35.936,25.2 35.939,25.187ZM27.923,22.711L27.932,22.683L30.099,23.13L30.093,23.161L28.487,22.916L27.923,22.711ZM30.997,23.734L30.976,23.725L30.979,23.474L31.003,23.473L31.031,23.624L31.727,23.26L31.739,23.28L30.997,23.734ZM30.283,22.287L29.128,21.903L28.649,21.244L28.669,21.227L29.225,21.818L30.297,22.261L30.283,22.287ZM30.237,23.465L29.096,23.361L28.519,23.193L28.527,23.164L30.24,23.436L30.237,23.465ZM32.654,24.943L32.636,24.93L32.657,24.748L32.68,24.751L32.689,24.84L33.004,24.701L33.016,24.721L32.654,24.943ZM30.5,23.089L30.503,22.839L30.528,22.836L30.555,22.986L31.228,22.63L31.239,22.65L30.52,23.098L30.5,23.089ZM30.43,22.702L30.41,22.693L30.412,22.443L30.436,22.44L30.464,22.59L30.973,22.33L30.985,22.352L30.43,22.702ZM32.909,27.006L32.897,26.995L32.932,26.931L32.865,26.9L32.868,26.885L33.042,26.885L33.047,26.9L32.909,27.006ZM33.61,26.445L33.61,26.426L33.878,26.371L33.885,26.387L33.709,26.593L33.694,26.585L33.729,26.468L33.61,26.445ZM30.714,23.444L30.693,23.431L30.698,23.182L30.72,23.179L30.748,23.33L31.459,22.945L31.472,22.965L30.714,23.444ZM29.113,20.83L29.136,20.814L29.746,21.627L30.748,22.107L30.734,22.134L29.657,21.72L29.113,20.83ZM31.735,24.228L31.716,24.219L31.721,23.974L31.742,23.97L31.771,24.118L32.279,23.858L32.291,23.878L31.735,24.228ZM28.134,21.507L28.154,21.486L28.807,22.101L30.132,22.529L30.122,22.557L28.721,22.2L28.134,21.507ZM35.295,24.491L35.47,24.491L35.474,24.507L35.337,24.614L35.324,24.603L35.36,24.537L35.292,24.507L35.295,24.491ZM35.208,25.764L35.089,25.891L35.074,25.883L35.098,25.813L35.028,25.795L35.028,25.778L35.199,25.749L35.208,25.764ZM34.749,26.275L34.734,26.266L34.765,26.177L34.673,26.154L34.673,26.136L34.887,26.101L34.895,26.116L34.749,26.275ZM33.732,24.615L34.003,24.615L34.009,24.631L33.795,24.797L33.781,24.785L33.839,24.678L33.728,24.632L33.732,24.615ZM33.634,25.507L33.466,25.706L33.451,25.697L33.483,25.585L33.37,25.562L33.37,25.545L33.625,25.492L33.634,25.507ZM32.842,25.509L32.825,25.496L32.85,25.353L32.871,25.353L32.876,25.408L33.026,25.346L33.038,25.366L32.842,25.509ZM34.636,24.701L34.422,24.866L34.407,24.855L34.468,24.748L34.355,24.701L34.359,24.684L34.632,24.684L34.636,24.701ZM33.108,26.364L33.093,26.353L33.139,26.267L33.048,26.234L33.052,26.215L33.269,26.209L33.275,26.224L33.108,26.364ZM32.782,25.207L32.764,25.195L32.787,25.051L32.81,25.051L32.818,25.108L33.039,25.001L33.052,25.019L32.782,25.207ZM35.965,24.683C35.967,24.668 35.973,24.655 35.981,24.643C35.982,24.641 35.984,24.639 35.985,24.637C35.987,24.633 35.99,24.63 35.993,24.628L36.007,24.617C36.012,24.613 36.018,24.609 36.025,24.606L36.03,24.603L36.051,24.6L36.056,24.6L36.068,24.623L36.065,24.626C36.06,24.631 36.055,24.636 36.049,24.64C36.049,24.641 36.049,24.643 36.048,24.644L36.039,24.66C36.039,24.661 36.039,24.663 36.039,24.664C36.038,24.666 36.037,24.668 36.036,24.67C36.036,24.672 36.036,24.673 36.036,24.675C36.036,24.676 36.036,24.678 36.036,24.68C36.035,24.682 36.035,24.685 36.036,24.687L36.036,24.69C36.035,24.693 36.035,24.696 36.036,24.699C36.036,24.703 36.037,24.707 36.039,24.71L36.039,24.713L36.045,24.721C36.045,24.723 36.046,24.725 36.048,24.727C36.05,24.728 36.052,24.73 36.053,24.732C36.055,24.733 36.058,24.735 36.06,24.738L36.063,24.738L36.069,24.742C36.076,24.745 36.082,24.746 36.089,24.747C36.096,24.747 36.103,24.746 36.109,24.744L36.118,24.741L36.121,24.739L36.128,24.735C36.13,24.733 36.133,24.731 36.135,24.729C36.137,24.727 36.138,24.725 36.14,24.724C36.141,24.723 36.142,24.721 36.143,24.719L36.144,24.715C36.146,24.713 36.148,24.712 36.149,24.71L36.152,24.701C36.153,24.698 36.154,24.694 36.155,24.69C36.155,24.69 36.155,24.674 36.155,24.669L36.155,24.664L36.176,24.655L36.18,24.66C36.184,24.666 36.187,24.672 36.19,24.678L36.193,24.684C36.196,24.691 36.197,24.697 36.198,24.704L36.198,24.719C36.198,24.725 36.196,24.73 36.195,24.735L36.195,24.739C36.192,24.754 36.185,24.767 36.176,24.779C36.167,24.792 36.154,24.802 36.14,24.81L36.137,24.814L36.131,24.816L36.128,24.817L36.115,24.822C36.107,24.825 36.098,24.826 36.089,24.826L36.08,24.826C36.063,24.826 36.047,24.822 36.031,24.816L36.025,24.813C36.018,24.809 36.012,24.805 36.007,24.8C36.003,24.798 35.999,24.795 35.996,24.791C35.992,24.788 35.988,24.784 35.985,24.781C35.979,24.773 35.974,24.765 35.97,24.756L35.964,24.742L35.964,24.738L35.962,24.733L35.962,24.729C35.96,24.721 35.959,24.713 35.959,24.706C35.96,24.698 35.962,24.69 35.965,24.683ZM31.926,26.907L31.914,26.896L31.949,26.83L31.881,26.801L31.884,26.784L32.059,26.784L32.063,26.8L31.926,26.907ZM35.887,27.957L35.883,27.957L35.877,27.93L35.881,27.93L35.918,27.919C35.95,27.911 35.981,27.903 36.013,27.895C36.109,27.872 36.205,27.852 36.302,27.834L36.305,27.834L36.458,27.806L36.585,27.788L36.594,27.788L36.667,27.778L36.69,27.775L36.727,27.772L36.733,27.772L36.738,27.8L36.732,27.8L36.697,27.811L36.671,27.817L36.602,27.832L36.528,27.847L36.467,27.861L36.337,27.887L36.313,27.892C36.192,27.914 36.071,27.934 35.95,27.95L35.924,27.953L35.887,27.959L35.887,27.957Z" style="fill:white;fill-rule:nonzero;"></path> </g> </g> </svg> 