<?xml version="1.0" encoding="UTF-8" standalone="no"?> <svg xmlns="http://www.w3.org/2000/svg" xmlns:xlink="http://www.w3.org/1999/xlink" xmlns:serif="http://www.serif.com/" width="100%" height="100%" viewBox="0 0 280 55" version="1.1" xml:space="preserve" style="fill-rule:evenodd;clip-rule:evenodd;stroke-linejoin:round;stroke-miterlimit:2;"> <path d="M20.123,41.949L1.754,37.855L20.123,32.246L20.123,41.949Z" style="fill:rgb(0,176,178);fill-rule:nonzero;"></path> <path d="M20.123,30.475L0.007,36.622L0.007,27.415L13.944,23.163" style="fill:white;fill-rule:nonzero;"></path> <path d="M0,16.154L20.123,10L20.123,19.497L0,25.644L0,16.154Z" style="fill:white;fill-rule:nonzero;"></path> <path d="M27.147,15.431L42.23,15.431L42.23,19.883L32.04,19.883L32.04,23.963L41.664,23.963L41.664,28.415L32.04,28.415L32.04,32.867L42.796,32.867L42.796,37.318L27.147,37.318L27.147,15.431Z" style="fill:white;fill-rule:nonzero;"></path> <path d="M50.22,29.282L45.145,22.294L50.695,22.294L53.386,26.374L55.993,22.294L61.228,22.294L56.272,29.282L62.137,37.318L56.587,37.318L53.267,32.308L49.688,37.318L44.209,37.318L50.22,29.282Z" style="fill:white;fill-rule:nonzero;"></path> <path d="M68.308,29.806C68.258,30.818 68.614,31.808 69.301,32.563C70.061,33.241 71.05,33.616 72.075,33.616C73.101,33.616 74.09,33.241 74.85,32.563C75.531,31.806 75.885,30.816 75.836,29.806C75.882,28.796 75.528,27.808 74.85,27.049C74.09,26.371 73.101,25.996 72.075,25.996C71.05,25.996 70.061,26.371 69.301,27.049C68.617,27.805 68.261,28.795 68.308,29.806ZM63.989,22.294L68.308,22.294L68.308,24.272L68.378,24.272C68.579,23.974 68.813,23.698 69.077,23.452C69.4,23.16 69.757,22.905 70.139,22.694C70.564,22.465 71.011,22.28 71.474,22.143C71.973,21.994 72.491,21.92 73.012,21.922C74.063,21.909 75.107,22.103 76.08,22.494C76.976,22.859 77.783,23.406 78.45,24.1C79.118,24.811 79.634,25.648 79.966,26.56C80.332,27.561 80.515,28.618 80.505,29.682C80.51,30.705 80.345,31.723 80.015,32.694C79.706,33.618 79.233,34.482 78.617,35.243C78.025,35.98 77.282,36.586 76.437,37.021C75.538,37.486 74.537,37.722 73.522,37.711C72.606,37.711 71.696,37.559 70.831,37.263C69.993,36.97 69.263,36.438 68.734,35.733L68.671,35.733L68.671,44.361L63.975,44.361L63.989,22.294Z" style="fill:white;fill-rule:nonzero;"></path> <path d="M93.736,28.104C93.751,27.735 93.69,27.366 93.555,27.021C93.421,26.676 93.216,26.362 92.953,26.098C92.682,25.823 92.355,25.607 91.994,25.463C91.633,25.32 91.245,25.252 90.856,25.264C90.378,25.252 89.902,25.336 89.458,25.513C89.082,25.661 88.736,25.876 88.438,26.147C88.16,26.396 87.937,26.699 87.781,27.036C87.62,27.37 87.53,27.734 87.515,28.104L93.736,28.104ZM97.72,34.72C96.963,35.672 95.982,36.427 94.861,36.918C93.74,37.424 92.522,37.687 91.289,37.69C90.163,37.697 89.044,37.508 87.983,37.132C86.986,36.782 86.069,36.241 85.286,35.54C84.517,34.842 83.903,33.995 83.482,33.052C83.049,32.023 82.825,30.92 82.825,29.806C82.825,28.692 83.049,27.589 83.482,26.56C83.905,25.618 84.518,24.771 85.286,24.072C86.069,23.371 86.986,22.83 87.983,22.48C89.044,22.104 90.163,21.915 91.289,21.922C92.305,21.909 93.314,22.099 94.253,22.48C95.117,22.837 95.889,23.381 96.511,24.072C97.137,24.803 97.612,25.648 97.909,26.56C98.25,27.609 98.418,28.705 98.405,29.806L98.405,31.26L87.501,31.26C87.651,32.083 88.083,32.83 88.724,33.376C89.374,33.909 90.2,34.188 91.045,34.161C91.733,34.184 92.413,34.01 93.002,33.658C93.545,33.307 94.019,32.861 94.4,32.342L97.72,34.72Z" style="fill:white;fill-rule:nonzero;"></path> <path d="M101.305,22.295L106.002,22.295L106.002,24.706L106.065,24.706C106.485,23.886 107.098,23.177 107.855,22.639C108.631,22.155 109.537,21.915 110.455,21.95C110.727,21.95 111,21.95 111.272,21.984C111.527,22.002 111.78,22.044 112.027,22.108L112.027,26.34C111.702,26.241 111.37,26.162 111.035,26.106C110.697,26.055 110.356,26.029 110.014,26.03C109.285,25.999 108.557,26.126 107.883,26.402C107.39,26.627 106.973,26.985 106.68,27.436C106.384,27.921 106.198,28.464 106.135,29.028C106.04,29.713 105.996,30.404 106.002,31.095L106.002,37.373L101.305,37.373L101.305,22.295Z" style="fill:white;fill-rule:nonzero;"></path> <path d="M125.908,26.002L121.763,26.002L121.763,31.012C121.764,31.39 121.787,31.767 121.833,32.142C121.864,32.45 121.959,32.748 122.113,33.018C122.277,33.279 122.522,33.482 122.812,33.597C123.197,33.742 123.608,33.81 124.021,33.796C124.351,33.79 124.68,33.763 125.007,33.714C125.346,33.694 125.67,33.571 125.936,33.362L125.936,37.222C125.408,37.408 124.859,37.533 124.301,37.594C123.751,37.656 123.198,37.689 122.644,37.69C121.905,37.697 121.168,37.613 120.449,37.442C119.818,37.295 119.222,37.028 118.695,36.656C118.194,36.298 117.789,35.825 117.514,35.278C117.221,34.628 117.078,33.922 117.094,33.211L117.094,26.002L114.082,26.002L114.082,22.295L117.094,22.295L117.094,17.843L121.791,17.843L121.791,22.295L125.936,22.295L125.908,26.002Z" style="fill:white;fill-rule:nonzero;"></path> <path d="M136.91,26.712C136.588,26.306 136.173,25.98 135.699,25.761C135.226,25.542 134.707,25.436 134.184,25.451C133.78,25.451 133.383,25.546 133.024,25.727C132.842,25.811 132.691,25.948 132.59,26.119C132.489,26.29 132.442,26.487 132.457,26.684C132.456,26.864 132.51,27.039 132.614,27.186C132.718,27.333 132.866,27.444 133.038,27.505C133.512,27.707 134.006,27.862 134.512,27.966L136.427,28.4C137.093,28.541 137.736,28.773 138.336,29.09C138.931,29.427 139.437,29.899 139.81,30.468C140.227,31.15 140.429,31.939 140.39,32.735C140.424,33.58 140.2,34.416 139.747,35.133C139.324,35.755 138.762,36.273 138.105,36.65C137.404,37.04 136.64,37.31 135.847,37.449C135.03,37.605 134.199,37.683 133.366,37.683C132.276,37.679 131.192,37.528 130.144,37.235C129.085,36.96 128.119,36.411 127.348,35.643L130.207,32.522C130.602,33.022 131.097,33.437 131.661,33.741C132.239,34.028 132.88,34.17 133.527,34.155C134.028,34.161 134.527,34.085 135.002,33.927C135.193,33.879 135.362,33.768 135.481,33.613C135.601,33.458 135.663,33.268 135.659,33.073C135.662,32.886 135.608,32.702 135.505,32.545C135.401,32.388 135.253,32.264 135.078,32.191C134.609,31.969 134.114,31.804 133.604,31.701L131.696,31.267C131.029,31.122 130.385,30.89 129.78,30.578C129.185,30.27 128.678,29.82 128.306,29.269C127.89,28.583 127.688,27.792 127.726,26.994C127.706,26.198 127.896,25.409 128.278,24.706C128.63,24.08 129.123,23.54 129.718,23.128C130.34,22.703 131.036,22.394 131.772,22.219C132.542,22.024 133.333,21.924 134.128,21.922C135.155,21.926 136.176,22.072 137.161,22.357C138.156,22.629 139.057,23.162 139.768,23.9L136.91,26.712Z" style="fill:white;fill-rule:nonzero;"></path> <path d="M148.505,18.842C148.507,18.13 148.795,17.447 149.306,16.944C149.816,16.44 150.509,16.156 151.231,16.154C151.766,16.158 152.289,16.316 152.733,16.611C153.178,16.905 153.524,17.322 153.73,17.809C153.936,18.296 153.992,18.833 153.89,19.351C153.789,19.869 153.535,20.346 153.16,20.723C152.91,20.977 152.609,21.177 152.278,21.312C151.946,21.447 151.59,21.514 151.231,21.509C150.509,21.507 149.816,21.223 149.306,20.72C148.795,20.216 148.507,19.534 148.505,18.821" style="fill:white;fill-rule:nonzero;"></path> <rect x="148.875" y="22.612" width="4.704" height="15.024" style="fill:white;fill-rule:nonzero;"></rect> <path d="M156.969,22.612L161.484,22.612L161.484,24.679L161.547,24.679C161.711,24.362 161.921,24.069 162.169,23.811C162.458,23.51 162.787,23.251 163.148,23.039C163.55,22.798 163.982,22.611 164.434,22.481C164.94,22.333 165.465,22.261 165.993,22.267C166.984,22.227 167.971,22.41 168.879,22.805C169.58,23.139 170.173,23.659 170.592,24.307C171.017,24.996 171.298,25.762 171.416,26.56C171.569,27.49 171.644,28.43 171.64,29.372L171.64,37.642L166.936,37.642L166.936,30.275C166.936,29.838 166.922,29.379 166.894,28.897C166.867,28.457 166.77,28.025 166.608,27.615C166.469,27.238 166.227,26.906 165.909,26.657C165.497,26.384 165.006,26.254 164.511,26.285C163.999,26.261 163.489,26.372 163.036,26.609C162.674,26.814 162.376,27.115 162.176,27.477C161.972,27.857 161.84,28.27 161.785,28.697C161.722,29.167 161.692,29.642 161.694,30.116L161.694,37.628L156.99,37.628L156.969,22.612Z" style="fill:white;fill-rule:nonzero;"></path> <path d="M180.203,15.706L187.597,15.706L192.707,29.985L192.77,29.985L197.914,15.706L205.281,15.706L205.281,37.594L200.388,37.594L200.388,20.806L200.325,20.806L194.496,37.594L190.764,37.594L185.158,20.806L185.088,20.806L185.088,37.594L180.203,37.594L180.203,15.706Z" style="fill:rgb(0,176,178);fill-rule:nonzero;"></path> <path d="M213.333,30.082C213.287,31.093 213.643,32.082 214.325,32.838C215.086,33.513 216.073,33.886 217.096,33.886C218.12,33.886 219.107,33.513 219.868,32.838C220.553,32.084 220.909,31.093 220.86,30.082C220.909,29.07 220.553,28.08 219.868,27.325C219.109,26.646 218.121,26.27 217.096,26.27C216.072,26.27 215.084,26.646 214.325,27.325C213.643,28.082 213.287,29.071 213.333,30.082ZM208.629,30.082C208.613,28.966 208.84,27.859 209.293,26.836C209.713,25.893 210.327,25.046 211.096,24.348C211.88,23.659 212.794,23.13 213.787,22.791C215.929,22.046 218.264,22.046 220.406,22.791C221.402,23.142 222.319,23.683 223.104,24.383C223.873,25.079 224.485,25.926 224.9,26.87C225.334,27.899 225.557,29.002 225.557,30.116C225.557,31.23 225.334,32.333 224.9,33.362C224.485,34.306 223.873,35.154 223.104,35.85C222.319,36.55 221.402,37.091 220.406,37.442C218.264,38.187 215.929,38.187 213.787,37.442C212.792,37.092 211.877,36.551 211.096,35.85C210.327,35.152 209.713,34.305 209.293,33.362C208.84,32.339 208.614,31.232 208.629,30.116" style="fill:rgb(0,176,178);fill-rule:nonzero;"></path> <path d="M228.318,22.57L232.833,22.57L232.833,24.637L232.896,24.637C233.063,24.32 233.275,24.028 233.525,23.769C233.813,23.471 234.14,23.211 234.496,22.997C234.898,22.756 235.33,22.571 235.782,22.446C236.29,22.296 236.818,22.222 237.348,22.225C238.34,22.185 239.328,22.371 240.235,22.77C240.933,23.103 241.523,23.621 241.94,24.265C242.366,24.957 242.649,25.725 242.772,26.526C242.923,27.455 242.995,28.396 242.989,29.337L242.989,37.607L238.299,37.607L238.299,30.233C238.299,29.806 238.299,29.351 238.25,28.89C238.222,28.45 238.126,28.018 237.963,27.608C237.825,27.23 237.583,26.898 237.264,26.65C236.854,26.375 236.361,26.244 235.866,26.278C235.355,26.257 234.846,26.369 234.392,26.602C234.029,26.809 233.729,27.109 233.525,27.47C233.321,27.85 233.188,28.263 233.133,28.69C233.074,29.161 233.044,29.635 233.043,30.109L233.043,37.594L228.339,37.594L228.318,22.57Z" style="fill:rgb(0,176,178);fill-rule:nonzero;"></path> <path d="M256.751,28.38C256.769,28.01 256.708,27.641 256.573,27.296C256.439,26.951 256.233,26.637 255.968,26.374C255.697,26.098 255.371,25.88 255.01,25.735C254.649,25.59 254.261,25.522 253.871,25.533C253.393,25.525 252.917,25.611 252.473,25.788C252.101,25.937 251.758,26.15 251.46,26.416C251.182,26.667 250.958,26.972 250.803,27.312C250.644,27.647 250.551,28.01 250.53,28.38L256.751,28.38ZM260.735,34.996C259.977,35.948 258.993,36.7 257.869,37.187C256.751,37.692 255.535,37.953 254.305,37.952C253.18,37.96 252.063,37.771 251.006,37.394C250.008,37.044 249.091,36.503 248.308,35.802C247.534,35.108 246.92,34.26 246.504,33.314C246.071,32.285 245.847,31.182 245.847,30.068C245.847,28.954 246.071,27.851 246.504,26.822C246.92,25.876 247.534,25.028 248.308,24.334C249.096,23.65 250.012,23.126 251.006,22.791C252.063,22.414 253.18,22.225 254.305,22.232C255.321,22.218 256.329,22.408 257.268,22.791C258.133,23.146 258.905,23.69 259.526,24.383C260.154,25.113 260.629,25.958 260.924,26.87C261.272,27.918 261.442,29.014 261.427,30.116L261.427,31.57L250.544,31.57C250.696,32.392 251.127,33.139 251.767,33.686C252.419,34.216 253.244,34.495 254.088,34.472C254.779,34.495 255.462,34.318 256.052,33.962C256.595,33.613 257.069,33.169 257.45,32.652L260.735,34.996Z" style="fill:rgb(0,176,178);fill-rule:nonzero;"></path> <path d="M273.085,40.02C272.771,40.826 272.47,41.536 272.177,42.149C271.909,42.735 271.532,43.265 271.065,43.714C270.577,44.159 269.991,44.487 269.353,44.672C268.466,44.915 267.547,45.024 266.627,44.996C265.439,44.997 264.259,44.809 263.132,44.437L263.754,40.64C264.447,40.945 265.197,41.102 265.956,41.102C266.389,41.115 266.821,41.057 267.235,40.93C267.547,40.833 267.832,40.665 268.067,40.44C268.297,40.21 268.483,39.942 268.619,39.648C268.766,39.338 268.92,38.959 269.087,38.566L269.437,37.704L262.755,22.543L267.836,22.543L271.75,32.467L271.813,32.467L275.168,22.543L279.998,22.543L273.085,40.02Z" style="fill:rgb(0,176,178);fill-rule:nonzero;"></path> </svg> 