<?xml version="1.0" encoding="UTF-8" standalone="no"?> <svg xmlns="http://www.w3.org/2000/svg" xmlns:xlink="http://www.w3.org/1999/xlink" xmlns:serif="http://www.serif.com/" width="100%" height="100%" viewBox="0 0 81 69" version="1.1" xml:space="preserve" style="fill-rule:evenodd;clip-rule:evenodd;stroke-linejoin:round;stroke-miterlimit:2;"> <g transform="matrix(1,0,0,1,-0.795,-0.557166)"> <path d="M78.155,25.082C78.435,12.182 68.735,1.512 56.505,1.252C49.915,1.112 43.945,6.572 39.785,11.302C35.835,6.402 29.985,0.712 23.435,0.562C11.205,0.302 1.065,10.562 0.795,23.462L0.795,24.582C1.176,29.463 3.307,34.046 6.795,37.482L37.985,68.572L70.435,41.002C73.288,38.583 75.431,35.433 76.635,31.892C77.455,29.702 77.975,27.412 78.155,25.082Z" style="fill:rgb(142,228,175);fill-rule:nonzero;"></path> <path d="M61.975,64.692C72.7,64.692 81.395,55.997 81.395,45.272C81.395,34.547 72.7,25.852 61.975,25.852C51.25,25.852 42.555,34.547 42.555,45.272C42.555,55.997 51.25,64.692 61.975,64.692Z" style="fill:rgb(0,176,178);fill-rule:nonzero;"></path> <path d="M72.214,42.632L65.334,42.632L65.334,36.552C65.334,34.967 64.029,33.662 62.444,33.662C60.859,33.662 59.554,34.967 59.554,36.552L59.554,42.632L52.614,42.632C51.014,42.722 49.794,44.102 49.894,45.702C49.984,47.172 51.154,48.342 52.614,48.422L59.554,48.422L59.554,54.062C59.554,55.647 60.859,56.952 62.444,56.952C64.029,56.952 65.334,55.647 65.334,54.062L65.334,48.422L72.214,48.422C73.814,48.332 75.034,46.952 74.934,45.352C74.844,43.882 73.674,42.712 72.214,42.632Z" style="fill:white;fill-rule:nonzero;"></path> </g> </svg> 