<?xml version="1.0" encoding="UTF-8" standalone="no"?> <svg xmlns="http://www.w3.org/2000/svg" xmlns:xlink="http://www.w3.org/1999/xlink" xmlns:serif="http://www.serif.com/" width="100%" height="100%" viewBox="0 0 120 72" version="1.1" xml:space="preserve" style="fill-rule:evenodd;clip-rule:evenodd;stroke-linejoin:round;stroke-miterlimit:2;"> <g transform="matrix(1,0,0,1,-0.992,-0.97898)"> <path d="M9.86,64.329L9.86,4.635C9.86,4.616 9.86,4.598 9.86,4.579C9.86,2.604 11.485,0.979 13.46,0.979C13.46,0.979 13.461,0.979 13.461,0.979L108.546,0.979C108.55,0.979 108.554,0.979 108.558,0.979C110.527,0.979 112.148,2.6 112.148,4.569C112.148,4.576 112.148,4.584 112.148,4.591L112.148,64.284L9.86,64.329ZM120.992,66.146C120.987,69.441 118.277,72.151 114.982,72.156L7.013,72.156C3.714,72.157 0.997,69.445 0.992,66.146L0.992,64.373L120.992,64.373L120.992,66.146Z" style="fill:rgb(0,176,178);fill-rule:nonzero;"></path> <path d="M73.844,64.887C73.844,64.905 73.845,64.923 73.845,64.941C73.845,66.142 72.856,67.131 71.655,67.131L50.374,67.131C49.173,67.131 48.184,66.142 48.184,64.941C48.184,64.923 48.185,64.905 48.185,64.887L48.185,64.329L73.845,64.329L73.845,64.887L73.844,64.887Z" style="fill:rgb(238,238,238);fill-rule:nonzero;"></path> <rect x="16.471" y="7.645" width="89.042" height="50.071" style="fill:white;fill-rule:nonzero;"></rect> <rect x="26.729" y="23.212" width="34.264" height="2.978" style="fill:rgb(0,100,102);fill-rule:nonzero;"></rect> <rect x="26.729" y="29.178" width="34.264" height="2.978" style="fill:rgb(0,176,178);fill-rule:nonzero;"></rect> <rect x="26.729" y="35.144" width="34.264" height="2.989" style="fill:rgb(37,178,74);fill-rule:nonzero;"></rect> <rect x="26.729" y="41.11" width="34.264" height="2.989" style="fill:rgb(254,98,29);fill-rule:nonzero;"></rect> <path d="M96.504,32.725C96.48,41.346 89.471,48.316 80.85,48.291C72.229,48.266 65.259,41.258 65.284,32.637C65.309,24.016 72.317,17.046 80.938,17.07C89.483,17.089 96.504,24.125 96.504,32.67C96.504,32.688 96.504,32.725 96.504,32.725Z" style="fill:rgb(37,178,74);fill-rule:nonzero;"></path> <path d="M78.08,40.705L71.205,33.83L73.493,31.542L78.08,36.118L88.392,25.806L90.68,28.094L78.08,40.705Z" style="fill:white;fill-rule:nonzero;"></path> </g> </svg> 