<?xml version="1.0" encoding="UTF-8" standalone="no"?> <svg xmlns="http://www.w3.org/2000/svg" xmlns:xlink="http://www.w3.org/1999/xlink" xmlns:serif="http://www.serif.com/" width="100%" height="100%" viewBox="0 0 250 63" version="1.1" xml:space="preserve" style="fill-rule:evenodd;clip-rule:evenodd;stroke-linejoin:round;stroke-miterlimit:2;"> <g> <path d="M9.003,2.253L21.061,2.253L31.27,24.762L41.801,2.253L53.859,2.253L61.817,60.131L46.383,60.131L43.007,36.337L42.846,36.337L31.27,60.534L19.695,36.337L19.534,36.337L16.158,60.131L0.724,60.131L9.003,2.253Z" style="fill:white;fill-rule:nonzero;"></path> <path d="M66.962,2.253L97.991,2.253L100.322,17.526L82.075,17.526L82.075,23.555L93.971,23.555L93.971,38.828L82.075,38.828L82.075,44.857L102.332,44.857L98.394,60.13L66.962,60.13L66.962,2.253Z" style="fill:white;fill-rule:nonzero;"></path> <path d="M104.181,2.253L139.872,2.253L141.399,16.883L129.582,16.883L129.582,60.131L114.47,60.131L114.47,16.884L102.654,16.884L104.181,2.253Z" style="fill:white;fill-rule:nonzero;"></path> <path d="M145.74,2.253L165.595,2.253C171.544,2.253 176.273,3.848 179.783,7.036C183.293,10.225 185.049,14.821 185.049,20.823C185.049,26.825 182.422,31.568 177.171,35.052L188.264,60.133L171.222,60.133L161.013,36.258L160.853,36.258L160.853,60.133L145.74,60.133L145.74,2.253ZM160.853,29.424C163.799,29.424 166.05,28.862 167.605,27.736C169.159,26.611 169.936,24.789 169.936,22.27C169.936,19.751 169.159,17.929 167.605,16.804C166.05,15.679 163.799,15.116 160.853,15.116L160.853,29.424Z" style="fill:white;fill-rule:nonzero;"></path> <path d="M246.141,42.929C244.586,46.627 242.43,49.882 239.67,52.696C236.909,55.51 233.722,57.694 230.104,59.248C226.487,60.802 222.695,61.579 218.73,61.579C214.763,61.579 210.972,60.802 207.355,59.248C203.738,57.694 200.548,55.51 197.79,52.696C195.029,49.883 192.872,46.627 191.318,42.929C189.763,39.231 188.987,35.32 188.987,31.192C188.987,27.066 189.763,23.153 191.318,19.456C192.872,15.758 195.029,12.502 197.79,9.689C200.549,6.876 203.738,4.692 207.355,3.138C210.972,1.584 214.763,0.806 218.73,0.806C222.695,0.806 226.487,1.584 230.104,3.138C233.722,4.693 236.91,6.876 239.67,9.689C242.43,12.502 244.586,15.758 246.141,19.456C247.695,23.154 248.472,27.066 248.472,31.192C248.472,35.32 247.695,39.231 246.141,42.929ZM231.954,25.605C231.23,23.81 230.198,22.216 228.858,20.822C227.518,19.429 225.977,18.343 224.236,17.566C222.494,16.79 220.659,16.4 218.73,16.4C216.8,16.4 214.964,16.775 213.223,17.525C211.481,18.276 209.953,19.334 208.641,20.7C207.328,22.066 206.296,23.648 205.546,25.443C204.795,27.239 204.421,29.154 204.421,31.191C204.421,33.174 204.795,35.077 205.546,36.899C206.296,38.722 207.327,40.316 208.641,41.682C209.953,43.049 211.481,44.107 213.223,44.857C214.964,45.608 216.8,45.982 218.73,45.982C220.659,45.982 222.494,45.594 224.236,44.816C225.977,44.04 227.518,42.954 228.858,41.56C230.198,40.167 231.23,38.573 231.954,36.777C232.677,34.982 233.039,33.119 233.039,31.19C233.039,29.261 232.676,27.402 231.954,25.605Z" style="fill:white;fill-rule:nonzero;"></path> </g> </svg> 