<?xml version="1.0" encoding="UTF-8" standalone="no"?> <svg xmlns="http://www.w3.org/2000/svg" xmlns:xlink="http://www.w3.org/1999/xlink" xmlns:serif="http://www.serif.com/" width="100%" height="100%" viewBox="0 0 300 97" version="1.1" xml:space="preserve" style="fill-rule:evenodd;clip-rule:evenodd;stroke-linejoin:round;stroke-miterlimit:2;"> <g transform="matrix(1,0,0,1,0,-3)"> <g transform="matrix(1,0,0,1,0,3)"> <path d="M0,70.8C0,51.3 13,44.4 27.3,44.4C33.4,44.4 39.3,45.4 42.4,46.7L42.7,60.3L41.3,60.3L33,47.2C31.5,46.5 30.2,46.3 27.6,46.3C20,46.3 16.1,55.1 16.2,69.6C16.3,86.9 19.3,94.7 26.4,94.7C28.2,94.7 29.6,94.5 30.6,94L30.6,75.5L25.9,72.8L25.9,71.3L48.4,71.3L48.4,73L43.8,75.5L43.8,93.8C38.344,95.742 32.592,96.723 26.8,96.7C10.5,96.7 0,89 0,70.8Z" style="fill:white;fill-rule:nonzero;"></path> </g> <g transform="matrix(1,0,0,1,0,3)"> <path d="M142.8,57.9L144,58L144,69L144.3,69C145.9,61 149.5,58 153.8,58C154.5,58 155.3,58 155.7,58.2L155.7,69.4C155,69.2 153.7,69.2 152.6,69.2C149.2,69.2 146.6,69.8 144.4,70.8L144.4,92.5L147.8,94.4L147.8,95.8L128.3,95.8L128.3,94.4L131.8,92.4L131.8,63L127.7,61.8L127.7,60.8L142.7,58L142.8,57.9Z" style="fill:white;fill-rule:nonzero;"></path> </g> <g transform="matrix(1,0,0,1,0,3)"> <path d="M110.2,74L110.2,69.1C110.2,61.7 108.6,59.2 104,59.2L102.4,59.4L94.2,70.4L93.1,70.4L93.1,60.3C96.6,59.2 101,57.9 106.8,57.9C116.8,57.9 122.6,60.7 122.6,69L122.6,93L126.2,94L126.2,95C124.8,95.8 122,96.6 118.9,96.6C113.9,96.6 111.6,95 110.5,92.3L110.1,92.3C108.1,95.1 105.1,96.7 100.4,96.7C94.4,96.7 90.4,93 90.4,86.7C90.4,80.4 94.2,77 102,75.5L110.1,73.9L110.2,74ZM110.2,90.6L110.2,75.8L107.7,76C103.7,76.3 102.4,78.8 102.4,84.3C102.4,90.3 104.4,91.9 107.1,91.9C108.6,91.9 109.5,91.4 110.2,90.6Z" style="fill:white;fill-rule:nonzero;"></path> </g> <g transform="matrix(1,0,0,1,0,3)"> <path d="M47.5,61.7L47.5,60.6L62.5,57.9L64.2,58.1L64.2,87.7C64.2,91.3 65.9,92.4 68.8,92.4C70.7,92.4 72.4,91.7 73.7,90.1L73.7,63.5L69.6,61.7L69.6,60.6L84.6,57.9L86.2,58L86.2,92L90.2,93.7L90.2,94.7L75.3,96.6L73.8,96.5L73.8,92L73.4,92C70.359,94.931 66.322,96.61 62.1,96.7C54.9,96.7 51.6,92.5 51.6,86L51.6,63.5L47.5,61.7Z" style="fill:white;fill-rule:nonzero;"></path> </g> <g transform="matrix(1,0,0,1,0,3)"> <path d="M261.5,92.5L261.5,63L257.3,61.6L257.3,60.1L272.3,57.4L273.8,57.4L273.8,62L274.3,62C277.5,59.1 282.3,57.3 287.1,57.3C293.6,57.3 296.5,60.3 296.5,67.3L296.5,92.4L300,94.4L300,95.8L280.5,95.8L280.5,94.4L284,92.4L284,68C284,64.2 282.3,62.7 279.2,62.7C277.2,62.7 275.6,63.2 274.1,64.3L274.1,92.6L277.5,94.5L277.5,95.9L257.9,95.9L257.9,94.5L261.5,92.5Z" style="fill:white;fill-rule:nonzero;"></path> </g> <g transform="matrix(1,0,0,1,0,3)"> <path d="M214,57.8L215.4,58L215.4,92.5L218.8,94.4L218.8,95.8L199.3,95.8L199.3,94.4L202.8,92.4L202.8,63.4L198.6,61.8L198.6,60.6L214.1,57.8L214,57.8ZM215.5,48.5C215.5,52.2 212.4,54.9 208.8,54.9C208.733,54.902 208.667,54.903 208.6,54.903C205.089,54.903 202.2,52.014 202.2,48.503C202.2,48.502 202.2,48.501 202.2,48.5C202.2,44.9 205.1,42.1 208.8,42.1C212.4,42.1 215.5,44.9 215.5,48.5Z" style="fill:white;fill-rule:nonzero;"></path> </g> <g transform="matrix(1,0,0,1,0,3)"> <path d="M239.8,74L239.8,69.1C239.8,61.7 238.1,59.2 233.6,59.2L232,59.4L223.8,70.4L222.7,70.4L222.7,60.3C226.2,59.2 230.6,57.9 236.4,57.9C246.4,57.9 252.2,60.7 252.2,69L252.2,93L255.8,94L255.8,95C254.4,95.8 251.6,96.6 248.4,96.6C243.4,96.6 241.1,95 240,92.3L239.7,92.3C237.7,95.1 234.7,96.7 230,96.7C224,96.7 220,93 220,86.7C220,80.4 223.8,77.1 231.7,75.6L239.7,74L239.8,74ZM239.8,90.6L239.8,75.8L237.3,76C233.3,76.3 231.9,78.8 231.9,84.3C231.9,90.3 233.9,91.9 236.7,91.9C238.2,91.9 239.1,91.4 239.7,90.6L239.8,90.6Z" style="fill:white;fill-rule:nonzero;"></path> </g> <g transform="matrix(1,0,0,1,0,3)"> <path d="M180.6,58.8L180.6,47.2L176.5,45.8L176.5,44.8L191.7,42.1L193.2,42.3L193.2,92L197.4,93.5L197.4,94.8L182.4,96.8L181.2,96.6L181.2,92.6L180.8,92.6C178.191,95.309 174.559,96.798 170.8,96.7C162.7,96.7 156.7,90.5 156.7,77.7C156.7,64.2 163.7,57.7 174.2,57.7C177.2,57.7 179.5,58.2 180.6,58.8ZM180.6,90.7L180.6,61C179.6,60.4 178.9,59.6 176.4,59.7C172.4,59.9 169.8,66 169.8,76.9C169.8,86.7 171.7,92.2 177.1,92C178.6,92 179.8,91.4 180.6,90.7Z" style="fill:white;fill-rule:nonzero;"></path> </g> <g transform="matrix(1,0,0,1,0,3)"> <path d="M68.1,51.6L73.3,48.9L73.3,8.5L69.3,8.5L60,21.1L58.9,21.1L59.5,7.1L100.8,7.1L101.4,21.1L100,21.1L90.8,8.5L86.8,8.5L86.8,48.8L92,51.5L92,53L68.1,53L68.1,51.6Z" style="fill:white;fill-rule:nonzero;"></path> </g> <g transform="matrix(1,0,0,1,0,3)"> <path d="M105.4,49.8L105.4,5L101.4,3.4L101.4,2.6L115.9,0L117.4,0L117.4,21.2L117.8,20.8C121,18 125.6,16.3 130.2,16.3C136.5,16.3 139.3,19.8 139.3,26.5L139.3,49.8L142.7,51.6L142.7,53L123.8,53L123.8,51.6L127.2,49.8L127.2,26.4C127.2,22.7 125.6,21.3 122.6,21.3C120.801,21.256 119.039,21.82 117.6,22.9L117.6,49.9L120.9,51.7L120.9,53L101.9,53L101.9,51.7L105.4,49.7L105.4,49.8Z" style="fill:white;fill-rule:nonzero;"></path> </g> <g transform="matrix(1,0,0,1,0,3)"> <path d="M153.7,36C154.1,43.4 157.4,49.1 165.3,49.1C169.1,49.1 171.8,47.4 174.3,46.1L174.3,47.5C172.4,50.2 167.4,54 160.5,54C148.3,54 142,47.2 142,35.5C142,24 148.8,16.9 159.9,16.9C170.2,16.9 175.6,22.1 175.6,35.7L175.6,36L153.7,36ZM153.5,34.3L164.3,33.7C164.3,24.5 162.7,18.4 159.5,18.4C156.2,18.4 153.5,25.4 153.5,34.4L153.5,34.3Z" style="fill:white;fill-rule:nonzero;"></path> </g> </g> </svg> 