<?xml version="1.0" encoding="UTF-8" standalone="no"?> <svg xmlns="http://www.w3.org/2000/svg" xmlns:xlink="http://www.w3.org/1999/xlink" xmlns:serif="http://www.serif.com/" width="100%" height="100%" viewBox="0 0 83 75" version="1.1" xml:space="preserve" style="fill-rule:evenodd;clip-rule:evenodd;stroke-linejoin:round;stroke-miterlimit:2;"> <g transform="matrix(1,0,0,1,-0.282,-0.0724667)"> <path d="M82.726,31.75C82.726,30.227 82.117,28.775 81.041,27.699L81.031,27.699C79.955,26.613 78.493,26.004 76.97,26.004L52.267,26.004L52.876,24.501C54.957,19.343 56.024,13.82 56.024,8.256L56.024,5.829C56.024,4.296 55.415,2.824 54.328,1.748C52.064,-0.496 48.409,-0.486 46.155,1.778C45.089,2.854 44.49,4.296 44.48,5.809L44.48,5.22C44.48,8.093 43.901,10.926 42.795,13.576C41.709,16.236 40.105,18.652 38.064,20.683C34.582,24.115 29.891,26.044 24.997,26.044L22.185,26.044L22.185,72.24L50.248,72.24L50.248,72.159L67.275,72.159C70.463,72.159 73.032,69.56 73.032,66.382C73.032,64.859 72.423,63.397 71.336,62.311L71.356,62.311C70.381,61.326 69.072,60.758 67.691,60.656L70.473,60.656C73.63,60.643 76.22,58.043 76.22,54.886C76.22,54.874 76.22,54.861 76.22,54.849C76.22,53.326 75.611,51.874 74.535,50.798L74.565,50.798C73.509,49.742 72.088,49.143 70.605,49.113L73.681,49.113C76.869,49.113 79.438,46.514 79.438,43.336C79.438,41.813 78.829,40.351 77.743,39.265L77.763,39.265C76.687,38.168 75.225,37.559 73.702,37.559L76.981,37.559C80.138,37.546 82.728,34.946 82.728,31.789C82.728,31.777 82.728,31.764 82.728,31.752L82.726,31.75Z" style="fill:white;fill-rule:nonzero;"></path> <path d="M22.183,25.983C22.183,24.399 20.893,23.12 19.31,23.13L3.156,23.13C2.395,23.13 1.664,23.424 1.125,23.962C0.586,24.5 0.282,25.231 0.282,25.993L0.282,72.189C0.282,73.773 1.561,75.052 3.145,75.062L19.31,75.062C20.885,75.058 22.179,73.764 22.183,72.189L22.183,25.983Z" style="fill:rgb(37,178,74);fill-rule:nonzero;"></path> <path d="M13.918,66.422C13.918,67.904 12.71,69.113 11.227,69.113C9.744,69.113 8.537,67.905 8.537,66.423C8.537,64.941 9.745,63.732 11.227,63.732C12.697,63.732 13.907,64.942 13.907,66.412L13.917,66.422L13.918,66.422Z" style="fill:white;fill-rule:nonzero;"></path> </g> </svg> 