<?xml version="1.0" encoding="UTF-8" standalone="no"?> <svg xmlns="http://www.w3.org/2000/svg" xmlns:xlink="http://www.w3.org/1999/xlink" xmlns:serif="http://www.serif.com/" width="100%" height="100%" viewBox="0 0 2280 372" version="1.1" xml:space="preserve" style="fill-rule:evenodd;clip-rule:evenodd;stroke-linejoin:round;stroke-miterlimit:2;"> <g transform="matrix(1,0,0,1,-110.299,-1064.25)"> <path d="M1265.8,1270.63L1270.87,1274.43C1270.23,1268.74 1271.19,1259.21 1271.19,1259.21C1267.37,1261.74 1266.43,1266.5 1266.43,1266.5L1261.04,1267.13L1265.8,1270.63ZM1473.66,1311.87C1473.03,1310.6 1472.07,1309.66 1470.47,1309.66C1468.9,1309.66 1467.31,1311.23 1467.31,1313.46C1467.31,1315.69 1468.9,1317.26 1470.47,1317.26C1472.37,1317.26 1473.98,1315.69 1473.98,1313.46C1473.96,1312.84 1473.66,1312.5 1473.66,1311.87ZM1473.53,1296.98C1473.61,1297.25 1473.66,1297.59 1473.66,1297.91C1473.63,1299.52 1472.62,1300.95 1471.11,1301.5L1471.11,1306.18C1472.88,1306.36 1474.5,1307.27 1475.57,1308.69C1476.59,1310.06 1477.14,1311.73 1477.14,1313.45C1477.14,1316.87 1475.19,1319.63 1472.35,1320.49C1480.19,1319.88 1485.09,1319.17 1485.09,1319.17C1477.46,1317.57 1481.9,1313.14 1481.9,1313.14C1485.4,1310.27 1492.06,1308.04 1492.06,1308.04C1484.13,1307.08 1479.69,1300.75 1477.76,1296.95L1473.53,1296.95L1473.53,1296.98ZM1469.54,1320.68C1466.5,1320.18 1464.14,1317.21 1464.14,1313.46C1464.14,1309.87 1466.32,1306.98 1469.21,1306.32L1469.21,1301.66C1467.44,1301.38 1466.03,1299.99 1465.74,1298.21L1465.71,1298.24C1462.55,1299.17 1459.68,1299.17 1459.68,1299.17C1459.05,1300.76 1460.32,1301.4 1460.32,1301.4C1466.98,1306.16 1462.55,1310.6 1462.55,1310.6C1459.38,1313.46 1457.79,1313.46 1457.79,1313.46C1454.62,1314.42 1447,1321.09 1447,1321.09C1455.48,1321.35 1463.25,1321.09 1469.54,1320.68ZM1382.58,1291.26C1383.15,1291.26 1383.71,1291.08 1384.17,1290.75L1390.5,1293.49C1390.5,1295.38 1391.77,1296.99 1393.37,1296.99C1394.35,1296.99 1395.22,1296.35 1395.73,1295.45L1401.1,1296.24C1401.45,1297.83 1402.54,1298.9 1403.83,1298.9C1405.3,1298.9 1406.78,1297.55 1406.97,1295.6L1411.46,1293.48C1411.99,1294.27 1412.78,1294.77 1413.69,1294.77C1415.26,1294.77 1416.86,1293.18 1416.86,1291.27L1419.72,1286.54C1425.12,1286.95 1430.54,1286.85 1435.91,1286.21C1444.47,1281.75 1451.46,1279.22 1451.46,1279.22C1448.9,1281.11 1446.36,1282.72 1444.77,1284.62C1443.17,1286.2 1441.69,1287.9 1440.33,1289.69C1438,1291.37 1436.68,1294.13 1436.83,1297C1437.07,1298.81 1437.72,1300.55 1438.72,1302.07C1440.32,1303.97 1442.55,1304.94 1442.55,1304.94L1446.05,1308.11C1443.18,1310.34 1436.83,1311.9 1436.83,1311.9C1433.33,1313.2 1428.59,1310.97 1428.59,1310.97C1417.48,1308.44 1413.68,1313.5 1413.68,1313.5C1411.45,1316.03 1407.32,1316.37 1407.32,1316.37L1409.22,1319.23C1405.09,1320.5 1402.89,1318.91 1402.89,1318.91C1402.56,1313.51 1405.42,1308.12 1405.42,1308.12C1404.15,1299.56 1386.36,1301.13 1386.36,1301.13L1381.94,1296.98L1380.98,1296.02L1370.83,1286.5C1370.83,1289.36 1369.56,1293.49 1367.99,1296.99C1366.71,1299.83 1365.12,1302.38 1365.12,1302.38L1361.32,1300.46C1362.04,1299.41 1362.57,1298.23 1362.89,1296.99C1366.05,1289.36 1368.28,1278.57 1368.28,1278.57C1370.18,1278.57 1371.79,1278.9 1373.04,1279.21C1374,1279.84 1374.64,1280.17 1374.64,1280.17C1375.38,1280.52 1376.18,1280.86 1377.05,1281.2L1380.55,1286.17C1380.22,1286.76 1380.05,1287.42 1380.05,1288.09C1380.04,1289.99 1380.98,1291.26 1382.58,1291.26ZM1418.01,1286.32L1416.16,1288.95C1415.64,1288.06 1414.7,1287.5 1413.68,1287.46C1412.08,1287.46 1410.81,1289.03 1410.81,1291.26C1410.81,1291.56 1410.84,1291.87 1410.92,1292.14L1406.87,1294.03C1406.44,1292.54 1405.14,1291.24 1403.83,1291.24C1402.27,1291.24 1400.99,1293.14 1400.99,1295.04L1396.16,1294.21C1396.21,1293.97 1396.23,1293.72 1396.23,1293.48C1396.23,1291.58 1394.94,1289.65 1393.37,1289.65C1392.17,1289.65 1391.19,1290.71 1390.76,1292.04L1385.16,1289.51C1385.35,1289.06 1385.44,1288.58 1385.43,1288.09C1385.43,1286.5 1384.16,1284.93 1382.56,1284.93C1382.31,1284.92 1382.06,1284.96 1381.83,1285.06L1380.33,1282.37L1380.31,1282.37C1388.39,1285.01 1398.41,1286.83 1398.41,1286.83L1405.4,1286.83L1407.63,1283.33C1410.51,1284.94 1414.24,1285.86 1418.01,1286.32ZM1380.4,1232.13C1380.66,1232.45 1380.9,1232.75 1381.16,1233.02L1380.76,1233.74C1380.55,1233.6 1380.3,1233.52 1380.05,1233.5C1378.78,1233.5 1377.82,1234.77 1377.82,1236.05L1377.52,1235.73L1374.96,1232.87L1374.03,1231.92L1368.31,1225.89C1361.64,1217.01 1351.49,1225.89 1351.49,1225.89L1349.92,1224.62C1355.29,1221.44 1350.56,1217.32 1350.56,1217.32L1361.02,1190.34L1358.15,1186.85C1363.25,1176.37 1352.46,1176.06 1352.46,1176.06C1349.27,1166.54 1343.56,1170.99 1343.56,1170.99C1341.67,1161.78 1334.67,1166.54 1334.67,1166.54C1332.14,1160.2 1326.11,1164 1326.11,1164L1326.4,1149.08L1319.44,1149.39L1311.81,1149.08L1312.45,1164.31C1304.85,1160.51 1303.55,1168.12 1303.55,1168.12C1294.68,1163.04 1294.68,1172.88 1294.68,1172.88C1287.37,1170.65 1287.69,1177.64 1287.69,1177.64C1277.86,1178.59 1279.13,1187.16 1279.13,1187.16L1286.73,1213.18C1284.84,1217.94 1262.31,1245.55 1262.31,1245.55L1252.78,1242.7L1252.14,1241.12C1254.36,1242.39 1255.95,1241.75 1255.95,1241.75C1255.01,1238.57 1256.26,1232.23 1256.26,1232.23C1259.13,1219.86 1254.05,1215.41 1254.05,1215.41C1254.36,1210.33 1250.87,1204.31 1250.87,1204.31C1255.63,1198.28 1248.65,1192.25 1248.65,1192.25L1247.69,1190.65L1247.38,1177.64C1246.11,1177.64 1245.47,1176.05 1245.47,1176.05C1243.57,1170.65 1240.08,1174.15 1240.08,1174.15C1237.54,1168.45 1233.41,1172.88 1233.41,1172.88C1229.91,1168.12 1226.42,1172.88 1226.42,1172.88L1223.57,1163.67L1214.05,1167.47L1217.23,1177.63C1210.24,1176.03 1212.47,1183.02 1212.47,1183.02C1206.43,1183.34 1209.29,1188.73 1209.29,1188.73C1203.58,1189.37 1205.8,1195.72 1205.8,1195.72L1212.14,1206.19C1207.06,1211.89 1211.83,1215.71 1211.83,1215.71C1213.42,1218.57 1215.33,1218.57 1215.33,1218.57C1212.47,1227.15 1216.28,1236.03 1216.28,1236.03C1212.15,1240.79 1206.12,1244.59 1200.73,1247.44C1192.8,1251.26 1185.81,1253.16 1185.81,1253.16C1173.43,1256.03 1149,1263.95 1149,1263.95C1140.43,1266.16 1126.79,1270.29 1126.79,1270.29C1109.65,1275.38 1105.21,1269.99 1105.21,1269.99C1101.08,1267.43 1104.26,1260.77 1104.26,1260.77C1108.38,1252.52 1116.96,1250.61 1116.96,1250.61C1122.99,1254.44 1125.2,1256.64 1125.2,1256.64C1129.01,1260.47 1135.68,1260.14 1135.68,1260.14L1136,1258.87C1138.85,1259.2 1140.76,1258.24 1140.76,1258.24C1138.85,1256.34 1138.85,1254.11 1138.85,1254.11C1138.85,1252.53 1136.63,1250 1136.63,1250L1180.74,1248.09C1182.34,1247.8 1183.6,1247.8 1184.87,1247.46C1200.09,1244.61 1203.59,1241.12 1203.59,1241.12C1214.06,1232.85 1209.62,1219.21 1209.62,1219.21C1203.9,1205.89 1192.8,1205.24 1192.8,1205.24C1184.23,1203.02 1177.89,1204.3 1177.89,1204.3C1173.13,1204.62 1163.3,1202.08 1163.3,1202.08C1162.97,1203.97 1167.1,1210 1167.1,1210C1164.22,1210.26 1161.37,1209.35 1159.17,1207.47C1154.09,1202.71 1145.84,1204.93 1145.84,1204.93C1147.11,1207.47 1154.74,1213.83 1154.74,1213.83C1150.29,1214.14 1138.24,1209.07 1138.24,1209.07C1140.46,1219.55 1152.52,1226.84 1152.52,1226.84C1166.8,1232.87 1179.17,1226.53 1179.17,1226.53C1185.2,1222.73 1191.23,1220.49 1191.23,1220.49C1192.13,1220.08 1193.11,1219.87 1194.1,1219.87C1197.2,1219.87 1199.93,1221.96 1200.75,1224.94C1200.12,1235.73 1192.18,1236.05 1192.18,1236.05C1169.33,1240.8 1138.86,1237.63 1138.86,1237.63C1141.08,1234.77 1141.4,1227.47 1141.4,1227.47L1138.86,1228.11C1125.54,1226.84 1122.04,1229.7 1122.04,1229.7C1117.28,1232.56 1115.06,1238.59 1115.06,1238.59C1109.03,1241.13 1104.27,1244.29 1100.77,1247.47C1091.89,1256.06 1090.94,1265.56 1090.94,1265.56C1090.3,1276.99 1096.65,1278.59 1096.65,1278.59C1090.94,1289.67 1099.5,1293.81 1099.5,1293.81C1103.31,1290.97 1104.89,1287.78 1104.89,1287.78C1112.51,1282.09 1134.73,1277.31 1134.73,1277.31C1130.28,1280.82 1127.73,1291.27 1127.73,1291.27C1123.93,1292.54 1117.58,1290.31 1117.58,1290.31C1114.09,1290.01 1114.09,1292.87 1114.09,1292.87L1112.5,1296.66L1110.28,1303.66C1096.63,1303.02 1098.54,1310.94 1098.54,1310.94L1096.63,1332.2C1099.81,1340.13 1104.88,1338.87 1104.88,1338.87L1104.88,1330.94L1108.37,1330.94C1112.5,1339.5 1118.85,1341.41 1118.85,1341.41L1120.76,1341.41C1122.97,1340.78 1123.93,1343.97 1123.93,1343.97L1126.15,1344.26L1126.46,1338.87L1128.99,1338.57C1130.59,1339.21 1131.53,1341.74 1131.53,1341.74L1133.43,1341.74C1134.06,1340.46 1134.39,1336.98 1134.39,1336.98C1136.93,1335.38 1136.28,1329.69 1136.28,1329.69C1141.37,1328.73 1146.76,1330.65 1146.76,1330.65L1146.45,1335.38C1150.25,1341.74 1155.02,1342.69 1155.02,1342.69C1158.2,1343.63 1162.95,1344.26 1168.67,1344.59C1178.51,1345.22 1190.88,1344.89 1202.31,1344.59C1214.71,1343.96 1227.09,1343.01 1239.44,1341.72C1240.71,1343.62 1241.34,1343.32 1241.34,1343.32C1246.73,1345.21 1252.76,1339.49 1252.76,1339.49L1250.87,1343.32C1254.99,1342.99 1259.44,1340.13 1259.44,1340.13C1260.54,1341.64 1262.1,1342.75 1263.88,1343.32L1264.84,1342.36L1266.11,1344.25C1268.64,1342.98 1270.23,1338.56 1270.23,1338.56C1273.1,1341.09 1277.22,1340.45 1277.22,1340.45L1278.5,1342.35L1279.43,1340.75C1281.32,1342.05 1284.82,1343.62 1284.82,1343.62C1288.65,1338.86 1287.06,1331.89 1287.06,1331.89L1288.01,1333.46L1288.95,1329.66C1290.84,1331.55 1294.05,1331.55 1294.05,1331.55C1288.01,1334.08 1291.49,1338.55 1291.49,1338.55C1292.24,1339.8 1293.35,1340.79 1294.68,1341.38C1296.76,1341.13 1298.7,1342.53 1299.12,1344.58C1303.88,1346.81 1306.74,1341.71 1306.74,1341.71L1307.38,1337.91C1306.42,1335.68 1306.42,1332.19 1306.42,1332.19L1307.38,1336.31L1308.95,1337.27L1319.74,1345.83L1328.96,1338.21C1334.03,1341.71 1341.02,1341.71 1341.02,1341.71C1343.55,1341.71 1341.66,1338.55 1341.66,1338.55C1349.92,1345.21 1362.28,1343.62 1362.28,1343.62C1364.17,1342.05 1362.91,1341.09 1362.91,1341.09C1365.15,1340.13 1368.95,1343.32 1368.95,1343.32C1372.11,1345.52 1376.87,1343.62 1376.87,1343.62C1376.57,1342.05 1374.98,1341.72 1374.98,1341.72C1377.21,1341.72 1375.94,1338.56 1375.94,1338.56C1378.14,1338.86 1380.06,1341.4 1380.06,1341.4C1381.95,1343.95 1385.46,1343.32 1385.46,1343.32L1385.76,1341.72C1387.99,1343.32 1393.04,1343.62 1393.04,1343.62C1394.34,1342.35 1393.37,1340.45 1393.37,1340.45C1416.22,1347.44 1450.16,1346.14 1450.16,1346.14C1494.29,1345.85 1500.32,1337.27 1500.32,1337.27C1501.91,1335.35 1500.95,1333.15 1500.95,1333.15L1500.95,1330.62C1503.18,1329.32 1506.67,1330.3 1506.67,1330.3L1503.48,1336.96L1502.55,1339.19C1510.15,1347.75 1521.57,1338.23 1521.57,1338.23L1521.57,1335.37C1523.81,1334.43 1525.7,1331.89 1525.7,1331.89L1530.8,1333.16C1531.43,1336.03 1529.52,1339.19 1529.52,1339.19C1537.45,1341.4 1540.29,1333.16 1540.29,1333.16L1536.19,1311.88C1529.84,1304.59 1518.41,1305.85 1518.41,1305.85L1518.09,1300.45C1517.45,1298.56 1515.25,1297.29 1513.33,1296.98L1510.87,1296.1L1508.57,1296.98C1505.06,1297.28 1499.98,1297.28 1499.98,1297.28L1499.98,1296.98L1500.62,1289.66L1500.62,1281.43L1499.98,1278.56L1506.67,1279.52C1511.74,1281.72 1523.49,1281.72 1523.49,1281.72C1527.29,1283.32 1527.29,1287.12 1527.29,1287.12L1526.02,1291.58C1536.81,1290.62 1535.54,1278.56 1535.54,1278.56C1543.14,1272.2 1541.24,1255.07 1541.24,1255.07C1540.28,1250.95 1538.71,1248.4 1537.73,1247.44L1537.44,1247.15C1537.44,1236.34 1526.64,1231.58 1526.64,1231.58C1524.75,1229.99 1522.52,1229.99 1522.52,1229.99C1519.99,1229.37 1516.49,1225.23 1516.49,1225.23C1512.37,1232.84 1515.85,1238.55 1515.85,1238.55C1509.5,1237.28 1477.75,1243.63 1477.75,1243.63C1470.15,1245.54 1457.46,1241.41 1457.46,1241.41C1449.51,1236.96 1450.8,1231.26 1450.8,1231.26C1452.37,1222.05 1459.99,1223.32 1459.99,1223.32L1462.22,1223.32C1468.89,1222.05 1473.65,1224.59 1473.65,1224.59C1486.97,1230.93 1510.76,1224.59 1510.76,1224.59C1522.18,1220.14 1525.37,1205.23 1525.37,1205.23C1517.75,1212.22 1510.46,1210.95 1510.46,1210.95C1508.85,1211.27 1507.26,1211.7 1505.7,1212.22C1506.97,1206.82 1513.3,1204.28 1513.3,1204.28C1505.06,1200.79 1496.18,1206.82 1496.18,1206.82C1491.74,1211.58 1481.89,1213.17 1481.89,1213.17C1489.17,1210.31 1493,1202.38 1493,1202.38C1488.24,1205.23 1479.68,1204.59 1479.68,1204.59C1466.66,1202.05 1452.38,1213.79 1452.38,1213.79C1439.36,1225.85 1445.71,1239.18 1445.71,1239.18C1447.31,1242.98 1451.11,1245.85 1455.23,1247.43C1461.27,1250.3 1467.59,1250.93 1467.59,1250.93C1481.25,1252.52 1509.19,1249.34 1509.19,1249.34C1511.72,1248.7 1514.58,1248.7 1514.58,1248.7C1509.49,1252.52 1508.55,1261.09 1508.55,1261.09C1513.62,1259.2 1517.42,1259.2 1517.42,1259.2L1517.12,1260.47C1523.16,1259.51 1528.21,1260.47 1528.21,1260.47C1531.4,1260.77 1532.04,1257.94 1532.04,1257.94C1535.84,1263.63 1528.21,1270 1528.21,1270C1523.78,1274.43 1513.95,1270.93 1513.95,1270.93C1508.55,1268.4 1494.57,1267.43 1494.57,1267.43C1492.04,1264.27 1463.16,1258.56 1463.16,1258.56C1461.56,1255.69 1458.72,1256.96 1458.72,1256.96L1456.17,1256.64C1453.64,1250.61 1447.93,1254.11 1447.93,1254.11C1443.81,1253.48 1437.14,1249.68 1433.32,1247.44C1431.42,1246.5 1430.47,1245.55 1430.47,1245.55C1445.7,1228.73 1444.74,1210.65 1444.74,1210.65C1442.85,1184.62 1421.59,1180.5 1421.59,1180.5C1418.42,1172.88 1408.27,1172.25 1408.27,1172.25L1407.63,1173.84L1408.57,1176.06C1408.27,1177.65 1410.16,1180.51 1410.16,1180.51L1406.04,1181.45L1380.33,1166.54C1374,1164.96 1376.53,1170.34 1376.53,1170.34L1377.8,1172.25L1400.02,1189.7C1397.79,1194.14 1390.19,1199.86 1390.19,1199.86L1387.32,1200.49L1383.82,1204.3L1384.15,1209.38C1382.55,1210.65 1379.05,1210.65 1379.05,1210.65L1378.75,1213.83C1380.96,1217.01 1387.31,1217.01 1387.31,1217.01L1392.38,1222.08C1393.98,1223.04 1395.25,1221.77 1395.25,1221.77L1399.68,1216.69L1405.71,1213.84C1407.31,1214.79 1410.18,1215.11 1410.18,1215.11C1406.05,1216.71 1401.62,1222.73 1401.62,1222.73C1398.12,1221.77 1392.39,1223.04 1392.39,1223.04L1391.76,1226.53L1391.58,1227.37L1390.19,1226.53C1387.96,1217.33 1380.97,1223.04 1380.97,1223.04C1378.65,1225.54 1378.41,1229.36 1380.4,1232.13ZM1380.54,1238.77C1381.31,1238.42 1381.93,1237.33 1381.93,1236.03C1381.93,1235.66 1381.85,1235.3 1381.69,1234.97L1382.12,1233.9C1383.12,1234.71 1384.36,1235.14 1385.64,1235.14C1388.91,1235.03 1390.18,1230.31 1390.18,1230.31L1390.97,1230.31L1390.18,1234.11C1386.99,1236.02 1384.15,1242.36 1384.15,1242.36L1380.54,1238.77ZM1382.53,1229.7C1380.83,1226.17 1384.47,1224.61 1384.47,1224.61C1388.91,1223.97 1387.97,1229.68 1387.97,1229.68C1386.78,1231.17 1385.82,1231.73 1385.03,1231.79C1383.3,1231.93 1382.55,1229.73 1382.53,1229.7ZM1209.29,1296.65C1206.75,1298.88 1202.3,1302.05 1196.59,1302.37L1194.05,1306.47L1200.08,1308.07L1201.35,1308.7L1206.75,1310.3C1206.75,1310.3 1207.06,1306.8 1211.19,1307.43C1211.19,1307.43 1214.05,1299.8 1225.47,1302.36C1225.47,1302.36 1227.38,1301.72 1229.91,1302.99C1230.87,1303.63 1231.82,1304.27 1232.76,1305.2L1231.49,1301.08C1231.49,1301.08 1232.76,1299.18 1235.93,1299.8C1235.93,1299.8 1234.66,1298.53 1233.71,1296.64C1232.37,1294.78 1231.6,1292.57 1231.49,1290.28C1231.39,1288 1235.29,1288.71 1239.11,1289.35L1239.11,1285.85L1241.32,1285.85L1237.2,1283.32C1237.2,1283.32 1226.72,1295.04 1207.04,1289.35C1203.15,1288.25 1199.42,1286.65 1195.94,1284.59C1192.46,1282.53 1199.76,1294.11 1211.82,1293.79C1211.83,1293.79 1210.88,1295.06 1209.29,1296.65ZM1158.2,1296.65C1164.54,1298.55 1175.66,1299.52 1175.66,1299.52C1174.7,1300.45 1173.75,1301.41 1172.8,1302.05C1169.32,1304.91 1166.46,1305.55 1166.46,1305.55C1164.56,1308.71 1165.52,1314.45 1165.52,1314.45C1166.46,1315.72 1169.32,1316.65 1171.86,1317.61C1175.04,1318.88 1178.2,1319.84 1178.2,1319.84C1174.33,1320.63 1170.34,1320.63 1166.46,1319.84C1162.96,1319.52 1160.76,1318.55 1160.76,1318.55L1162.34,1315.38C1161.07,1307.12 1148.69,1306.18 1148.69,1306.18L1149.33,1302.38C1150.91,1300.46 1152.51,1298.26 1153.14,1296.66C1153.54,1296.08 1153.85,1295.44 1154.09,1294.77C1154.72,1295.41 1156.31,1296.04 1157.9,1296.66L1158.2,1296.66L1158.2,1296.65ZM1384.17,1322.99C1383.21,1323.63 1382.58,1324.27 1382.58,1325.52C1382.58,1325.52 1383.21,1327.42 1387.34,1328.69C1387.34,1328.69 1387.97,1325.21 1387.01,1321.4C1387,1321.4 1385.43,1322.03 1384.17,1322.99ZM1239.44,1317.26L1241.66,1316.63C1241.66,1316.63 1239.44,1314.73 1239.13,1313.46C1239.13,1313.46 1239.13,1310.93 1236.28,1308.7L1236.59,1310.93L1236.59,1314.1L1237.54,1315.06L1237.54,1317.59L1239.44,1317.26ZM1249.6,1328.39L1249.92,1333.15L1254.05,1328.69C1253.38,1328.7 1252.76,1328.34 1252.45,1327.75C1250.87,1326.48 1249.92,1324.59 1249.92,1324.59L1249.6,1328.39ZM1263.94,1296.77C1266.36,1296.5 1268.38,1296.66 1269.52,1298.04C1269.49,1296.02 1270.38,1293.99 1273.4,1293.48C1273.4,1293.48 1266.73,1292.2 1260.7,1289.97C1256.9,1288.7 1253.09,1287.11 1251.82,1285.21L1248.96,1286.17L1246.73,1287.11L1246.73,1288.07C1246.73,1288.07 1252.76,1289 1255.94,1291.57L1255.94,1290.27C1255.94,1290.28 1261.71,1291.37 1263.94,1296.77ZM1280.69,1309.34C1280.69,1308.7 1281.01,1308.07 1281.01,1307.11L1285.77,1312.2C1285.77,1312.2 1286.7,1315.37 1284.81,1317.27C1284.81,1317.27 1283.88,1316.34 1282.61,1315.7C1281.81,1315.3 1280.94,1315.09 1280.05,1315.07L1279.75,1310.94C1279.75,1310.93 1280.39,1310.3 1280.69,1309.34ZM894.797,1136.06C894.797,1136.06 942.085,1160.18 947.792,1164.94C953.822,1169.7 950.645,1172.88 950.645,1172.88C950.645,1172.88 948.427,1176.05 943.032,1177.32C937.623,1178.26 939.231,1182.71 939.231,1182.71L938.596,1295.38C960.813,1317.27 981.759,1305.54 981.759,1305.54C989.697,1303.01 988.75,1296.02 988.75,1296.02C988.75,1296.02 990.345,1190.03 989.697,1186.53C989.061,1182.73 985.897,1182.73 985.897,1182.73C985.897,1182.73 966.222,1170.34 963.044,1168.13C959.542,1165.92 963.355,1162.43 963.355,1162.43C963.355,1162.43 996.675,1139.26 1001.45,1134.82C1006.21,1130.69 1010.02,1133.22 1010.02,1133.22C1010.02,1133.22 1064.92,1164.01 1071.26,1168.77C1077.61,1173.53 1074.44,1175.11 1074.44,1175.11L1058.89,1190.66C1055.71,1193.84 1057.3,1196.69 1057.3,1196.69L1056.66,1300.79C1052.54,1327.44 1010.64,1331.27 1010.64,1331.27C960.178,1331.9 936.702,1310.32 936.702,1310.32C916.703,1297.94 893.539,1306.5 893.539,1306.5C864.033,1316.65 861.802,1335.7 861.802,1335.7C860.842,1349.36 876.082,1356.02 876.082,1356.02C894.81,1368.08 922.098,1360.45 922.098,1360.45C945.262,1352.53 981.124,1340.46 981.124,1340.46C1003.65,1335.7 1021.42,1339.5 1021.42,1339.5C1041.73,1343.97 1049.67,1353.49 1049.67,1353.49C1062.68,1366.81 1061.73,1383.94 1061.73,1383.94C1062.68,1421.41 1016.66,1434.09 1016.66,1434.09C996.039,1438.22 990.332,1433.46 990.332,1433.46C975.728,1430.27 991.279,1428.7 991.279,1428.7C991.279,1428.7 964.613,1430.27 993.497,1429C1022.38,1428.06 1025.56,1414.11 1025.56,1414.11C1036.04,1395.37 1019.85,1392.2 1019.85,1392.2C997.634,1389.04 973.524,1407.12 973.524,1407.12C919.569,1431.23 878.637,1411.24 878.637,1411.24C836.744,1395.05 842.14,1363.95 842.14,1363.95C843.087,1323.65 868.481,1307.79 868.481,1307.79L866.899,1183.06C865.628,1179.88 862.45,1178.94 862.45,1178.94C862.45,1178.94 844.993,1171.95 842.14,1168.15C839.598,1164.34 843.722,1162.75 843.722,1162.75L884.032,1136.09C888.766,1129.41 894.797,1136.06 894.797,1136.06ZM112.824,1117.02C106.793,1112.9 113.46,1110.68 113.46,1110.68L174.08,1066.24L334.335,1066.24C368.925,1069.41 366.072,1113.84 366.072,1113.84L365.436,1277.59C309.264,1288.38 282.287,1336 282.287,1336C229.915,1321.09 140.112,1334.41 140.112,1334.41C132.175,1335.04 137.57,1329.01 137.57,1329.01C168.672,1274.42 228.333,1276.02 228.333,1276.02C232.185,1275.94 235.959,1276.04 239.629,1276.28L239.941,1118.68L112.824,1117.02ZM192.796,1125.9C204.533,1120.51 202.315,1128.45 202.315,1128.45L202.315,1219.52C201.369,1257.92 171.214,1278.88 171.214,1278.88C162.33,1290.95 128.375,1304.9 128.375,1304.9C116.637,1309.34 123.615,1297.91 123.615,1297.91C134.717,1281.43 134.717,1269.66 134.717,1269.66L134.717,1160.18C134.717,1157.01 135.988,1155.74 135.988,1155.74L192.796,1125.9ZM244.999,1276.73C272.741,1279.52 293.091,1289.35 293.091,1289.35L292.676,1218.94L292.248,1219.26C292.183,1219.18 269.979,1189.87 245.103,1220.34L244.999,1276.73ZM292.624,1211.8L292.455,1182.27C283.96,1190.22 264.155,1203.59 245.167,1178.84L245.103,1212.27C266.01,1191.05 284.816,1204.27 292.624,1211.8ZM292.403,1174.57L292.118,1125.27C294.336,1117.02 282.922,1119.24 282.922,1119.24L245.297,1118.75L245.206,1169.32C266.49,1204.59 290.224,1177.23 292.403,1174.57ZM730.392,1097.35C730.392,1097.35 800.209,1074.82 809.093,1072.6C818.288,1070.38 817.666,1074.82 817.666,1074.82C817.666,1074.82 815.772,1273.48 817.355,1280.47C818.937,1287.46 822.114,1285.56 822.114,1285.56C822.114,1285.56 838.301,1296.99 841.79,1298.56C845.603,1300.15 843.696,1303.95 843.696,1303.95L804.346,1334.43C804.346,1334.43 740.236,1306.18 735.165,1303.02C728.823,1298.56 732.947,1296.03 732.947,1296.03L744.374,1284.6C744.374,1284.6 746.267,1122.12 743.103,1113.55C739.925,1104.97 729.77,1101.48 729.77,1101.48C727.539,1097.98 730.392,1097.35 730.392,1097.35ZM652.016,1130.99C654.234,1136.38 659.941,1135.44 659.941,1135.44C685.335,1125.28 695.491,1101.16 695.491,1101.16C701.833,1077.36 686.918,1071.02 686.918,1071.02C673.585,1063.08 663.754,1069.42 663.754,1069.42C648.514,1077.67 644.39,1093.55 644.39,1093.55C640.59,1114.49 652.016,1130.99 652.016,1130.99ZM640.59,1141.78C640.59,1141.78 599.333,1167.17 596.155,1171.93C592.978,1176.69 595.533,1178.93 595.533,1178.93C595.533,1178.93 613.301,1190.03 618.061,1191.93C623.132,1193.52 621.226,1196.06 621.226,1196.06L622.497,1278.57C623.132,1280.8 622.497,1286.5 622.497,1286.5C622.497,1286.5 615.506,1292.22 611.706,1295.39C607.27,1299.19 610.746,1303.02 610.746,1303.02L674.545,1335.07C674.545,1335.07 717.695,1303.97 721.508,1302.38C725.308,1300.79 721.508,1297.62 721.508,1297.62C721.508,1297.62 702.78,1286.83 699.615,1285.24C696.45,1283.64 697.721,1280.48 697.721,1280.48C697.721,1280.48 695.179,1198.9 697.086,1191.92C698.668,1185.26 700.886,1187.47 700.886,1187.47C700.886,1187.47 706.593,1185.89 711.677,1182.71C716.437,1179.54 712.001,1176.68 712.001,1176.68C712.001,1176.68 652.652,1145.59 648.216,1141.78C643.754,1137.97 640.59,1141.78 640.59,1141.78ZM377.654,1279.19C377.498,1278.56 382.569,1327.12 444.772,1335.06L486.029,1301.75C486.029,1301.75 488.247,1297.92 491.424,1301.09L561.241,1335.06L603.768,1301.75C603.768,1301.75 605.675,1297.92 602.497,1294.12L572.978,1274.43L572.978,1193.5C572.978,1193.5 572.667,1189.7 575.196,1189.07L586.622,1179.87C586.622,1179.87 588.529,1176.69 584.729,1172.57C581.227,1168.13 511.735,1133.86 511.735,1133.86C511.735,1133.86 509.193,1130.06 502.838,1134.49C502.838,1134.49 426.991,1164.96 397.16,1203.98C397.173,1203.98 373.374,1219.21 377.654,1279.19ZM437.159,1253.18C439.065,1256.65 424.461,1232.54 431.452,1206.2C431.452,1206.2 432.412,1183.04 459.376,1171.3L495.873,1195.1L495.238,1289.03C495.238,1289.03 490.478,1296.98 478.74,1291.58C478.74,1291.58 448.585,1276.67 437.159,1253.18ZM2186.12,1144.31C2186.12,1144.31 2144.88,1169.38 2141.68,1174.46C2138.52,1179.22 2141.05,1181.44 2141.05,1181.44C2141.05,1181.44 2158.83,1192.54 2163.59,1194.14C2168.66,1195.74 2166.76,1198.58 2166.76,1198.58L2168.03,1281.09C2168.66,1283.32 2168.03,1289.01 2168.03,1289.01C2168.03,1289.01 2161.03,1294.41 2157.24,1297.6C2152.8,1301.4 2156.3,1305.2 2156.3,1305.2L2220.09,1337.57C2220.09,1337.57 2263.25,1306.47 2267.05,1304.56C2270.85,1302.99 2267.05,1299.8 2267.05,1299.8C2267.05,1299.8 2248.63,1289.01 2245.16,1287.44C2241.97,1285.85 2243.24,1282.68 2243.24,1282.68C2243.24,1282.68 2240.71,1201.12 2242.6,1194.14C2244.2,1187.8 2246.43,1189.7 2246.43,1189.7C2246.43,1189.7 2252.12,1188.11 2257.22,1184.94C2261.98,1181.77 2257.52,1179.24 2257.52,1179.24C2257.52,1179.24 2198.17,1148.13 2193.73,1144.32C2189.61,1140.51 2186.12,1144.31 2186.12,1144.31ZM1555.2,1117.33C1545.37,1111.94 1552.36,1109.39 1552.36,1109.39L1601.86,1077.66C1604.39,1075.44 1606.62,1078.62 1606.62,1078.62L1651.69,1104.96C1651.69,1104.96 1712.61,1072.59 1716.74,1070.06C1719.27,1068.46 1721.5,1070.69 1721.5,1070.69L1772.93,1099.25L1824.65,1066.88C1830.35,1062.12 1831.94,1065.29 1831.94,1065.29L1892.56,1100.84C1897.63,1104.01 1895.4,1104.96 1895.4,1104.96L1895.4,1269.36C1897.63,1289.65 1914.78,1297.61 1914.78,1297.61C1919.54,1301.41 1917.31,1304.28 1917.31,1304.28L1870.64,1337.59C1830.35,1323.93 1826.55,1291.26 1826.55,1291.26L1826.55,1134.15C1825.59,1128.76 1821.79,1127.49 1821.79,1127.49L1790.63,1111.61L1790.87,1181.43L1824.33,1181.43L1791.02,1229.44L1791.23,1287.24L1814.51,1302.99C1817.67,1306.8 1812.62,1307.43 1812.62,1307.43L1764.36,1337.57L1692.64,1299.49C1685.98,1295.03 1691.05,1292.5 1691.05,1292.5L1706.6,1282.67L1706.6,1232.2L1672.45,1232.2L1672.58,1296.99L1684.09,1304.27C1687.59,1308.07 1683.45,1310.6 1683.45,1310.6L1635.53,1337.57L1573.01,1304.56C1567.62,1301.06 1573.31,1298.24 1573.31,1298.24L1591.09,1288.08L1591.09,1142.73L1556.81,1117.98L1555.2,1117.33ZM1786.33,1109.65C1776.86,1106.71 1778.32,1112.59 1778.32,1112.59L1778.96,1176.37L1778.96,1181.45L1786.59,1181.45L1786.33,1109.65ZM1786.74,1232.22L1778.96,1232.22L1778.96,1278.88C1779.26,1280.15 1783.08,1281.72 1783.08,1281.72L1786.91,1284.33L1786.74,1232.22ZM1672.44,1223.19L1700.56,1181.44L1706.59,1181.44L1706.59,1134.15C1705.65,1131.62 1702.15,1129.08 1702.15,1129.08L1672.26,1113.53L1672.44,1223.19ZM1667.96,1112.51C1659.2,1112.7 1658.69,1118.62 1658.69,1118.62L1658.03,1288.09C1658.03,1289.03 1660.89,1289.66 1660.89,1289.66L1668.26,1294.32L1667.96,1112.51ZM1923.25,1279.19C1923.09,1278.56 1928.16,1327.12 1990.38,1335.06L2031.62,1301.75C2031.62,1301.75 2033.85,1297.92 2037.02,1301.09L2106.84,1335.06L2149.36,1301.75C2149.36,1301.75 2151.26,1297.92 2148.09,1294.12L2118.59,1274.43L2118.59,1193.5C2118.59,1193.5 2118.29,1189.7 2120.82,1189.07L2132.24,1179.87C2132.24,1179.87 2134.14,1176.69 2130.35,1172.57C2126.85,1168.13 2057.34,1133.86 2057.34,1133.86C2057.34,1133.86 2054.81,1130.06 2048.45,1134.49C2048.45,1134.49 1972.6,1164.96 1942.77,1203.98C1942.75,1203.98 1918.97,1219.21 1923.25,1279.19ZM1982.75,1253.18C1984.65,1256.65 1970.06,1232.54 1977.06,1206.2C1977.06,1206.2 1977.99,1183.04 2004.97,1171.3L2041.47,1195.1L2040.83,1289.03C2040.83,1289.03 2036.07,1296.98 2024.32,1291.58C2024.32,1291.58 1994.18,1276.67 1982.75,1253.18ZM2275.93,1097.35C2275.93,1097.35 2345.41,1074.82 2354.64,1072.6C2363.51,1070.38 2363.2,1074.82 2363.2,1074.82C2363.2,1074.82 2361.3,1275.71 2362.87,1282.7C2364.47,1289.66 2367.63,1288.09 2367.63,1288.09C2367.63,1288.09 2383.82,1299.52 2387.32,1301.09C2391.12,1302.68 2389.21,1306.48 2389.21,1306.48L2349.88,1336.96C2349.88,1336.96 2285.76,1308.71 2280.69,1305.23C2274.34,1301.1 2278.46,1298.26 2278.46,1298.26L2289.89,1287.14C2289.89,1287.14 2291.78,1121.81 2288.62,1113.23C2285.45,1104.66 2275.3,1101.5 2275.3,1101.5C2273.08,1097.66 2275.93,1097.35 2275.93,1097.35ZM2197.55,1133.53C2199.78,1138.93 2205.47,1137.97 2205.47,1137.97C2230.88,1127.49 2241.03,1103.38 2241.03,1103.38C2247.36,1079.89 2232.45,1073.55 2232.45,1073.55C2219.13,1065.3 2209.3,1071.95 2209.3,1071.95C2194.04,1080.2 2189.95,1096.08 2189.95,1096.08C2186.12,1117.02 2197.55,1133.53 2197.55,1133.53Z" style="fill:white;"></path> <path d="M1217.23,1168.76L1221.67,1166.54L1221.67,1169.72L1223.26,1168.13L1225.15,1172.57L1222.62,1172.89L1224.22,1174.48C1227.7,1177.02 1225.49,1179.24 1225.49,1179.24L1223.89,1180.51C1218.81,1182.4 1220.4,1174.48 1220.4,1174.48L1218.81,1176.06L1216.91,1171.3L1219.46,1171.3L1217.23,1168.76Z" style="fill:white;"></path> <path d="M1212.47,1188.74C1216.28,1189.06 1216.59,1191.92 1216.59,1191.92C1216.9,1186.53 1221.03,1191.29 1221.03,1191.29C1219.69,1191.7 1218.48,1192.47 1217.54,1193.5C1217.54,1196.68 1222.3,1196.68 1222.3,1196.68C1226.42,1194.45 1225.79,1191.92 1225.79,1191.92C1226.42,1188.42 1222.3,1190.33 1222.3,1190.33L1220.7,1186.84L1223.24,1186.53L1223.24,1185.26L1221.03,1183.98L1228.02,1180.5L1227.06,1183.35L1227.69,1183.98L1229.27,1182.08L1230.55,1187.16C1227.37,1186.53 1228.64,1189.38 1228.64,1189.38C1230.44,1191.33 1231.88,1191.51 1232.93,1191.09C1233.82,1190.66 1234.55,1189.94 1234.98,1189.06C1236.89,1186.84 1234.67,1185.88 1234.67,1185.88C1232.14,1186.82 1231.82,1187.78 1231.82,1187.78C1230.55,1181.12 1234.03,1182.38 1234.03,1182.38C1233.09,1179.21 1234.03,1177.62 1234.03,1177.62C1236.58,1178.89 1236.89,1181.42 1236.89,1181.42C1240.69,1177.29 1241.32,1181.73 1241.32,1181.73C1236.25,1182.69 1238.47,1185.54 1238.47,1185.54C1239.66,1187.42 1240.6,1187.72 1241.34,1187.25C1242.94,1186.2 1243.54,1181.38 1243.54,1181.38C1240.69,1177.25 1233.39,1176.51 1233.39,1176.93L1233.07,1179.51L1229.26,1180.14L1228.63,1178.24L1227.68,1177.93L1227.68,1176.33C1236.88,1172.84 1245.14,1180.46 1245.14,1180.46L1245.45,1193.15C1231.8,1195.06 1214.98,1206.16 1214.98,1206.16L1208.32,1194.74C1210.55,1185.54 1219.11,1180.46 1219.11,1180.46L1220.38,1181.73L1218.78,1183.63L1219.42,1185.85L1215.62,1189.03L1212.44,1187.43C1211.08,1189.85 1209.76,1192.19 1210.22,1194.74L1212.44,1199.5C1216.89,1201.4 1215.31,1196.01 1215.31,1196.01C1214.04,1194.41 1212.44,1197.9 1212.44,1197.9C1209.59,1192.51 1213.4,1192.82 1213.4,1192.82C1211.83,1191.29 1212.47,1188.74 1212.47,1188.74ZM1109.33,1304.9C1105.21,1315.69 1107.42,1329.65 1107.42,1329.65L1104.88,1329.65L1104.88,1312.19C1097.58,1310.6 1100.76,1307.75 1100.76,1307.75C1103.61,1303.94 1109.33,1304.9 1109.33,1304.9ZM1123.29,1336.95C1124.88,1339.48 1124.56,1342.98 1124.56,1342.98C1123.92,1340.45 1121.38,1340.75 1121.38,1340.75C1120.12,1336.95 1123.29,1336.95 1123.29,1336.95ZM1129.32,1336.95C1130.91,1336.02 1130.91,1333.79 1130.91,1333.79C1134.41,1335.35 1132.18,1340.45 1132.18,1340.45C1131.55,1338.22 1129.32,1336.95 1129.32,1336.95ZM1125.19,1324.59C1130.28,1323.63 1131.55,1328.39 1131.55,1328.39C1133.77,1330.62 1133.77,1327.43 1133.77,1327.43C1130.9,1318.53 1125.19,1324.59 1125.19,1324.59ZM1132.17,1330.62C1133.75,1331.26 1134.39,1329.99 1134.39,1329.99C1135.66,1332.83 1134.06,1335.06 1134.06,1335.06C1133.75,1332.53 1132.17,1332.53 1132.17,1332.53L1132.17,1330.62Z" style="fill:white;"></path> <path d="M1135.98,1326.79C1132.81,1315.07 1124.56,1322.99 1124.56,1322.99C1122.34,1315.7 1125.52,1309.97 1125.52,1309.97C1130.28,1310.61 1136.62,1309.97 1136.62,1309.97C1138.2,1309.97 1137.57,1310.93 1137.57,1310.93C1138.84,1316.63 1135.35,1316.63 1135.35,1316.63C1137.89,1318.86 1138.53,1317.9 1138.53,1317.9C1143.61,1318.53 1148.05,1308.4 1148.05,1308.4C1152.81,1308.08 1158.52,1312.2 1158.52,1312.2C1161.7,1315.07 1158.52,1316 1158.52,1316C1154.08,1315.07 1146.14,1316.64 1146.14,1316.64C1145.19,1317.27 1145.5,1319.19 1145.5,1319.19C1146.14,1321.09 1146.46,1327.43 1146.46,1327.43C1142.34,1326.48 1135.98,1326.79 1135.98,1326.79ZM1156.93,1291.88C1158.2,1287.12 1167.72,1282.05 1167.72,1282.05C1172.48,1280.15 1179.46,1278.55 1179.46,1278.55C1187.72,1278.87 1193.43,1287.74 1193.43,1287.74L1190.25,1290.27L1191.52,1291.23C1194.39,1288.37 1197.55,1291.56 1197.55,1291.56C1200.4,1293.12 1207.38,1295.68 1207.38,1295.68C1204.2,1300.41 1194.37,1298.52 1194.37,1298.52C1194.68,1303.62 1188.98,1307.08 1188.98,1307.08C1192.79,1310.27 1207.38,1313.14 1207.38,1313.14C1212.78,1305.51 1218.48,1310.91 1218.48,1310.91C1219.76,1311.84 1221.35,1313.43 1221.35,1313.43C1218.17,1315.03 1219.12,1319.15 1219.12,1319.15C1212.78,1320.43 1195.01,1320.43 1195.01,1320.43C1177.55,1317.87 1168.67,1313.43 1168.67,1313.43C1167.08,1312.48 1168.04,1311.2 1168.04,1311.2L1167.72,1309.31C1167.41,1307.08 1169.32,1307.42 1169.32,1307.42C1175.66,1306.46 1181.05,1299.49 1181.05,1299.49C1182.65,1295.69 1179.15,1296.33 1179.15,1296.33C1168.36,1295.7 1156.93,1291.88 1156.93,1291.88Z" style="fill:white;"></path> <path d="M1213.42,1307.44C1217.55,1301.75 1223.26,1305.55 1223.26,1305.55C1224.53,1306.48 1225.8,1309.35 1225.8,1309.35C1223.26,1309.35 1222.62,1311.58 1222.62,1311.58C1220.4,1307.11 1213.42,1307.44 1213.42,1307.44ZM1221.04,1318.53C1220.4,1316 1222.63,1315.06 1222.63,1315.06C1223.9,1315.99 1225.16,1318.22 1225.16,1318.22C1223.89,1318.53 1221.04,1318.53 1221.04,1318.53ZM1223.26,1313.16C1226.11,1314.43 1226.43,1317.9 1226.43,1317.9L1228.65,1317.6C1229.29,1312.84 1226.75,1310.31 1226.75,1310.31C1223.89,1310.61 1223.26,1313.16 1223.26,1313.16ZM1226.43,1304.58C1228.03,1305.54 1227.7,1308.7 1227.7,1308.7C1229.92,1310.3 1230.56,1313.46 1230.56,1313.46C1232.15,1312.5 1234.68,1312.83 1234.68,1312.83C1233.41,1303.94 1226.43,1304.58 1226.43,1304.58ZM1231.19,1314.73L1231.51,1317.26L1234.99,1316.96C1235.31,1315.07 1234.36,1313.8 1234.36,1313.8C1232.46,1313.46 1231.19,1314.73 1231.19,1314.73ZM1253.41,1246.19C1254.05,1248.72 1253.41,1253.18 1253.41,1253.18C1252.45,1255.07 1249.92,1258.87 1249.92,1258.87L1254.36,1263.33L1265.16,1263.63C1266.43,1259.83 1272.76,1253.48 1272.76,1253.48C1276.89,1234.44 1287.35,1226.5 1287.35,1226.5L1287.35,1224.92C1284.82,1224.28 1284.51,1221.74 1284.51,1221.74C1284.47,1219.74 1285.42,1217.84 1287.04,1216.67C1288.31,1217.94 1288.31,1215.71 1288.31,1215.71C1287.68,1215.07 1286.72,1215.07 1286.72,1215.07L1286.08,1216.34L1283.24,1220.78C1281.97,1224.9 1274.02,1236.96 1274.02,1236.96C1271.49,1239.51 1263.23,1248.7 1263.23,1248.7L1261.96,1248.07C1259.13,1248.42 1253.41,1246.19 1253.41,1246.19ZM1271.83,1299.82L1274.03,1296.02L1275.63,1296.34C1276.26,1300.78 1279.13,1303.94 1279.13,1303.94L1278.81,1310.3C1277.87,1308.07 1275.64,1308.07 1275.64,1308.07C1277.22,1302.37 1271.83,1299.82 1271.83,1299.82ZM1257.52,1329.32L1255.31,1329.32L1249.91,1335.35C1249.59,1338.86 1245.15,1340.45 1245.15,1340.45C1253.72,1339.82 1254.99,1336.65 1254.99,1336.65C1254.55,1338.3 1253.91,1339.89 1253.09,1341.38C1258.47,1338.55 1257.21,1337.29 1257.21,1337.29C1258.17,1334.1 1257.85,1333.79 1257.85,1333.79C1258.17,1332.19 1258.47,1331.89 1258.47,1331.89C1259.13,1329.32 1257.52,1329.32 1257.52,1329.32ZM1261.34,1331.88C1264.84,1332.51 1266.73,1332.18 1266.73,1332.18C1271.19,1336.3 1266.43,1342.33 1266.43,1342.33C1265.16,1339.46 1265.8,1338.21 1265.8,1338.21C1266.43,1336.64 1265.16,1334.71 1265.16,1334.71C1263.24,1337.26 1264.5,1341.7 1264.5,1341.7C1260.7,1340.1 1259.77,1336.3 1259.77,1336.3C1259.77,1333.79 1261.34,1331.88 1261.34,1331.88ZM1296.87,1295.06L1299.74,1292.85C1301.01,1296.02 1298.81,1299.18 1298.81,1299.18C1298.42,1297.7 1297.76,1296.3 1296.87,1295.06ZM1292.44,1299.18C1293.4,1298.25 1294.67,1296.34 1294.67,1296.34C1296.56,1299.18 1295.6,1303.01 1295.6,1303.01C1294.03,1302.05 1294.67,1302.68 1294.67,1302.68L1292.44,1299.18Z" style="fill:white;"></path> <path d="M1291.48,1267.13L1291.48,1277.92C1300.7,1276.96 1299.74,1283.95 1299.74,1283.95C1303.54,1285.23 1301.01,1291.88 1301.01,1291.88C1302.61,1295.7 1300.71,1300.14 1300.71,1300.14C1305.47,1311.23 1319.74,1315.37 1319.74,1315.37L1319.1,1266.81L1291.48,1267.13ZM1289.58,1248.08L1289.91,1254.44C1284.81,1265.23 1287.68,1279.82 1287.68,1279.82C1286.58,1279.99 1285.63,1280.7 1285.15,1281.71C1281.65,1258.87 1289.58,1248.08 1289.58,1248.08ZM1309.89,1312.2L1309.57,1336.02L1319.73,1344.25L1328.31,1336.65L1328.31,1315.07L1324.81,1315.37L1324.81,1333.79L1319.73,1339.48L1314.02,1335.35L1314.02,1315.07L1309.89,1312.2Z" style="fill:white;"></path> <path d="M1319.41,1323.29C1320.35,1323.29 1321.01,1322.66 1321.01,1321.4C1321.01,1320.14 1320.35,1319.19 1319.41,1319.19C1318.78,1319.19 1318.14,1320.13 1318.14,1321.4C1318.14,1322.67 1318.79,1323.29 1319.41,1323.29ZM1322.28,1328.39C1322.92,1328.39 1323.55,1327.43 1323.55,1326.5C1323.55,1325.23 1322.92,1324.27 1322.28,1324.27C1321.32,1324.27 1320.68,1325.23 1320.68,1326.5C1320.68,1327.43 1321.32,1328.39 1322.28,1328.39ZM1319.73,1332.19C1320.36,1332.19 1321.02,1331.26 1321.02,1330.3C1321.02,1329.34 1320.36,1328.4 1319.73,1328.4C1318.79,1328.4 1318.16,1329.34 1318.16,1330.3C1318.16,1331.26 1318.79,1332.19 1319.73,1332.19ZM1317.2,1328.05C1318.16,1328.05 1318.79,1327.12 1318.79,1325.85C1318.79,1324.89 1318.16,1323.93 1317.2,1323.93C1316.26,1323.93 1315.63,1324.89 1315.63,1325.85C1315.63,1327.12 1316.25,1328.05 1317.2,1328.05ZM1289.91,1302.37C1289.58,1299.82 1290.84,1299.51 1290.84,1299.51C1292.11,1302.67 1294.67,1304.58 1294.67,1304.58L1294.67,1304.28C1295.6,1306.48 1298.47,1308.71 1298.47,1308.71C1298.79,1310.94 1296.57,1310.94 1296.57,1310.94C1292.44,1307.44 1289.91,1302.37 1289.91,1302.37ZM1296.24,1304.27C1297.83,1302.37 1297.51,1300.76 1297.51,1300.76C1298.47,1302.36 1299.1,1302.36 1299.1,1302.36L1300.06,1301.72L1301.96,1304.56C1299.73,1304.89 1298.45,1307.43 1298.45,1307.43C1296.57,1306.47 1296.24,1304.27 1296.24,1304.27ZM1284.51,1307.11L1286.72,1310.3C1286.72,1309.03 1287.35,1308.07 1287.35,1308.07L1289.91,1305.54L1288.64,1303.31L1286.08,1306.17C1285.45,1306.47 1284.51,1307.11 1284.51,1307.11ZM1281.02,1301.41L1282.92,1303.94C1283.24,1302.67 1283.88,1302.37 1283.88,1302.37L1287.04,1299.51L1285.15,1298.24L1281.02,1301.41ZM1273.09,1266.17L1273.09,1269.67L1274.02,1269.36L1278.79,1269.04L1273.09,1275.69L1276.89,1278.24L1282.28,1278.24L1282.28,1275.69L1276.59,1275.69L1282.28,1269.36L1282.28,1266.5L1281.32,1266.81L1274.02,1266.81L1273.09,1266.17ZM1273.72,1258.25L1273.4,1261.41L1274.02,1260.78L1281.32,1261.74L1282.28,1263.01L1282.92,1259.21L1281.65,1259.21L1274.99,1258.25L1273.72,1257.3L1273.72,1258.25ZM1279.41,1241.12L1281.65,1242.7L1280.05,1243.33C1277.52,1245.55 1279.12,1246.82 1279.12,1246.82C1280.69,1247.78 1281.01,1245.88 1281.01,1245.88C1283.54,1242.39 1285.45,1244.28 1285.45,1244.28C1288.64,1246.5 1286.41,1250 1286.41,1250L1285.45,1251.27L1285.15,1252.22L1282.62,1251.27L1283.89,1250.32C1285.16,1249.36 1284.82,1247.8 1284.82,1247.8C1284.19,1244.93 1282.62,1247.8 1282.62,1247.8C1278.79,1251.6 1276.9,1247.47 1276.9,1247.47C1275.29,1244.59 1279.41,1241.12 1279.41,1241.12ZM1288.64,1230.64L1288.64,1233.18C1284.81,1232.22 1285.13,1236.03 1285.13,1236.03C1286.07,1240.47 1289.26,1239.83 1289.26,1239.83L1289.26,1241.74C1284.8,1242.37 1283.23,1238.24 1283.23,1238.24C1281.65,1230.96 1288.64,1230.64 1288.64,1230.64ZM1291.48,1265.54L1319.09,1265.54L1319.09,1224.93L1290.22,1224.61L1291.48,1265.54ZM1289.27,1184.62C1296.59,1178.24 1305.44,1173.86 1314.95,1171.92L1314.95,1178.26C1305.46,1177.01 1289.27,1184.62 1289.27,1184.62ZM1323.55,1172.25L1323.55,1177.95C1343.21,1177.32 1352.43,1185.89 1352.43,1185.89C1340.67,1171.6 1323.55,1172.25 1323.55,1172.25ZM1316.56,1171.92L1316.56,1178.28L1321.96,1178.28L1321.96,1171.92L1316.56,1171.92ZM1281.32,1188.74C1279.43,1179.86 1286.08,1183.35 1286.08,1183.35L1281.32,1188.74ZM1288.31,1181.77C1287.68,1172.57 1293.71,1177.64 1293.71,1177.64L1288.31,1181.77ZM1296.87,1175.74C1296.57,1166.54 1302.59,1171.93 1302.59,1171.93L1296.87,1175.74ZM1305.13,1171.3C1306.41,1159.24 1311.49,1168.76 1311.49,1168.76L1305.13,1171.3ZM1314.97,1165.26L1323.55,1165.26C1324.82,1167.16 1322.28,1170.02 1322.28,1170.02C1319.41,1170.98 1316.56,1169.7 1316.56,1169.7C1312.12,1168.76 1314.97,1165.26 1314.97,1165.26ZM1315.29,1150.98L1323.55,1150.98L1321.02,1154.79L1322.59,1156.38L1324.49,1153.83L1324.81,1161.77L1320.68,1158.6L1322.59,1163.36L1315.29,1163.04L1318.45,1159.23L1317.52,1158.28L1314.33,1161.13L1314.02,1153.52L1317.2,1156.38L1318.16,1155.42L1315.29,1150.98ZM1350.83,1179.22L1355.59,1183.67C1357.19,1173.83 1350.83,1179.22 1350.83,1179.22ZM1348.3,1177.32L1342.58,1174.14C1349.23,1167.49 1348.3,1177.32 1348.3,1177.32ZM1334.34,1169.39L1340.04,1171.93C1340.04,1162.09 1334.34,1169.39 1334.34,1169.39ZM1332.11,1169.07C1331.48,1164.62 1328.95,1164.62 1328.95,1164.62C1326.08,1163.99 1325.76,1168.74 1325.76,1168.74L1332.11,1169.07ZM1289.91,1217.63C1320.36,1211.6 1347.66,1217.63 1347.66,1217.63C1351.46,1218.26 1349.89,1221.12 1349.89,1221.12C1347.03,1222.06 1345.77,1221.43 1345.77,1221.43C1322.28,1216.67 1290.86,1222.39 1290.86,1222.39C1286.1,1222.7 1287.06,1220.48 1287.06,1220.48C1288.01,1216.99 1289.91,1217.63 1289.91,1217.63ZM1320.68,1224.93L1320.68,1265.88L1347.03,1265.88L1347.97,1224.93L1320.68,1224.93ZM1347.03,1267.13L1320.68,1267.13L1321.01,1315.69C1335.6,1313.16 1339.73,1304.27 1339.73,1304.27C1340.36,1299.8 1347.01,1281.41 1347.01,1281.41L1347.01,1267.13L1347.03,1267.13ZM1330.52,1314.43L1330.52,1319.19C1336.24,1322.99 1343.21,1324.89 1343.21,1324.89C1346.08,1323.93 1344.81,1321.39 1344.81,1321.39C1343.88,1320.63 1342.8,1320.1 1341.64,1319.82C1335.61,1319.19 1330.52,1314.43 1330.52,1314.43ZM1340.37,1305.21L1341.94,1306.81L1336.24,1315.07L1335.28,1312.84L1340.37,1305.21ZM1343.2,1307.77L1337.83,1315.37C1346.07,1320.76 1350.83,1308.08 1350.83,1308.08C1346.07,1309.34 1343.2,1307.77 1343.2,1307.77ZM1348.62,1245.55L1348.62,1253.18C1351.46,1258.25 1352.1,1269.04 1352.1,1269.04L1354.65,1264.6C1354.33,1253.48 1348.62,1245.55 1348.62,1245.55ZM1330.2,1333.45L1330.2,1336.95C1332.73,1339.18 1339.4,1340.75 1339.4,1340.75C1341,1340.11 1339.4,1337.91 1339.4,1337.91C1335.61,1337.91 1330.2,1333.45 1330.2,1333.45Z" style="fill:white;"></path> <path d="M1340.67,1332.19L1342.27,1326.5C1347.66,1326.17 1345.77,1320.14 1345.77,1320.14C1350.2,1318.87 1355.26,1310.62 1355.26,1310.62L1356.56,1313.81L1358.45,1317.61C1359.39,1319.51 1360.02,1320.48 1359.72,1320.48L1356.86,1323.01L1356.86,1321.41L1351.46,1326.17L1353.36,1315.7L1348.29,1327.43C1345.43,1330.62 1340.67,1332.19 1340.67,1332.19ZM1341.63,1335.06C1346.07,1341.72 1360.68,1341.72 1360.68,1341.72C1359.09,1337.92 1354.96,1336.33 1354.96,1336.33C1361.32,1333.8 1367.03,1339.49 1367.03,1339.49C1370.53,1342.68 1374.32,1342.68 1374.32,1342.68C1373.41,1341.38 1372.35,1340.21 1371.15,1339.18C1373.04,1340.11 1374.95,1339.48 1374.95,1339.48C1372.75,1335.68 1366.39,1332.19 1366.39,1332.19C1373.06,1328.69 1378.78,1336.65 1378.78,1336.65C1381.62,1340.75 1384.17,1341.72 1384.17,1341.72L1382.25,1335.37C1384.17,1341.09 1391.77,1342.68 1391.77,1342.68C1392.73,1341.72 1391.77,1339.82 1391.77,1339.82C1389.57,1339.82 1387.65,1336.65 1387.65,1336.65L1387.35,1330.3C1380.36,1329.34 1380.36,1325.54 1380.36,1325.54C1381.32,1319.84 1386.39,1319.21 1386.39,1319.21L1385.76,1311.89C1389.88,1308.09 1397.82,1310.32 1397.82,1310.32C1397.18,1305.86 1393.69,1307.13 1393.69,1307.13C1393.69,1303.66 1389.59,1303.33 1389.59,1303.33L1389.59,1304.29L1378.14,1313.19C1379.74,1322.06 1375.61,1324.91 1375.61,1324.91C1367.69,1330.01 1361.98,1323.02 1361.98,1323.02L1357.52,1325.89C1361.64,1326.18 1364.51,1330.01 1364.51,1330.01L1363.88,1330.65C1361.83,1328.98 1359.44,1327.79 1356.88,1327.14L1353.08,1328.71L1351.19,1330.31L1341.63,1335.06Z" style="fill:white;"></path> <path d="M1367.01,1303.01C1370.52,1297.91 1372.08,1289.66 1372.08,1289.66L1373.38,1291.26L1371.49,1297.29L1372.76,1298.56L1374.96,1293.49L1376.56,1295.38L1374.03,1299.51L1375.92,1301.08L1378.45,1297.6L1380.05,1298.87L1376.55,1302.37L1378.12,1304.58L1380.98,1300.14L1383.21,1301.74L1379.41,1305.54L1380.98,1306.81L1384.81,1303.64L1386.08,1304.58L1376.86,1312.2C1373.68,1305.21 1367.01,1303.01 1367.01,1303.01ZM1399.7,1310.61C1407.65,1308.71 1400.99,1304.58 1400.99,1304.58C1394,1302.05 1393.04,1303.31 1393.04,1303.31C1395.6,1304.27 1395.27,1305.84 1395.27,1305.84C1398.76,1306.17 1399.7,1310.61 1399.7,1310.61ZM1400.02,1318.23L1402.89,1311.24C1398.43,1312.84 1395.6,1311.88 1395.6,1311.88C1390.84,1311.24 1388.91,1312.51 1388.91,1312.51C1386.07,1314.11 1388.3,1314.43 1388.3,1314.43C1391.77,1317.9 1400.02,1318.23 1400.02,1318.23ZM1409.22,1317.26L1410.81,1319.19L1418.44,1316.64L1413.98,1319.83L1422.24,1320.46L1418.44,1314.73L1409.22,1317.26ZM1386.38,1177.01C1385.74,1171.3 1382.58,1168.76 1382.58,1168.76C1379.08,1166.54 1378.78,1168.45 1378.78,1168.45C1378.78,1171.3 1380.98,1172.25 1380.98,1172.25L1386.38,1177.01ZM1393.67,1181.44C1393.03,1177.95 1392.73,1177.64 1392.73,1177.64C1391.46,1175.42 1390.5,1174.15 1390.5,1174.15L1386.38,1171.3C1387.65,1173.84 1387.97,1177.01 1387.97,1177.01L1393.67,1181.44ZM1393.99,1176.37C1395.88,1179.55 1395.59,1182.08 1395.59,1182.08L1400.66,1187.16C1400.66,1182.08 1398.13,1178.91 1398.13,1178.91L1394,1175.74L1394,1176.37L1393.99,1176.37ZM1384.17,1211.6C1381.94,1212.87 1380.35,1212.23 1380.35,1212.23C1380.35,1215.41 1386.07,1215.41 1386.07,1215.41C1388.3,1215.41 1390.19,1213.19 1390.19,1213.19L1390.19,1211.92C1388.3,1213.19 1386.07,1213.52 1386.07,1213.52L1384.17,1211.6ZM1391.14,1233.49L1391.77,1231.27C1397.8,1229.68 1393.37,1225.24 1393.37,1225.24C1395.6,1224.29 1396.23,1224.93 1396.23,1224.93C1399.07,1223.33 1400.03,1226.82 1400.03,1226.82C1402.27,1224.93 1403.83,1226.19 1403.83,1226.19C1399.07,1230.64 1404.79,1232.22 1404.79,1232.22C1407.66,1232.22 1408.3,1229.37 1408.3,1229.37C1407.03,1228.08 1406.7,1227.15 1406.7,1227.15C1407.64,1227.51 1408.5,1228.04 1409.23,1228.73C1408.93,1226.82 1410.83,1226.82 1410.83,1226.82C1411.76,1228.42 1411.46,1229.68 1411.46,1229.68C1412.42,1228.73 1414.33,1229.68 1414.33,1229.68C1411.46,1232.85 1415.26,1235.71 1415.26,1235.71C1419.72,1238.24 1419.09,1230.95 1419.09,1230.95C1422.25,1230.95 1421.93,1233.8 1421.93,1233.8L1423.85,1232.22C1424.48,1234.12 1424.48,1235.4 1424.48,1235.4C1425.75,1233.8 1427.65,1235.09 1427.65,1235.09C1422.55,1238.25 1426.05,1241.12 1426.05,1241.12C1427.65,1242.39 1428.92,1241.43 1428.92,1241.43L1428.62,1239.21L1432.72,1239.85L1428.62,1244.61C1407.01,1232.22 1391.14,1233.49 1391.14,1233.49ZM1400.99,1180.5L1405.09,1183.04C1404.79,1185.58 1402.56,1188.11 1402.56,1188.11C1403.19,1185.58 1400.99,1180.5 1400.99,1180.5ZM1420.64,1183.04C1429.23,1180.82 1434.94,1192.23 1434.94,1192.23L1428.61,1189.7C1426.04,1186.84 1420.64,1183.04 1420.64,1183.04ZM1429.23,1191.6C1431.12,1194.14 1432.07,1198.26 1432.07,1198.26C1434.3,1200.81 1440.66,1204.62 1440.66,1204.62C1439.06,1194.14 1429.23,1191.6 1429.23,1191.6ZM1433.34,1202.08C1444.46,1206.2 1440.97,1217.94 1440.97,1217.94C1439.37,1213.81 1436.53,1212.54 1436.53,1212.54C1433.34,1209.38 1433.34,1202.08 1433.34,1202.08ZM1435.26,1214.45C1435.56,1216.99 1434.62,1221.43 1434.62,1221.43C1436.19,1223.97 1437.46,1229.04 1437.46,1229.04C1438.74,1227.77 1440.33,1220.16 1440.33,1220.16C1439.37,1216.68 1435.26,1214.45 1435.26,1214.45ZM1433.99,1224.61C1433.33,1228.09 1429.53,1234.44 1429.53,1234.44L1431.12,1236.34L1433.02,1237.61C1438.42,1230.64 1433.99,1224.61 1433.99,1224.61ZM1499.36,1327.75L1496.52,1316.96C1494.29,1313.46 1490.8,1315.69 1490.8,1315.69C1487.93,1317.9 1484.44,1316.63 1484.44,1316.63C1480.64,1315.99 1483.81,1313.46 1483.81,1313.46C1488.9,1310.3 1493.96,1308.7 1493.96,1308.7C1497.79,1310.3 1504.75,1309.97 1504.75,1309.97C1510.78,1309.04 1509.51,1314.1 1509.51,1314.1C1509.84,1318.86 1508.24,1327.12 1508.24,1327.12C1504.44,1327.12 1499.36,1327.75 1499.36,1327.75ZM1509.51,1329.99L1511.11,1331.55L1506.35,1340.11L1504.12,1338.84C1507.28,1336.31 1509.51,1329.99 1509.51,1329.99ZM1512.37,1332.19L1508.57,1340.45C1515.53,1341.72 1520.63,1336.95 1520.63,1336.95L1519.67,1331.88C1516.17,1333.45 1512.37,1332.19 1512.37,1332.19ZM1526.66,1328.69C1528.23,1329.01 1531.42,1330.28 1531.42,1330.28C1532.69,1324.59 1529.82,1317.59 1529.82,1317.59C1535.22,1319.48 1535.22,1317.26 1535.22,1317.26C1536.81,1312.83 1531.42,1311.57 1531.42,1311.57C1522.2,1308.7 1519.03,1309.34 1519.03,1309.34C1519.67,1311.87 1519.36,1313.46 1519.36,1313.46C1519.65,1314.1 1519.65,1316.63 1519.65,1316.63C1528.55,1319.83 1526.66,1328.69 1526.66,1328.69ZM1348.93,1230.33L1348.93,1232.85L1352.1,1230.64L1348.93,1237.94L1348.62,1242.39L1353.69,1231.58L1352.1,1228.73L1348.93,1230.33ZM1349.89,1243.97L1351.16,1243.97L1357.82,1238.88L1358.45,1237.61L1360.02,1241.12L1359.09,1241.12L1353.06,1245.88L1353.99,1248.42L1355.6,1250L1353.37,1250.95L1349.89,1243.97ZM1355.6,1257.94L1356.56,1261.74L1358.13,1260.78L1360.68,1259.84L1362.89,1261.41L1366.05,1261.41L1362.25,1258.87L1365.12,1255.71L1363.85,1251.91L1363.21,1253.48L1360.36,1257.3L1356.56,1258.25L1355.6,1257.94ZM1360.68,1280.47C1359.09,1280.79 1359.72,1281.74 1359.72,1281.74C1362.89,1285.86 1364.8,1282.37 1364.8,1282.37C1365.76,1280.48 1365.43,1279.21 1365.43,1279.21L1364.5,1278.91C1364.5,1282.71 1362.6,1281.75 1362.6,1281.75C1361.32,1281.72 1360.68,1280.47 1360.68,1280.47ZM1357.19,1286.48L1356.56,1290.62L1357.82,1292.85L1358.45,1289.03L1361.62,1290.62L1360.02,1293.79L1359.09,1294.11L1361.32,1295.38L1363.52,1290.28L1364.48,1289.03L1363.52,1289.03L1357.19,1285.86L1357.19,1286.48ZM1294.67,1321.4C1294.03,1323.93 1291.8,1323.63 1291.8,1323.63L1288.3,1319.51C1286.07,1316 1288,1315.07 1288,1315.07L1292.44,1308.71C1293.41,1309.32 1294.19,1310.2 1294.67,1311.24L1291.48,1315.37C1290.54,1317.6 1292.11,1318.23 1292.11,1318.23L1294.67,1321.4Z" style="fill:white;"></path> <path d="M1299.1,1308.07C1300.38,1313.46 1294.98,1312.19 1294.98,1312.19C1293.09,1315.99 1295.94,1315.99 1295.94,1315.99C1300.38,1316.31 1301.97,1311.87 1301.97,1311.87C1301.97,1309.04 1299.1,1308.07 1299.1,1308.07ZM1393.03,1220.17L1389.23,1216.68C1389.23,1216.68 1392.39,1214.14 1391.76,1210.97C1391.76,1210.97 1393.99,1210.66 1389.56,1210.66L1387.96,1211.61C1387.96,1211.61 1386.36,1210.97 1386.07,1210.01L1385.43,1206.21L1388.3,1202.73L1390.83,1203.04C1392.68,1200.51 1397.49,1196.19 1401.59,1192.69L1402.89,1194.15C1401.29,1197.64 1403.19,1198.59 1403.19,1198.59C1405.71,1200.18 1406.69,1197.01 1406.69,1197.01C1409.22,1198.28 1408.28,1196.69 1408.28,1196.69C1405.73,1196.12 1402.89,1192.75 1402.36,1192.06C1405.62,1189.29 1408.28,1187.17 1408.28,1187.17C1409.85,1183.69 1412.41,1182.09 1412.41,1182.09C1410.81,1180.2 1409.54,1175.11 1409.54,1175.11C1417.47,1175.11 1418.74,1183.36 1418.74,1183.36C1443.18,1202.73 1427.96,1233.19 1427.96,1233.19C1420.64,1227.16 1404.15,1223.35 1404.15,1223.35C1406.38,1218.91 1411.75,1216.05 1411.75,1216.05C1422.24,1216.37 1420.64,1203.67 1420.64,1203.67C1418.44,1199.22 1419.07,1205.89 1419.07,1205.89C1414.61,1220.48 1403.19,1207.49 1403.19,1207.49C1401.91,1206.53 1403.19,1209.7 1403.19,1209.7C1403.82,1211.29 1404.46,1210.97 1404.46,1210.97L1405.42,1211.92L1397.49,1215.1C1396.22,1217.01 1393.99,1220.18 1393.99,1220.18L1393.03,1220.18L1393.03,1220.17ZM1245.47,1195.1C1232.15,1196.37 1215.97,1208.11 1215.97,1208.11C1214.06,1209.38 1213.75,1209.05 1213.75,1209.05C1210.57,1214.76 1217.24,1217.3 1217.24,1217.3C1216.33,1222.52 1217.23,1227.89 1219.78,1232.53C1222.63,1236.03 1223.27,1244.92 1223.27,1244.92C1225.49,1243.32 1226.12,1239.83 1226.12,1239.83C1228.66,1250.61 1236.91,1252.84 1236.91,1252.84C1239.08,1253.32 1240.93,1254.7 1242,1256.64C1242.94,1253.48 1242.63,1250.31 1242.63,1250.31C1243.58,1254.44 1247.39,1256.64 1247.39,1256.64C1248.03,1252.84 1249.3,1249.35 1249.3,1249.35C1252.15,1243.33 1249.93,1237.3 1249.93,1237.3C1251.21,1239.52 1254.06,1240.16 1254.06,1240.16C1252.15,1234.45 1254.06,1229.68 1254.06,1229.68C1255.02,1223.97 1252.79,1220.16 1252.79,1220.16L1252.18,1217.86C1250.8,1221.86 1251.5,1228.09 1251.5,1228.09C1249.92,1227.78 1248.33,1227.15 1248.33,1227.15C1249.29,1232.85 1245.47,1240.47 1245.47,1240.47C1243.26,1243.96 1242.93,1246.5 1242.93,1246.5C1240.08,1242.7 1231.19,1240.16 1231.19,1240.16C1229.76,1238.37 1228.49,1236.46 1227.39,1234.45C1226.12,1236.67 1224.85,1236.05 1224.85,1236.05C1223.9,1232.87 1221.05,1229.05 1221.05,1229.05C1218.83,1225.25 1218.83,1221.44 1218.83,1221.44C1221.7,1226.84 1222.65,1228.11 1222.65,1228.11C1224.87,1229.39 1224.87,1233.81 1224.87,1233.81C1226.77,1232.87 1227.08,1230.65 1227.08,1230.65C1231.53,1237.94 1237.56,1239.22 1237.56,1239.22C1240.1,1240.49 1242.32,1242.71 1242.32,1242.71C1242.63,1237.63 1244.54,1235.42 1244.54,1235.42C1248.34,1229.7 1246.12,1222.73 1246.12,1222.73C1246.95,1224.54 1248.61,1225.84 1250.57,1226.21C1249.93,1223.36 1250.26,1220.82 1250.26,1220.82C1250.78,1218.77 1251.01,1215.88 1251.12,1213.66L1250.26,1210.34C1248.35,1206.21 1248.04,1203.36 1248.04,1203.36C1251.18,1197.63 1245.47,1195.1 1245.47,1195.1ZM1232.46,1223.33C1234.99,1226.82 1238.5,1228.09 1238.5,1228.09C1240.39,1223.97 1239.77,1220.81 1239.77,1220.81C1236.91,1221.12 1235.64,1220.17 1235.64,1220.17C1234.68,1223.66 1232.46,1223.33 1232.46,1223.33ZM1220.08,1209.38C1224.53,1210.65 1226.11,1208.74 1226.11,1208.74C1230.87,1206.84 1231.51,1211.92 1231.51,1211.92C1231.51,1214.14 1232.46,1215.72 1232.46,1215.72C1233.83,1215.86 1236.25,1215.42 1237.23,1214.45C1238.5,1212.86 1236.59,1211.27 1236.59,1211.27C1235.95,1209.05 1235.32,1207.78 1235.32,1207.78C1235.32,1202.7 1238.82,1203.02 1238.82,1203.02C1241.04,1203.34 1242.62,1201.12 1242.62,1201.12C1242.97,1203.68 1241.53,1206.17 1239.13,1207.15C1236.91,1208.74 1237.54,1210.65 1237.54,1210.65C1239.75,1214.45 1237.85,1214.77 1237.85,1214.77C1237.41,1215.83 1236.49,1216.61 1235.38,1216.88C1236.38,1219.52 1238.81,1219.22 1238.81,1219.22C1242.3,1217.33 1242.3,1213.52 1242.3,1213.52C1243.88,1217.95 1242.3,1219.22 1242.3,1219.22C1243.88,1222.08 1241.34,1223.35 1241.34,1223.35C1241.34,1228.74 1238.48,1231.29 1238.48,1231.29C1227.69,1224.94 1227.38,1217.64 1227.38,1217.64C1230.87,1223.67 1234.36,1220.82 1234.36,1220.82C1235.05,1220.12 1234.9,1218.09 1234.77,1217.03C1233.26,1217.3 1231.82,1217.02 1231.82,1217.02C1229.91,1214.48 1230.23,1212.58 1230.23,1212.58C1228.64,1209.08 1227.69,1211.95 1227.69,1211.95C1221.99,1215.4 1220.08,1209.38 1220.08,1209.38ZM1146.77,1318.53C1155.66,1323.93 1188.36,1323.93 1188.36,1323.93C1219.77,1324.25 1236.91,1319.83 1236.91,1319.83C1240.71,1319.83 1247.07,1316.96 1247.07,1316.96C1248.34,1316.64 1247.69,1319.19 1247.69,1319.19C1245.8,1326.48 1247.38,1333.79 1247.38,1333.79C1247.38,1338.86 1241.99,1338.55 1241.99,1338.55C1195.97,1344.87 1159.16,1341.71 1159.16,1341.71C1148.37,1339.82 1148.05,1334.08 1148.05,1334.08C1150.59,1325.21 1147.1,1320.13 1147.1,1320.13C1145.81,1319.19 1146.77,1318.53 1146.77,1318.53ZM1156.93,1337.27L1157.89,1336.31L1157.89,1327.12L1157.25,1325.52C1164.23,1325.23 1166.45,1328.05 1166.45,1328.05C1171.21,1336 1162.95,1337.91 1162.95,1337.91C1160.92,1338.3 1158.83,1338.08 1156.93,1337.27ZM1172.79,1326.79L1177.55,1327.12C1176.28,1327.75 1176.6,1329.65 1176.6,1329.65L1176.29,1338.21L1177.56,1340.1L1172.48,1339.8C1173.75,1338.84 1173.75,1338.21 1173.75,1338.21L1173.75,1329.01C1173.75,1327.75 1172.79,1326.79 1172.79,1326.79ZM1161.05,1327.12L1160.74,1336.02C1164.23,1336.31 1164.87,1333.46 1164.87,1333.46C1165.5,1331.89 1164.23,1329.66 1164.23,1329.66C1162.96,1327.12 1161.05,1327.12 1161.05,1327.12ZM1182.63,1327.75L1191.83,1327.75L1192.14,1329.99C1190.87,1329.32 1189.29,1329.32 1189.29,1329.32L1187.38,1329.32L1187.38,1332.83L1188.34,1332.83L1190.56,1332.19L1190.25,1335.06L1188.67,1334.73L1187.39,1334.73L1187.39,1338.56L1189.61,1338.56C1190.88,1338.56 1191.83,1337.6 1191.83,1337.6L1191.83,1340.13L1184.85,1339.83L1182.95,1339.83C1182.63,1339.5 1182.95,1339.5 1182.95,1339.5C1183.58,1339.5 1184.22,1338.87 1184.22,1338.87L1184.22,1329.04C1183.91,1328.39 1182.63,1327.75 1182.63,1327.75ZM1196.91,1327.43L1201.67,1327.75C1201.38,1328.24 1201.16,1328.77 1201.04,1329.32L1201.04,1335.68C1201.35,1338.21 1203.26,1337.91 1203.26,1337.91C1205.48,1337.59 1205.16,1334.72 1205.16,1334.72L1205.16,1328.39L1204.53,1327.75L1208.02,1327.75C1207.71,1328.05 1207.71,1328.69 1207.71,1328.69L1207.71,1335.35C1207.38,1339.48 1202.95,1339.82 1202.95,1339.82C1198.19,1339.49 1198.19,1335.06 1198.19,1335.06L1198.19,1328.7C1197.86,1328.19 1197.42,1327.76 1196.91,1327.43ZM1220.08,1326.16L1227.69,1325.52L1228.64,1327.75C1227.69,1327.43 1226.42,1327.43 1226.42,1327.43L1224.53,1327.43L1224.53,1330.62L1226.42,1330.62C1226.73,1330.3 1227.38,1329.99 1227.38,1329.99L1227.69,1332.83C1227.06,1332.19 1226.42,1332.19 1226.42,1332.19L1224.53,1332.19L1224.53,1335.69L1226.75,1335.69C1227.38,1335.69 1228.34,1334.73 1228.34,1334.73L1228.34,1336.96L1221.04,1337.92L1221.67,1337.29L1221.36,1327.13C1221.35,1326.48 1220.08,1326.16 1220.08,1326.16ZM1233.74,1324.89L1234.05,1327.42C1234.68,1326.14 1236.9,1326.14 1236.9,1326.14L1237.21,1335.34L1236.58,1336L1240.38,1335.34L1239.74,1335.04L1239.43,1325.85C1241.32,1325.21 1242.28,1326.14 1242.28,1326.14L1241.97,1323.62L1241.65,1323.91L1234.36,1324.58L1233.72,1324.58L1233.72,1324.89L1233.74,1324.89ZM1252.13,1314.73C1249.91,1310.61 1251.49,1307.77 1251.49,1307.77C1253.4,1302.05 1258.79,1302.67 1258.79,1302.67C1261.96,1304.56 1261.66,1302.04 1261.66,1302.04C1264.82,1297.6 1268.62,1300.14 1268.62,1300.14C1269.67,1301.43 1271.12,1302.33 1272.75,1302.67C1274.98,1305.54 1273.71,1307.11 1273.71,1307.11C1273.54,1308.11 1273.77,1309.14 1274.34,1309.97C1277.21,1310.61 1276.87,1313.8 1276.87,1313.8C1277.51,1317.27 1275.28,1322.99 1275.28,1322.99C1273.38,1324.59 1271.18,1323.29 1271.18,1323.29C1269.58,1323.62 1270.22,1324.25 1270.22,1324.25C1271.82,1326.78 1270.22,1328.05 1270.22,1328.05C1267.69,1330.92 1264.19,1330.61 1264.19,1330.61C1259.12,1330.61 1258.79,1328.05 1258.79,1328.05C1258.16,1325.85 1255.31,1325.85 1255.31,1325.85C1251.18,1324.58 1250.86,1320.45 1250.86,1320.45C1250.55,1318.22 1252.13,1317.26 1252.13,1317.26C1253.72,1316.33 1252.13,1314.73 1252.13,1314.73ZM1260.7,1317.6C1261.97,1322.36 1259.13,1324.27 1259.13,1324.27C1256.58,1324.59 1256.26,1322.67 1256.26,1322.67C1256.26,1320.78 1254.67,1320.46 1254.67,1320.46C1253.72,1316.64 1255.63,1316.64 1255.63,1316.64C1258.81,1315.69 1260.7,1317.6 1260.7,1317.6ZM1266.73,1315.69C1267.37,1318.86 1271.83,1321.39 1271.83,1321.39C1274.03,1321.39 1273.1,1318.22 1273.1,1318.22C1271.83,1316.63 1272.46,1315.69 1272.46,1315.69C1275.63,1315.06 1273.4,1312.19 1273.4,1312.19C1267.37,1310.61 1266.73,1315.69 1266.73,1315.69ZM1262.3,1310.61C1262.3,1304.58 1258.47,1304.91 1258.47,1304.91C1256.58,1305.21 1256.58,1307.12 1256.58,1307.12C1257.21,1310.31 1255.94,1310.31 1255.94,1310.31C1253.09,1310.94 1254.99,1314.11 1254.99,1314.11C1255.94,1315.38 1256.58,1315.07 1256.58,1315.07C1259.43,1315.07 1261.66,1313.47 1261.66,1313.47C1263.23,1313.16 1262.3,1310.61 1262.3,1310.61ZM1266.43,1303.94C1267.37,1305.84 1268.96,1305.54 1268.96,1305.54C1272.46,1305.54 1270.23,1309.04 1270.23,1309.04C1268.34,1311.57 1265.8,1311.88 1265.8,1311.88C1262.3,1307.78 1262.61,1305.55 1262.61,1305.55C1262.61,1300.45 1266.43,1303.94 1266.43,1303.94ZM1264.2,1319.19C1268.96,1319.83 1268.64,1324.89 1268.64,1324.89C1267.37,1327.12 1266.11,1326.16 1266.11,1326.16C1264.51,1324.59 1263.58,1325.86 1263.58,1325.86C1263.58,1328.7 1261.35,1326.79 1261.35,1326.79C1260.07,1320.13 1264.2,1319.19 1264.2,1319.19Z" style="fill:white;"></path> <path d="M1268.62,1331.88C1273.38,1330.61 1273.38,1326.16 1273.38,1326.16C1273.77,1326.04 1274.13,1325.87 1274.47,1325.65C1277.95,1327.83 1278.78,1330.62 1278.78,1330.62C1280.05,1331.26 1281.97,1334.42 1281.97,1334.42C1281.65,1330.3 1279.74,1329.32 1279.74,1329.32C1279.03,1327.32 1277.87,1325.51 1276.34,1324.03C1278.78,1321 1278.78,1316.33 1278.78,1316.33C1282.28,1315.06 1285.45,1319.49 1285.45,1319.49C1284.17,1320.13 1282.92,1319.82 1282.92,1319.82C1288.01,1322.02 1287.04,1329.97 1287.04,1329.97C1284.81,1329.97 1283.88,1329.01 1283.88,1329.01C1287.68,1333.45 1283.88,1342.03 1283.88,1342.03C1280.05,1340.44 1279.41,1336 1279.41,1336C1280.05,1339.17 1278.78,1340.1 1278.78,1340.1C1275.62,1339.46 1274.34,1335.34 1274.34,1335.34C1274.02,1339.17 1272.11,1337.57 1272.11,1337.57C1271.18,1336.94 1271.18,1334.71 1271.18,1334.71C1269.6,1334.42 1268.62,1331.88 1268.62,1331.88ZM1308.3,1328.39C1306.99,1328.09 1305.71,1327.67 1304.47,1327.14C1303.68,1329.3 1301.58,1334.54 1299.1,1337.27C1299.1,1337.27 1301.92,1331.62 1303.57,1326.74C1300.79,1325.45 1298.22,1323.76 1295.94,1321.72C1295.62,1326.48 1290.54,1323.93 1290.54,1323.93C1288.01,1328.69 1292.75,1329.99 1292.75,1329.99C1296.57,1329.66 1298.47,1327.43 1298.47,1327.43C1302.9,1326.5 1299.74,1329.99 1299.74,1329.99C1298.14,1331.55 1294.67,1332.19 1294.67,1332.19C1289.91,1333.79 1292.44,1337.59 1292.44,1337.59C1294.97,1341.09 1297.51,1339.82 1297.51,1339.82C1299.74,1340.11 1299.74,1341.71 1299.74,1341.71C1301.33,1345.51 1303.86,1343.3 1303.86,1343.3C1306.73,1340.11 1305.13,1336.95 1305.13,1336.95C1303.54,1332.83 1304.5,1331.26 1304.5,1331.26C1303.54,1325.54 1306.09,1329.66 1306.09,1329.66C1306.73,1330.62 1307.37,1333.16 1307.37,1333.16C1308.3,1335.37 1308.64,1333.8 1308.64,1333.8L1308.3,1328.39ZM1258.81,1301.08L1260.7,1297.6C1260.4,1293.77 1256.58,1291.57 1256.58,1291.57C1255.94,1292.84 1256.58,1294.41 1256.58,1294.41C1254.67,1291.57 1248.96,1289.65 1248.96,1289.65C1248.33,1291.24 1248.96,1294.41 1248.96,1294.41C1246.1,1289.01 1240.07,1288.71 1240.07,1288.71C1240.07,1291.24 1241.34,1292.84 1241.34,1292.84C1238.48,1290.61 1232.76,1291.24 1232.76,1291.24C1233.72,1296.96 1238.48,1300.76 1238.48,1300.76L1237.85,1302.36C1234.36,1299.8 1233.41,1301.72 1233.41,1301.72C1233.1,1302.02 1233.41,1302.66 1233.41,1302.66C1235.31,1305.82 1242.3,1308.69 1242.3,1308.69C1240.39,1309.32 1239.75,1310.92 1239.75,1310.92C1242.3,1315.99 1249.91,1315.68 1249.91,1315.68C1248.91,1312.22 1248.98,1308.54 1250.1,1305.12C1249.3,1304.62 1244.99,1301.88 1243.57,1300.44C1243.57,1300.44 1242.3,1298.87 1239.77,1296.64L1235.32,1293.14C1235.32,1293.14 1238.82,1294.41 1241.35,1296.33C1241.35,1296.33 1247.04,1301.17 1251.15,1303.29C1254.32,1300.25 1258.81,1301.08 1258.81,1301.08ZM1388.3,1317.6C1390.19,1325.52 1388.91,1336.02 1388.91,1336.02C1424.47,1349.65 1485.39,1341.38 1485.39,1341.38C1495.54,1340.11 1495.88,1338.55 1495.88,1338.55C1499.68,1338.22 1499.05,1332.51 1499.05,1332.51C1496.82,1329.65 1495.54,1318.22 1495.54,1318.22C1487.28,1322.98 1440.66,1324.25 1440.66,1324.25C1402.89,1325.23 1388.3,1317.6 1388.3,1317.6ZM1392.73,1322.36L1396.23,1322.99L1398.13,1329.99L1401.93,1324.59L1405.09,1324.89L1404.79,1325.85L1404.79,1336L1405.43,1337.27L1400.99,1336.64L1401.63,1335.68L1401.63,1330.28L1397.51,1335.68L1394.64,1329.01L1394.64,1335.04L1392.11,1333.77L1392.41,1333.14L1392.73,1323.91L1392.73,1322.36ZM1409.55,1327.12C1404.16,1332.19 1409.55,1337.91 1409.55,1337.91C1412.72,1340.75 1416.84,1337.91 1416.84,1337.91C1421.6,1331.24 1416.52,1327.12 1416.52,1327.12C1411.76,1324.59 1409.55,1327.12 1409.55,1327.12ZM1413.04,1327.43C1407.65,1329.99 1411.45,1335.69 1411.45,1335.69C1412.72,1338.56 1414.61,1336.33 1414.61,1336.33C1417.17,1333.8 1415.25,1329.66 1415.25,1329.66C1414.61,1326.79 1413.04,1327.43 1413.04,1327.43ZM1421.28,1326.79L1423.83,1326.79L1427.96,1332.51L1427.63,1328.05L1427.31,1327.12L1431.43,1327.42L1430.8,1328.38L1430.8,1339.17L1431.12,1340.1L1428.89,1340.1L1424.46,1333.43L1424.46,1337.9L1424.76,1339.17L1421.59,1338.84L1421.89,1337.27L1422.21,1328.05L1421.28,1326.79ZM1441.29,1327.43L1445.73,1327.43C1450.49,1327.43 1451.45,1333.79 1451.45,1333.79C1451.45,1340.75 1444.75,1340.45 1444.75,1340.45L1441.28,1340.13L1442.55,1339.19L1442.23,1328.4L1441.29,1327.43ZM1445.09,1329.03L1445.09,1339.18C1449.22,1337.59 1448.26,1332.83 1448.26,1332.83C1447.32,1329.03 1445.09,1329.03 1445.09,1329.03ZM1453.65,1327.43L1455.55,1327.13C1458.1,1325.86 1461.27,1326.81 1461.27,1326.81C1464.43,1330.31 1460.94,1333.47 1460.94,1333.47L1463.81,1337.93C1464.34,1338.07 1464.79,1338.4 1465.08,1338.87C1463.51,1339.5 1462.55,1338.87 1462.55,1338.87C1459.68,1336.98 1459.05,1334.43 1459.05,1334.43L1457.48,1334.43L1457.48,1339.19L1457.78,1340.13L1454.61,1340.13L1454.91,1339.19L1454.61,1328.08L1453.65,1327.43ZM1457.48,1333.15L1457.48,1328.05C1458.75,1326.78 1459.68,1328.38 1459.68,1328.38C1461.28,1330.9 1459.68,1332.5 1459.68,1332.5C1459.05,1333.45 1457.48,1333.15 1457.48,1333.15ZM1471.43,1325.23C1477.46,1324.9 1477.46,1332.83 1477.46,1332.83C1476.83,1339.18 1471.11,1339.18 1471.11,1339.18C1465.71,1338.55 1465.41,1331.89 1465.41,1331.89C1466.35,1324.59 1471.43,1325.23 1471.43,1325.23ZM1471.43,1327.12C1474.6,1327.42 1474.3,1332.19 1474.3,1332.19C1474.6,1336.65 1471.43,1337.59 1471.43,1337.59C1469.84,1337.91 1469.2,1335.69 1469.2,1335.69C1467.31,1329.66 1469.84,1327.77 1469.84,1327.77C1470.17,1327.12 1471.43,1327.12 1471.43,1327.12ZM1479.36,1324.89L1483.79,1324.59L1483.16,1325.86L1483.48,1336.95L1484.12,1337.59L1480.32,1337.91L1480.62,1337.27L1480.32,1325.85L1479.36,1324.89ZM1486.98,1323.93L1487.28,1327.12L1488.24,1326.16L1489.84,1325.86L1489.84,1336.02L1489.51,1336.95L1492.68,1336.31L1492.38,1335.35L1492.38,1324.89L1494.58,1324.89L1494.29,1322.36L1493.65,1322.66L1487.93,1323.93L1486.98,1323.93ZM1357.19,1309.67C1357.27,1310.48 1357.4,1311.24 1357.57,1311.96C1357.71,1311.87 1357.85,1311.79 1358,1311.72C1359.01,1308.91 1358.45,1307.77 1358.45,1307.77L1359.39,1307.11C1359.82,1308.19 1359.39,1310.14 1359.06,1311.28C1359.92,1311.01 1360.83,1310.92 1361.72,1311.01C1362.14,1309.53 1362.32,1308 1362.25,1306.47L1357.69,1305.91C1356.66,1307.59 1357.19,1309.67 1357.19,1309.67ZM1357.97,1313.4C1358.76,1315.84 1360,1317.7 1361.37,1319.14C1362.84,1318.03 1362.51,1313.75 1362.33,1312.15C1360.77,1311.98 1359.21,1312.43 1357.97,1313.4ZM1362.09,1319.86C1363.58,1321.22 1365.12,1322.14 1366.39,1322.72C1367.04,1321.08 1367.29,1319.31 1367.1,1317.56C1365.3,1317.56 1363.41,1318.17 1362.62,1318.42C1362.43,1319.09 1362.2,1319.57 1362.09,1319.86ZM1367.43,1323.15C1368.34,1323.5 1368.92,1323.63 1368.92,1323.63C1370.04,1323.79 1370.94,1323.76 1371.73,1323.63L1371.5,1320.74C1370.49,1320.68 1368.71,1321.57 1367.86,1322.06L1367.43,1323.15ZM1372.75,1323.37C1374.36,1322.78 1375.54,1321.35 1375.81,1319.65C1374.85,1319.29 1373.81,1319.2 1372.8,1319.39L1372.75,1323.37ZM1375.91,1318.38C1375.81,1314.07 1374.42,1311.09 1372.54,1308.95C1372.77,1309.75 1373.58,1312.77 1373.07,1314.67L1374.64,1314.08L1374.94,1315.04L1372.73,1315.32C1372.86,1316.35 1372.83,1317.4 1372.65,1318.43C1374.32,1317.9 1375.4,1318.16 1375.91,1318.38ZM1371.73,1308.12C1370.54,1307.03 1369.18,1306.15 1367.7,1305.51C1367.96,1305.89 1368.74,1307.31 1368.63,1309.41C1369.54,1308.72 1370.61,1308.27 1371.73,1308.12ZM1365.86,1304.81C1364.39,1304.33 1362.86,1304.05 1361.32,1303.95C1360.21,1304.03 1359.15,1304.47 1358.31,1305.2L1362.97,1305.52L1365.86,1304.81ZM1363.12,1306.63C1363.36,1307.85 1363.6,1308.96 1363.17,1310.05C1365.56,1309.14 1367.1,1309.6 1367.69,1309.84C1367.74,1308.47 1367.42,1307.11 1366.75,1305.91L1363.12,1306.63ZM1368.89,1310.96C1369.32,1312.39 1369.25,1313.92 1368.71,1315.32C1370.46,1314.51 1371.55,1314.58 1372.14,1314.76C1372.38,1313.11 1372.15,1311.42 1371.48,1309.89C1370.51,1309.91 1369.59,1310.29 1368.89,1310.96ZM1368.28,1316.64C1368.62,1318.08 1368.59,1319.58 1368.18,1321C1369.83,1319.22 1371.32,1319.17 1371.69,1319.17C1372.15,1318.53 1372.2,1316.48 1372.15,1315.95C1370.83,1315.96 1369.53,1316.19 1368.28,1316.64ZM1367.8,1311.52C1366.21,1311.05 1364.51,1311.16 1362.99,1311.84C1363.27,1313.99 1363.17,1315.77 1362.91,1317.11C1364.32,1316.37 1365.91,1316.07 1367.48,1316.25C1368.03,1314.73 1368.14,1313.09 1367.8,1311.52ZM1289.27,1215.4L1283.88,1198.26L1286.72,1190.65L1289.91,1203.02L1287.04,1201.75C1289.27,1211.58 1297.2,1206.51 1297.2,1206.51C1300.7,1202.71 1297.5,1201.44 1297.5,1201.44C1293.4,1199.21 1292.74,1201.75 1292.74,1201.75C1289.89,1190.96 1297.2,1195.09 1297.2,1195.09C1296.87,1188.1 1299.73,1187.47 1299.73,1187.47C1303.53,1188.74 1303.53,1194.78 1303.53,1194.78C1307.65,1188.11 1310.22,1195.09 1310.22,1195.09C1310.52,1196.05 1309.89,1197.94 1309.89,1197.94C1304.82,1196.05 1304.2,1201.44 1304.2,1201.44C1303.54,1204.93 1309.89,1205.88 1309.89,1205.88C1317.52,1203.66 1317.52,1195.4 1317.52,1195.4C1315.29,1195.72 1311.49,1199.2 1311.49,1199.2L1311.49,1184.92C1313.38,1188.41 1318.16,1190.31 1318.16,1190.31C1317.2,1183.97 1313.69,1180.48 1313.69,1180.48L1327.04,1180.17C1322.58,1184.3 1322.92,1190.33 1322.92,1190.33C1326.72,1189.7 1328.61,1185.89 1328.61,1185.89L1328.93,1198.26C1326.07,1193.83 1323.21,1195.74 1323.21,1195.74C1321.94,1205.24 1330.2,1205.57 1330.2,1205.57C1335.9,1205.57 1336.24,1200.81 1336.24,1200.81C1334.96,1195.1 1331.14,1198.26 1331.14,1198.26C1329.57,1188.74 1336.53,1192.87 1336.53,1192.87C1334.01,1186.53 1338.43,1184.3 1338.43,1184.3C1343.85,1187.47 1341.29,1192.87 1341.29,1192.87C1348.61,1189.07 1347.33,1198.26 1347.33,1198.26C1340.36,1195.09 1341.29,1202.39 1341.29,1202.39C1344.49,1210 1350.81,1204.28 1350.81,1204.28C1352.09,1202.39 1352.41,1200.48 1352.41,1200.48L1349.54,1201.12L1352.41,1191.29L1354.94,1196.37L1356.83,1190.98L1358.43,1192.87L1349.21,1216.03C1321.32,1209.69 1289.27,1215.4 1289.27,1215.4ZM1336.55,1210.96C1334.98,1210.65 1333.38,1210 1333.71,1209.37C1333.71,1208.42 1334.98,1208.1 1336.87,1208.42C1338.44,1208.73 1340.04,1209.37 1339.74,1210C1339.74,1210.96 1338.44,1211.27 1336.55,1210.96ZM1302.27,1211.27C1303.86,1210.96 1305.13,1210.33 1305.13,1209.38C1305.13,1208.74 1303.54,1208.43 1301.97,1208.74C1300.08,1208.74 1298.81,1209.69 1298.81,1210.33C1298.81,1210.96 1300.38,1211.6 1302.27,1211.27ZM1319.73,1204.93L1324.19,1208.74L1319.73,1211.6L1315.63,1208.74L1319.73,1204.93ZM1379.4,1254.75C1379.7,1250.31 1382.24,1245.24 1382.24,1245.24L1378.54,1241.27L1377.27,1243.55C1377.96,1244.2 1378.44,1245.15 1378.44,1246.19C1378.44,1247.63 1377.53,1248.9 1376.39,1249.43L1376.09,1250.78L1379.4,1254.75ZM1377.53,1240.19L1368.28,1230.33C1361.95,1221.12 1357.49,1225.57 1357.49,1225.57L1353.06,1227.16C1356.56,1229.38 1358.45,1233.19 1358.45,1233.19C1362.25,1232.56 1362.58,1234.46 1362.58,1234.46L1372.41,1246.36L1372.41,1246.2C1372.41,1244.29 1373.68,1242.71 1375.28,1242.71C1375.62,1242.71 1376.01,1242.79 1376.34,1242.94L1377.53,1240.19Z" style="fill:white;"></path> <path d="M1364.48,1238.88C1362.25,1236.36 1360.68,1234.45 1359.72,1235.4C1359.72,1235.4 1362.59,1240.79 1364.8,1247.44C1366.39,1252.2 1367.66,1257.6 1367.35,1262.67L1372.08,1263L1373.33,1263.15L1372.9,1260.71C1371.54,1260.44 1370.52,1258.99 1370.52,1257.29C1370.52,1255.06 1371.79,1253.46 1373.38,1253.46C1373.46,1253.46 1373.56,1253.46 1373.64,1253.49L1374.22,1250.75C1373.43,1249.82 1372.63,1248.81 1371.79,1247.77C1370.52,1246.17 1368.92,1244.58 1367.66,1243C1366.71,1241.43 1365.42,1240.16 1364.48,1238.88ZM1374.61,1263.31L1379.71,1263.97C1379.71,1263.97 1378.12,1261.41 1379.08,1256.65L1375.7,1252.61L1375.33,1254.33C1376.12,1255.12 1376.56,1256.2 1376.55,1257.32C1376.53,1258.74 1375.67,1260.02 1374.37,1260.58L1374.61,1263.31Z" style="fill:white;"></path> <path d="M1341.94,1303.94C1344.17,1307.11 1350.84,1306.17 1350.84,1306.17C1351.8,1305.54 1351.48,1301.74 1351.48,1301.74C1350.84,1299.51 1351.18,1298.24 1351.18,1298.24C1352.75,1298.53 1353.07,1300.44 1353.07,1300.44C1353.07,1301.08 1352.11,1304.27 1352.11,1304.27C1359.1,1299.8 1353.07,1291.24 1353.07,1291.24C1354.67,1282.35 1356.87,1280.15 1356.87,1280.15C1364.16,1273.8 1367.99,1276.03 1367.99,1276.03C1374.32,1276.03 1384.81,1279.53 1384.81,1279.53C1388.91,1280.8 1403.52,1283.33 1403.52,1283.33C1403.7,1282.38 1404.14,1281.51 1404.79,1280.8C1408.92,1277.94 1411.76,1264.29 1411.76,1264.29C1411.76,1262.09 1412.72,1263.02 1412.72,1263.02C1413.35,1265.55 1413.04,1266.52 1413.04,1266.52C1413.68,1271.28 1409.85,1279.84 1409.85,1279.84C1417.48,1284.28 1430.5,1283.35 1430.5,1283.35C1439.7,1283.35 1446.99,1278.59 1446.99,1278.59C1455.55,1274.79 1466.34,1275.72 1466.34,1275.72L1466.04,1273.83C1458.11,1270.32 1463.51,1266.2 1463.51,1266.2L1460.32,1261.76C1451.76,1261.13 1425.11,1247.17 1425.11,1247.17C1402.25,1234.48 1390.2,1236.69 1390.2,1236.69C1380.35,1247.17 1381.94,1264.63 1381.94,1264.63L1387.63,1265.27C1387.34,1253.2 1394.63,1246.85 1394.63,1246.85C1396.86,1245.9 1395.26,1248.44 1395.26,1248.44C1387.34,1260.17 1390.5,1268.43 1390.5,1268.43C1387,1266.84 1366.05,1265.9 1366.05,1265.9C1362.61,1264.98 1358.93,1265.55 1355.92,1267.47C1352.1,1270.66 1350.53,1275.73 1350.53,1275.73L1346.4,1290.03C1342.27,1298.87 1341.94,1303.94 1341.94,1303.94ZM1430.5,1266.81C1429.23,1273.48 1425.11,1280.79 1425.11,1280.79C1425.74,1283 1428.27,1279.52 1428.27,1279.52C1431.14,1274.42 1432.07,1267.43 1432.07,1267.43C1431.43,1262.08 1430.5,1266.81 1430.5,1266.81ZM1420.01,1262.37C1418.44,1272.2 1413.68,1278.56 1413.68,1278.56C1412.72,1281.09 1415.57,1279.19 1415.57,1279.19C1419.7,1273.48 1420.97,1263.01 1420.97,1263.01C1420.64,1260.14 1420.01,1262.37 1420.01,1262.37ZM1425.11,1265.24C1424.78,1271.91 1419.07,1279.19 1419.07,1279.19C1417.8,1281.43 1420.64,1280.15 1420.64,1280.15C1425.74,1275.69 1426.67,1264.9 1426.67,1264.9C1426.04,1261.41 1425.11,1265.24 1425.11,1265.24ZM1460.01,1278.24C1462.25,1277.46 1464.65,1277.26 1467,1277.65L1467.68,1281.05C1466.25,1281.8 1465.36,1283.31 1465.4,1284.93C1465.4,1287.13 1466.97,1289.03 1468.9,1289.03L1469.2,1289.03L1469.2,1293.97C1465.79,1295.06 1462.29,1295.86 1458.74,1296.35C1453.34,1297.62 1457.14,1300.79 1457.14,1300.79C1460.01,1303.32 1460.64,1305.55 1460.64,1305.55C1463.17,1308.42 1459.05,1310.62 1459.05,1310.62C1450.49,1312.22 1440.95,1320.78 1440.95,1320.78C1434.29,1321.41 1424.47,1320.48 1424.47,1320.48C1421.91,1318.56 1420.01,1314.12 1420.01,1314.12C1423.51,1310.96 1426.67,1314.76 1426.67,1314.76C1429.54,1316.35 1434.94,1315.72 1434.94,1315.72C1439.7,1313.19 1446.69,1310 1446.69,1310C1447.96,1309.06 1449.85,1309.36 1449.85,1309.36C1451.75,1308.73 1449.53,1307.13 1449.53,1307.13C1446.33,1304.89 1443.45,1302.22 1440.97,1299.21C1438.44,1295.08 1440.97,1293.18 1440.97,1293.18C1444.77,1288.71 1460.01,1278.24 1460.01,1278.24ZM1468.96,1278.24C1471.02,1279.05 1472.78,1280.49 1473.98,1282.36C1475.87,1286.48 1475.25,1287.46 1475.25,1287.46C1474.61,1288.73 1475.25,1291.26 1475.25,1291.26C1473.84,1292.12 1472.36,1292.84 1470.81,1293.41L1470.81,1288.34C1471.82,1287.49 1472.39,1286.23 1472.38,1284.91C1472.38,1282.79 1470.94,1280.93 1469.14,1280.79L1468.96,1278.24Z" style="fill:white;"></path> <path d="M1538.38,1268.4C1539.98,1261.74 1538.71,1254.45 1538.71,1254.45C1536.48,1249.69 1534.25,1248.73 1534.25,1248.73C1534.25,1235.1 1526.01,1233.19 1526.01,1233.19C1526.01,1235.73 1527.58,1239.22 1527.58,1239.22C1528.21,1240.49 1526.01,1238.9 1526.01,1238.9C1525.68,1234.46 1521.55,1232.23 1521.55,1232.23C1518.38,1230.34 1516.79,1228.11 1516.79,1228.11C1513.29,1233.81 1522.51,1239.86 1522.51,1239.86C1508.21,1239.22 1483.47,1244.29 1483.47,1244.29C1466.01,1248.43 1456.17,1242.4 1456.17,1242.4C1446.04,1237.64 1449.84,1228.43 1449.84,1228.43C1454.6,1218.91 1465.07,1219.86 1465.07,1219.86C1470.24,1220 1475.37,1220.86 1480.32,1222.4C1495.54,1226.53 1511.73,1221.77 1511.73,1221.77C1519.65,1217.96 1522.2,1210.03 1522.2,1210.03C1517.44,1213.53 1510.77,1212.88 1510.77,1212.88C1506.67,1216.69 1493.31,1217.33 1493.31,1217.33C1502.21,1213.84 1501.9,1210.34 1501.9,1210.34C1502.53,1208.12 1506,1205.25 1506,1205.25C1500.6,1206.21 1494.27,1211.29 1494.27,1211.29C1490.47,1214.15 1480.62,1214.15 1480.62,1214.15C1479.05,1214.79 1476.18,1213.84 1476.18,1213.84C1482.51,1211.93 1482.85,1209.39 1482.85,1209.39C1467.93,1205.27 1454.91,1214.48 1454.91,1214.48C1442.21,1224.95 1446.04,1235.42 1446.04,1235.42C1448.24,1245.58 1466.32,1248.74 1466.32,1248.74C1483.14,1249.7 1503.16,1246.85 1503.16,1246.85C1518.38,1244.95 1522.51,1247.17 1522.51,1247.17C1524.4,1248.44 1522.51,1248.74 1522.51,1248.74C1513.29,1247.47 1510.45,1258.26 1510.45,1258.26C1516.78,1251.28 1525.36,1253.19 1525.36,1253.19C1526.93,1253.49 1525.36,1253.83 1525.36,1253.83C1520.9,1253.19 1517.74,1256.06 1517.74,1256.06C1523.77,1259.86 1528.2,1258.26 1528.2,1258.26C1530.76,1257.63 1532.03,1255.1 1532.03,1255.1C1535.83,1260.79 1535.53,1265.25 1533.92,1268.42C1531.69,1272.22 1527.57,1273.81 1527.57,1273.81C1518.37,1276.04 1505.35,1271.28 1505.35,1271.28C1501.55,1269.39 1494.88,1269.69 1494.88,1269.69C1493.92,1269.39 1492.35,1268.75 1491.08,1268.42C1481.56,1265.55 1463.78,1263.02 1463.78,1263.02L1465.38,1265.25C1467.9,1265.89 1469.18,1267.15 1469.5,1268.42C1469.8,1269.69 1469.18,1270.95 1469.18,1270.95C1468.54,1272.54 1467.58,1273.48 1467.58,1273.48L1468.88,1276.03C1479.03,1279.19 1477.11,1288.09 1477.11,1288.09C1478.07,1296.02 1482.83,1299.18 1482.83,1299.18C1493.62,1308.7 1504.73,1307.11 1504.73,1307.11C1508.55,1307.11 1509.19,1308.07 1509.19,1308.07C1512.99,1310.3 1512.35,1320.45 1512.35,1320.45C1512.35,1324.58 1510.46,1329.01 1510.46,1329.01C1511.73,1332.18 1518.06,1330.61 1518.06,1330.61C1519.02,1330.28 1519.36,1329.01 1519.36,1329.01C1519.99,1327.12 1518.4,1325.21 1518.4,1325.21C1517.76,1324.25 1518.4,1324.58 1518.4,1324.58C1522.52,1326.47 1522.2,1331.24 1522.2,1331.24C1528.55,1323.29 1519.67,1317.9 1519.67,1317.9C1518.4,1317.6 1517.44,1317.26 1517.44,1317.26C1516.5,1313.16 1516.17,1304.9 1516.17,1304.9L1516.17,1302.67L1513,1299.17C1504.1,1301.4 1497.77,1298.24 1497.77,1298.24C1498.07,1296.34 1498.07,1294.11 1498.07,1294.11C1498.71,1288.39 1496.8,1274.42 1496.8,1274.42C1499.33,1275.69 1513.95,1278.22 1513.95,1278.22C1517.42,1279.82 1524.41,1279.52 1524.41,1279.52C1532.68,1281.41 1530.13,1287.12 1530.13,1287.12C1536.8,1281.72 1531.07,1277.92 1531.07,1277.92C1535.56,1276.33 1537.45,1272.53 1538.38,1268.4ZM1095.05,1271.57C1092.2,1264.9 1096.63,1256.34 1096.63,1256.34C1104.88,1243.33 1116.31,1240.16 1116.31,1240.16C1122.34,1230.96 1131.55,1230.96 1131.55,1230.96C1130.28,1233.5 1128.05,1235.72 1128.05,1235.72C1133.75,1234.45 1138.84,1229.69 1138.84,1229.69C1138.84,1236.99 1132.17,1239.85 1132.17,1239.85C1156.61,1243.02 1189.92,1239.21 1189.92,1239.21C1203.58,1236.99 1202.93,1224.29 1202.93,1224.29C1200.08,1212.87 1185.8,1219.53 1185.8,1219.53C1155.64,1236.99 1141.05,1213.83 1141.05,1213.83C1148.36,1216.68 1162.64,1216.68 1162.64,1216.68C1157.24,1214.46 1150.26,1206.53 1150.26,1206.53C1154.71,1207.16 1156.93,1209.07 1156.93,1209.07C1164.54,1213.19 1173.12,1212.25 1173.12,1212.25C1170.57,1209.39 1166.45,1204.63 1166.45,1204.63C1171.53,1206.85 1176.6,1206.85 1176.6,1206.85C1179.78,1207.16 1182.31,1207.49 1182.31,1207.49C1187.71,1208.43 1190.56,1207.49 1190.56,1207.49C1206.75,1209.07 1208.65,1223.98 1208.65,1223.98C1210.24,1243.02 1188.34,1244.61 1188.34,1244.61C1179.44,1247.16 1130.26,1246.51 1130.26,1246.51C1135.35,1248.73 1136.62,1253.49 1136.62,1253.49C1137.57,1255.72 1138.84,1257.32 1138.84,1257.32C1133.75,1257.61 1128.68,1250.96 1128.68,1250.96C1130.28,1254.12 1134.4,1258.88 1134.4,1258.88C1131.55,1260.15 1125.52,1252.85 1125.52,1252.85C1116,1244.93 1107.75,1253.18 1107.75,1253.18C1098.85,1260.14 1100.45,1266.17 1100.45,1266.17C1100.38,1268.2 1101.19,1270.17 1102.66,1271.57C1105.84,1275.39 1111.55,1274.76 1111.55,1274.76C1117.58,1274.76 1123.61,1273.16 1128.68,1271.57C1132.08,1270.64 1135.38,1269.37 1138.53,1267.77C1139.49,1267.77 1140.44,1267.88 1141.38,1268.09C1144.23,1266.17 1148.37,1266.5 1148.37,1266.5C1162.32,1265.23 1202.31,1250.61 1202.31,1250.61C1207.72,1248.08 1217.55,1237.92 1217.55,1237.92C1221.04,1240.14 1223.26,1248.4 1223.26,1248.4C1224.28,1247.7 1225.05,1246.7 1225.47,1245.54C1227.38,1252.52 1236.9,1256.33 1236.9,1256.33C1239.75,1256.63 1241.99,1259.49 1241.99,1259.49L1242.93,1256.63C1244.2,1258.55 1253.72,1265.21 1263.57,1271.54C1270.25,1276.12 1277.02,1280.57 1283.88,1284.89C1292.44,1275.37 1298.47,1281.06 1298.47,1281.06C1297.2,1282.33 1295.6,1282.02 1295.6,1282.02C1291.17,1281.7 1288.31,1284.23 1288.31,1284.23C1298.81,1282.66 1300.7,1286.15 1300.7,1286.15C1302.9,1291.22 1295.6,1293.75 1295.6,1293.75C1295.6,1286.78 1288.93,1287.08 1288.93,1287.08C1291.7,1288.49 1293.51,1291.27 1293.69,1294.37C1291.46,1300.4 1286.07,1295.67 1286.07,1295.67C1284.17,1294.71 1281.31,1292.16 1281.31,1292.16C1265.78,1291.2 1250.86,1280.41 1250.86,1280.41L1242.92,1283.92C1238.6,1280.65 1235.12,1276.41 1232.76,1271.53C1231.82,1269.96 1231.18,1268.69 1231.18,1268.69L1231.18,1271.53C1232.14,1275.99 1234.98,1279.79 1234.98,1279.79C1221.34,1295.34 1196.9,1281.39 1196.9,1281.39C1194.05,1280.43 1185.15,1275.67 1185.15,1275.67C1159.77,1275.37 1148.02,1298.21 1148.02,1298.21L1146.11,1301.37C1144.22,1315.67 1139.77,1315.67 1139.77,1315.67C1141.99,1310.27 1136.61,1307.74 1136.61,1307.74C1132.79,1308.38 1123.91,1308.04 1123.91,1308.04C1118.2,1318.19 1122.95,1325.5 1122.95,1325.5C1134.05,1325.2 1129.29,1334.06 1129.29,1334.06C1128.34,1336.92 1125.8,1336.92 1125.8,1336.92C1126.11,1327.73 1117.55,1328.36 1117.55,1328.36C1124.84,1331.23 1123.26,1335.65 1123.26,1335.65C1121.37,1335.33 1119.46,1338.52 1119.46,1338.52C1108.67,1331.85 1110.26,1319.17 1110.26,1319.17C1111.54,1297.26 1116.3,1293.12 1116.3,1293.12C1117.89,1292.49 1118.51,1293.45 1118.51,1293.45C1123.27,1295.68 1129.62,1293.75 1129.62,1293.75C1132.16,1293.11 1132.79,1288.05 1132.79,1288.05C1134.39,1279.16 1140.4,1272.16 1140.4,1272.16C1136.28,1274.09 1113.12,1280.12 1113.12,1280.12C1102.33,1282.64 1099.47,1291.84 1099.47,1291.84C1092.5,1283.28 1103.6,1278.52 1103.6,1278.52C1098.85,1277.29 1096,1274.76 1095.05,1271.57ZM1219.13,1264.28C1222,1270 1230.56,1277.3 1230.56,1277.3C1231.51,1278.24 1233.1,1279.19 1233.1,1279.19C1232.46,1279.83 1230.88,1279.83 1230.88,1279.83C1223.58,1275.71 1218.82,1267.13 1218.82,1267.13C1217.23,1263.97 1219.13,1264.28 1219.13,1264.28ZM1208.65,1270.93C1213.09,1276.33 1214.68,1277.6 1214.68,1277.6C1217.86,1281.43 1221.99,1283.32 1221.99,1283.32C1213.74,1283.32 1208.65,1274.12 1208.65,1274.12C1207.38,1271.57 1207.71,1270.62 1207.71,1270.62L1208.65,1270.93ZM1214.05,1266.81C1216.27,1273.16 1225.79,1279.52 1225.79,1279.52C1228,1280.15 1227.38,1281.72 1227.38,1281.72C1225.47,1282.05 1224.84,1281.09 1224.84,1281.09C1216.28,1278.22 1213.42,1268.73 1213.42,1268.73C1211.83,1265.24 1214.05,1266.81 1214.05,1266.81Z" style="fill:white;"></path> </g> </svg> 