<?xml version="1.0" encoding="UTF-8"?> <svg xmlns="http://www.w3.org/2000/svg" width="280" height="55" viewBox="0 0 280 55" fill="none"><path d="M20.1225 41.9489L1.75415 37.8553L20.1225 32.2456V41.9489Z" fill="#00B0B2"></path><path d="M20.1226 30.4745L0.00695801 36.6217V27.4147L13.9439 23.1626" fill="#1C1466"></path><path d="M0 16.1541L20.1227 10V19.4965L0 25.6438V16.1541Z" fill="#1C1466"></path><path d="M27.147 15.4309H42.2302V19.8828H32.0396V23.9626H41.6641V28.4145H32.0396V32.8665H42.7964V37.3184H27.147V15.4309Z" fill="#1C1466"></path><path d="M50.2196 29.2824L45.1452 22.2944H50.6948L53.3858 26.3742L55.9929 22.2944H61.228L56.2724 29.2824L62.1366 37.3179H56.587L53.267 32.3078L49.6884 37.3179H44.2086L50.2196 29.2824Z" fill="#1C1466"></path><path d="M68.308 29.8059C68.2576 30.8178 68.6143 31.8085 69.3005 32.5625C70.0611 33.2405 71.0499 33.6159 72.0753 33.6159C73.1006 33.6159 74.0895 33.2405 74.8501 32.5625C75.5311 31.8058 75.8849 30.8164 75.8356 29.8059C75.8819 28.7958 75.5285 27.8075 74.8501 27.0493C74.0895 26.3713 73.1006 25.996 72.0753 25.996C71.0499 25.996 70.0611 26.3713 69.3005 27.0493C68.6169 27.8049 68.2606 28.7945 68.308 29.8059V29.8059ZM63.9885 22.2942H68.308V24.272H68.3779C68.5787 23.9736 68.8132 23.6984 69.0768 23.4519C69.4001 23.1597 69.7566 22.9053 70.1392 22.6939C70.5636 22.465 71.011 22.2803 71.4742 22.1426C71.9728 21.9941 72.491 21.9198 73.0119 21.922C74.0631 21.9087 75.1065 22.1032 76.0802 22.494C76.9757 22.8592 77.783 23.4064 78.4497 24.0997C79.1182 24.8107 79.6341 25.6475 79.9664 26.56C80.3324 27.5609 80.5146 28.618 80.5046 29.6819C80.5099 30.7054 80.3446 31.7228 80.0153 32.6935C79.7062 33.6183 79.2329 34.4817 78.6174 35.2433C78.0251 35.9804 77.2821 36.5862 76.4367 37.0214C75.5381 37.4856 74.5365 37.7224 73.5221 37.7105C72.606 37.7109 71.6964 37.5594 70.8312 37.2626C69.993 36.9704 69.2627 36.4376 68.7343 35.7326H68.6714V44.3608H63.9745L63.9885 22.2942Z" fill="#1C1466"></path><path d="M93.7357 28.1037C93.7513 27.7345 93.6899 27.3659 93.5553 27.021C93.4206 26.676 93.2156 26.362 92.9529 26.0983C92.6816 25.823 92.3549 25.6067 91.9938 25.4631C91.6327 25.3195 91.2452 25.2518 90.8561 25.2644C90.3778 25.2519 89.902 25.3364 89.4582 25.5125C89.0819 25.6611 88.7361 25.8759 88.4377 26.1466C88.1604 26.3964 87.9369 26.6987 87.7807 27.0356C87.6203 27.3704 87.53 27.7337 87.5151 28.1037H93.7357ZM97.7197 34.7196C96.9633 35.6717 95.9818 36.4265 94.8611 36.918C93.7402 37.4242 92.5223 37.6874 91.2894 37.6898C90.1627 37.6969 89.0436 37.5079 87.9834 37.1316C86.9862 36.7821 86.0692 36.241 85.2855 35.5397C84.5167 34.842 83.9027 33.995 83.4822 33.0519C83.0485 32.0231 82.8252 30.92 82.8252 29.806C82.8252 28.6919 83.0485 27.5888 83.4822 26.56C83.9045 25.6179 84.5182 24.7712 85.2855 24.0722C86.0692 23.3709 86.9862 22.8298 87.9834 22.4803C89.0436 22.104 90.1627 21.915 91.2894 21.9221C92.3054 21.9086 93.3136 22.0985 94.253 22.4803C95.117 22.8373 95.8886 23.3814 96.5106 24.0722C97.1372 24.8033 97.6121 25.6485 97.9085 26.56C98.2502 27.6086 98.4178 28.7047 98.4047 29.806V31.2601H87.5011C87.6509 32.0827 88.0827 32.8296 88.7243 33.3758C89.3742 33.9089 90.1998 34.1884 91.0448 34.1614C91.7328 34.1843 92.4128 34.0095 93.0019 33.6583C93.5449 33.3067 94.0185 32.8607 94.3997 32.342L97.7197 34.7196Z" fill="#1C1466"></path><path d="M101.305 22.2945H106.002V24.7065H106.065C106.485 23.8858 107.098 23.1766 107.855 22.639C108.631 22.1552 109.537 21.9149 110.455 21.9499C110.727 21.9499 111 21.9499 111.272 21.9843C111.527 22.0021 111.78 22.0436 112.027 22.1084V26.3398C111.702 26.2405 111.37 26.1622 111.035 26.1055C110.697 26.0547 110.356 26.0293 110.014 26.0297C109.285 25.9986 108.557 26.1257 107.883 26.4018C107.39 26.6266 106.973 26.9852 106.68 27.4355C106.384 27.9211 106.198 28.4642 106.135 29.0275C106.04 29.7126 105.996 30.4035 106.002 31.0949V37.3731H101.305V22.2945Z" fill="#1C1466"></path><path d="M125.908 26.0021H121.763V31.0122C121.764 31.39 121.787 31.7674 121.833 32.1424C121.864 32.4502 121.959 32.7483 122.113 33.0177C122.277 33.2793 122.522 33.4822 122.812 33.5965C123.197 33.7421 123.608 33.8101 124.021 33.7964C124.351 33.7901 124.68 33.7625 125.007 33.7137C125.346 33.6937 125.67 33.571 125.936 33.3622V37.2215C125.408 37.4085 124.859 37.5334 124.301 37.5936C123.751 37.6563 123.198 37.6885 122.644 37.6901C121.905 37.6965 121.168 37.6132 120.449 37.442C119.818 37.2952 119.222 37.0283 118.695 36.6564C118.194 36.298 117.789 35.825 117.514 35.2781C117.221 34.6278 117.078 33.9218 117.094 33.2106V26.0021H114.082V22.2945H117.094V17.8425H121.791V22.2945H125.936L125.908 26.0021Z" fill="#1C1466"></path><path d="M136.91 26.712C136.588 26.3057 136.173 25.9798 135.699 25.7607C135.226 25.5416 134.707 25.4355 134.184 25.4508C133.78 25.4512 133.383 25.5457 133.024 25.7265C132.842 25.811 132.691 25.9477 132.59 26.1188C132.489 26.2898 132.442 26.487 132.457 26.6844C132.456 26.8636 132.51 27.0389 132.614 27.1859C132.718 27.3329 132.866 27.4443 133.038 27.5045C133.512 27.7069 134.006 27.8616 134.512 27.9662L136.427 28.4004C137.093 28.5406 137.736 28.7726 138.336 29.0895C138.931 29.4268 139.437 29.8993 139.81 30.4678C140.227 31.1502 140.429 31.9394 140.39 32.7352C140.424 33.58 140.2 34.4155 139.747 35.1334C139.324 35.755 138.762 36.2734 138.105 36.6495C137.404 37.0401 136.64 37.3104 135.847 37.449C135.03 37.6045 134.199 37.6829 133.366 37.6833C132.276 37.6785 131.192 37.5278 130.144 37.2353C129.085 36.9602 128.119 36.4106 127.348 35.6434L130.207 32.5215C130.602 33.0217 131.097 33.4368 131.661 33.7413C132.239 34.0279 132.88 34.1698 133.527 34.1548C134.028 34.1615 134.527 34.0846 135.002 33.9274C135.193 33.8791 135.362 33.7684 135.481 33.6132C135.601 33.458 135.663 33.2675 135.659 33.0728C135.662 32.8857 135.608 32.7019 135.505 32.5448C135.401 32.3877 135.253 32.2645 135.078 32.1907C134.609 31.9687 134.114 31.8044 133.604 31.7014L131.696 31.2673C131.029 31.1217 130.385 30.89 129.78 30.5781C129.185 30.2703 128.678 29.8201 128.306 29.2687C127.89 28.5834 127.688 27.7924 127.726 26.9945C127.706 26.1976 127.896 25.4092 128.278 24.7065C128.63 24.0798 129.123 23.5402 129.718 23.1284C130.34 22.7025 131.036 22.394 131.772 22.2187C132.542 22.0237 133.333 21.9241 134.128 21.9224C135.155 21.9261 136.176 22.0722 137.161 22.3565C138.156 22.6286 139.057 23.1622 139.768 23.9002L136.91 26.712Z" fill="#1C1466"></path><path d="M148.505 18.842C148.507 18.1297 148.795 17.4472 149.306 16.9435C149.816 16.4399 150.509 16.1561 151.231 16.1543C151.766 16.1577 152.289 16.3164 152.733 16.6107C153.178 16.9049 153.524 17.3217 153.73 17.809C153.936 18.2963 153.992 18.8325 153.89 19.3508C153.789 19.8691 153.535 20.3464 153.16 20.7234C152.91 20.9766 152.609 21.1769 152.278 21.312C151.946 21.447 151.59 21.5141 151.231 21.509C150.509 21.5072 149.816 21.2234 149.306 20.7198C148.795 20.2161 148.507 19.5336 148.505 18.8213" fill="#1C1466"></path><path d="M153.579 22.6116H148.875V37.6351H153.579V22.6116Z" fill="#1C1466"></path><path d="M156.969 22.6115H161.484V24.679H161.547C161.711 24.3617 161.921 24.0693 162.169 23.8106C162.458 23.5104 162.787 23.2507 163.148 23.0388C163.55 22.7984 163.982 22.6108 164.434 22.4806C164.94 22.333 165.465 22.261 165.993 22.2669C166.984 22.2266 167.971 22.4104 168.879 22.8045C169.58 23.1387 170.173 23.659 170.592 24.3068C171.017 24.9958 171.298 25.7622 171.416 26.5604C171.569 27.4899 171.644 28.4304 171.64 29.3721V37.6419H166.936V30.2749C166.936 29.8384 166.922 29.379 166.894 28.8966C166.867 28.4572 166.77 28.0248 166.608 27.6148C166.469 27.2378 166.227 26.9061 165.909 26.6568C165.497 26.3843 165.006 26.2535 164.511 26.2847C163.999 26.2606 163.489 26.3725 163.036 26.6086C162.674 26.8142 162.376 27.1148 162.176 27.4769C161.972 27.857 161.84 28.2702 161.785 28.6967C161.722 29.1674 161.692 29.6417 161.694 30.1164V37.6281H156.99L156.969 22.6115Z" fill="#1C1466"></path><path d="M180.203 15.7061H187.597L192.707 29.9853H192.77L197.914 15.7061H205.281V37.5935H200.388V20.8058H200.325L194.496 37.5935H190.764L185.158 20.8058H185.088V37.5935H180.203V15.7061Z" fill="#00B0B2"></path><path d="M213.333 30.0818C213.287 31.0931 213.643 32.082 214.325 32.8384C215.086 33.513 216.073 33.8863 217.096 33.8863C218.12 33.8863 219.107 33.513 219.868 32.8384C220.553 32.0836 220.909 31.0935 220.86 30.0818C220.909 29.0701 220.553 28.0801 219.868 27.3252C219.109 26.6463 218.121 26.2702 217.096 26.2702C216.072 26.2702 215.084 26.6463 214.325 27.3252C213.643 28.0816 213.287 29.0706 213.333 30.0818V30.0818ZM208.629 30.0818C208.613 28.9656 208.84 27.859 209.293 26.8359C209.713 25.8928 210.327 25.0457 211.096 24.3481C211.88 23.6591 212.794 23.1298 213.787 22.7906C215.929 22.046 218.264 22.046 220.406 22.7906C221.402 23.1416 222.319 23.6825 223.104 24.3825C223.873 25.0786 224.485 25.9262 224.9 26.8704C225.334 27.8991 225.557 29.0022 225.557 30.1163C225.557 31.2304 225.334 32.3334 224.9 33.3622C224.485 34.3064 223.873 35.154 223.104 35.85C222.319 36.55 221.402 37.0909 220.406 37.442C218.264 38.1865 215.929 38.1865 213.787 37.442C212.792 37.0924 211.877 36.5513 211.096 35.85C210.327 35.1523 209.713 34.3053 209.293 33.3622C208.84 32.3389 208.614 31.2324 208.629 30.1163" fill="#00B0B2"></path><path d="M228.318 22.57H232.833V24.6374H232.896C233.063 24.32 233.275 24.0277 233.525 23.7691C233.813 23.4709 234.14 23.2114 234.496 22.9972C234.898 22.7564 235.33 22.5709 235.782 22.4459C236.29 22.2961 236.818 22.2218 237.348 22.2254C238.34 22.185 239.328 22.3713 240.235 22.7698C240.933 23.1033 241.523 23.6209 241.94 24.2653C242.366 24.9572 242.649 25.7254 242.772 26.5257C242.923 27.4554 242.995 28.3959 242.989 29.3374V37.6073H238.299V30.2333C238.299 29.8061 238.299 29.3512 238.25 28.8895C238.222 28.4501 238.126 28.0177 237.963 27.6077C237.825 27.2303 237.583 26.8985 237.264 26.6497C236.854 26.3748 236.361 26.2438 235.866 26.2776C235.355 26.2568 234.846 26.3685 234.392 26.6015C234.029 26.8087 233.729 27.1087 233.525 27.4698C233.321 27.8499 233.188 28.2631 233.133 28.6896C233.074 29.1606 233.044 29.6347 233.043 30.1093V37.5935H228.339L228.318 22.57Z" fill="#00B0B2"></path><path d="M256.751 28.3796C256.769 28.0101 256.708 27.641 256.573 27.2958C256.439 26.9505 256.233 26.6367 255.968 26.3742C255.697 26.0977 255.371 25.88 255.01 25.7352C254.649 25.5904 254.261 25.5217 253.871 25.5334C253.393 25.5245 252.917 25.6112 252.473 25.7884C252.101 25.9373 251.758 26.1496 251.46 26.4156C251.182 26.6674 250.958 26.9721 250.803 27.3115C250.644 27.6472 250.551 28.0097 250.53 28.3796H256.751ZM260.735 34.9955C259.977 35.9476 258.993 36.7004 257.869 37.187C256.751 37.6919 255.535 37.9529 254.305 37.952C253.18 37.9596 252.063 37.7706 251.006 37.3938C250.008 37.0442 249.091 36.5031 248.308 35.8018C247.534 35.108 246.92 34.2599 246.504 33.314C246.071 32.2852 245.847 31.1821 245.847 30.0681C245.847 28.954 246.071 27.8509 246.504 26.8222C246.92 25.8762 247.534 25.0282 248.308 24.3343C249.096 23.6503 250.012 23.1257 251.006 22.7906C252.063 22.4138 253.18 22.2248 254.305 22.2324C255.321 22.2184 256.329 22.4083 257.268 22.7906C258.133 23.146 258.905 23.6903 259.526 24.3826C260.154 25.1127 260.629 25.9583 260.924 26.8704C261.272 27.9176 261.442 29.0144 261.427 30.1163V31.5704H250.544C250.696 32.3925 251.127 33.1389 251.767 33.6861C252.419 34.2159 253.244 34.495 254.088 34.4718C254.779 34.4952 255.462 34.3178 256.052 33.9618C256.595 33.6128 257.069 33.1691 257.45 32.6524L260.735 34.9955Z" fill="#00B0B2"></path><path d="M273.085 40.0199C272.771 40.8262 272.47 41.536 272.177 42.1493C271.909 42.7347 271.532 43.2654 271.065 43.7137C270.577 44.1589 269.991 44.4868 269.353 44.6716C268.466 44.9151 267.547 45.0243 266.627 44.9955C265.439 44.9971 264.259 44.8086 263.132 44.4373L263.754 40.6401C264.447 40.9449 265.197 41.1022 265.956 41.1018C266.389 41.115 266.821 41.0568 267.235 40.9295C267.547 40.8327 267.832 40.6651 268.067 40.4402C268.297 40.21 268.483 39.9418 268.619 39.6477C268.766 39.3376 268.92 38.9586 269.087 38.5658L269.437 37.7043L262.755 22.543H267.836L271.75 32.4668H271.813L275.168 22.543H279.998L273.085 40.0199Z" fill="#00B0B2"></path></svg> 