<?xml version="1.0" encoding="UTF-8" standalone="no"?> <svg xmlns="http://www.w3.org/2000/svg" xmlns:xlink="http://www.w3.org/1999/xlink" xmlns:serif="http://www.serif.com/" width="100%" height="100%" viewBox="0 0 61 75" version="1.1" xml:space="preserve" style="fill-rule:evenodd;clip-rule:evenodd;stroke-linejoin:round;stroke-miterlimit:2;"> <g transform="matrix(1,0,0,1,-0.678,-0.067)"> <path d="M61.547,14.322L61.483,68.729L0.678,68.729L0.678,0.067L61.548,0.067L61.548,14.322L61.547,14.322Z" style="fill:rgb(244,244,244);fill-rule:nonzero;"></path> <path d="M51.577,11.072L12.281,11.072L12.281,13.851L51.577,13.851L51.577,11.072ZM51.577,16.63L12.281,16.63L12.281,19.409L51.577,19.409L51.577,16.63Z" style="fill:rgb(0,176,178);fill-rule:nonzero;"></path> <path d="M51.577,22.199L12.281,22.199L12.281,24.988L51.577,24.988L51.577,22.199ZM51.577,27.767L12.281,27.767L12.281,30.556L51.577,30.556L51.577,27.767ZM51.577,33.336L12.281,33.336L12.281,36.115L51.577,36.115L51.577,33.336ZM51.577,38.894L12.281,38.894L12.281,41.683L51.577,41.683L51.577,38.894ZM51.577,44.473L12.281,44.473L12.281,47.252L51.577,47.252L51.577,44.473ZM51.577,50.031L12.281,50.031L12.281,52.81L51.577,52.81L51.577,50.031ZM51.577,55.6L12.281,55.6L12.281,58.379L51.577,58.379L51.577,55.6Z" style="fill:rgb(0,100,102);fill-opacity:0.2;fill-rule:nonzero;"></path> <rect x="47.367" y="21.108" width="8.409" height="46.123" style="fill:rgb(0,100,102);fill-rule:nonzero;"></rect> <path d="M51.787,75.067L51.376,75.067C49.167,75.067 47.377,73.298 47.377,71.113L47.377,67.222L55.786,67.222L55.786,71.113C55.786,73.298 53.997,75.067 51.787,75.067Z" style="fill:rgb(37,178,74);fill-rule:nonzero;"></path> <path d="M47.367,21.108L51.512,10.058L55.785,21.099L47.367,21.108Z" style="fill:white;fill-rule:nonzero;"></path> <path d="M50.078,13.786L53.018,13.786L51.521,10.048L50.078,13.786Z" style="fill:rgb(28,20,102);fill-rule:nonzero;"></path> </g> </svg> 